G04 #@! TF.FileFunction,Copper,L1,Top,Signal*
%FSLAX46Y46*%
G04 Gerber Fmt 4.6, Leading zero omitted, Abs format (unit mm)*
G04 Created by KiCad (PCBNEW 4.0.0-rc1-stable) date 4/11/2015 1:36:56 PM*
%MOMM*%
G01*
G04 APERTURE LIST*
%ADD10C,0.100000*%
%ADD11C,0.250000*%
%ADD12C,0.381000*%
%ADD13R,1.500000X1.250000*%
%ADD14R,1.250000X1.500000*%
%ADD15C,1.700000*%
%ADD16R,1.700000X1.700000*%
%ADD17R,1.727200X1.727200*%
%ADD18O,1.727200X1.727200*%
%ADD19R,0.590000X0.450000*%
%ADD20C,1.998980*%
%ADD21R,1.998980X1.998980*%
%ADD22R,0.450000X0.590000*%
%ADD23O,2.300000X1.600000*%
%ADD24C,1.800000*%
%ADD25R,1.600000X0.550000*%
%ADD26R,0.550000X1.600000*%
%ADD27C,2.500000*%
%ADD28R,1.500000X1.300000*%
%ADD29C,2.100000*%
%ADD30R,0.800100X1.800860*%
%ADD31O,5.501640X3.500120*%
%ADD32R,1.800860X0.800100*%
%ADD33O,3.500120X1.699260*%
%ADD34R,1.300000X1.500000*%
%ADD35C,2.286000*%
%ADD36R,1.143000X0.508000*%
%ADD37R,1.500000X0.450000*%
%ADD38R,1.550000X0.600000*%
%ADD39R,1.270000X0.406400*%
%ADD40O,2.540000X2.032000*%
%ADD41R,2.150000X3.250000*%
%ADD42R,2.150000X0.950000*%
%ADD43O,1.501140X0.899160*%
%ADD44R,1.060000X0.650000*%
%ADD45R,1.600000X0.300000*%
%ADD46R,2.000000X0.400000*%
%ADD47C,1.501140*%
%ADD48C,5.999480*%
%ADD49C,1.850000*%
%ADD50R,1.850000X1.850000*%
%ADD51O,3.910000X1.400000*%
%ADD52O,1.700000X1.000000*%
%ADD53R,1.800000X1.800000*%
%ADD54C,0.600000*%
%ADD55C,1.000000*%
%ADD56C,2.000000*%
%ADD57C,5.000000*%
%ADD58C,6.000000*%
%ADD59C,4.000000*%
%ADD60C,3.000000*%
%ADD61C,0.152400*%
%ADD62C,0.200000*%
G04 APERTURE END LIST*
D10*
D11*
X111238095Y-53127381D02*
X110761904Y-53127381D01*
X110761904Y-52127381D01*
X112000000Y-53127381D02*
X112000000Y-52603571D01*
X111952381Y-52508333D01*
X111857143Y-52460714D01*
X111666666Y-52460714D01*
X111571428Y-52508333D01*
X112000000Y-53079762D02*
X111904762Y-53127381D01*
X111666666Y-53127381D01*
X111571428Y-53079762D01*
X111523809Y-52984524D01*
X111523809Y-52889286D01*
X111571428Y-52794048D01*
X111666666Y-52746429D01*
X111904762Y-52746429D01*
X112000000Y-52698810D01*
X112476190Y-53127381D02*
X112476190Y-52127381D01*
X112476190Y-52508333D02*
X112571428Y-52460714D01*
X112761905Y-52460714D01*
X112857143Y-52508333D01*
X112904762Y-52555952D01*
X112952381Y-52651190D01*
X112952381Y-52936905D01*
X112904762Y-53032143D01*
X112857143Y-53079762D01*
X112761905Y-53127381D01*
X112571428Y-53127381D01*
X112476190Y-53079762D01*
X114142857Y-53127381D02*
X114142857Y-52127381D01*
X114523810Y-52127381D01*
X114619048Y-52175000D01*
X114666667Y-52222619D01*
X114714286Y-52317857D01*
X114714286Y-52460714D01*
X114666667Y-52555952D01*
X114619048Y-52603571D01*
X114523810Y-52651190D01*
X114142857Y-52651190D01*
X115095238Y-53079762D02*
X115238095Y-53127381D01*
X115476191Y-53127381D01*
X115571429Y-53079762D01*
X115619048Y-53032143D01*
X115666667Y-52936905D01*
X115666667Y-52841667D01*
X115619048Y-52746429D01*
X115571429Y-52698810D01*
X115476191Y-52651190D01*
X115285714Y-52603571D01*
X115190476Y-52555952D01*
X115142857Y-52508333D01*
X115095238Y-52413095D01*
X115095238Y-52317857D01*
X115142857Y-52222619D01*
X115190476Y-52175000D01*
X115285714Y-52127381D01*
X115523810Y-52127381D01*
X115666667Y-52175000D01*
X116095238Y-52127381D02*
X116095238Y-52936905D01*
X116142857Y-53032143D01*
X116190476Y-53079762D01*
X116285714Y-53127381D01*
X116476191Y-53127381D01*
X116571429Y-53079762D01*
X116619048Y-53032143D01*
X116666667Y-52936905D01*
X116666667Y-52127381D01*
X117761905Y-52127381D02*
X118095238Y-53127381D01*
X118428572Y-52127381D01*
X119285715Y-53127381D02*
X118714286Y-53127381D01*
X119000000Y-53127381D02*
X119000000Y-52127381D01*
X118904762Y-52270238D01*
X118809524Y-52365476D01*
X118714286Y-52413095D01*
X101880950Y-55158333D02*
X101833330Y-55110714D01*
X101738092Y-54967857D01*
X101690473Y-54872619D01*
X101642854Y-54729762D01*
X101595235Y-54491667D01*
X101595235Y-54301190D01*
X101642854Y-54063095D01*
X101690473Y-53920238D01*
X101738092Y-53825000D01*
X101833330Y-53682143D01*
X101880950Y-53634524D01*
X102690474Y-54729762D02*
X102595236Y-54777381D01*
X102404759Y-54777381D01*
X102309521Y-54729762D01*
X102261902Y-54682143D01*
X102214283Y-54586905D01*
X102214283Y-54301190D01*
X102261902Y-54205952D01*
X102309521Y-54158333D01*
X102404759Y-54110714D01*
X102595236Y-54110714D01*
X102690474Y-54158333D01*
X103023807Y-55158333D02*
X103071426Y-55110714D01*
X103166664Y-54967857D01*
X103214283Y-54872619D01*
X103261902Y-54729762D01*
X103309521Y-54491667D01*
X103309521Y-54301190D01*
X103261902Y-54063095D01*
X103214283Y-53920238D01*
X103166664Y-53825000D01*
X103071426Y-53682143D01*
X103023807Y-53634524D01*
X105119046Y-54777381D02*
X104785712Y-54301190D01*
X104547617Y-54777381D02*
X104547617Y-53777381D01*
X104928570Y-53777381D01*
X105023808Y-53825000D01*
X105071427Y-53872619D01*
X105119046Y-53967857D01*
X105119046Y-54110714D01*
X105071427Y-54205952D01*
X105023808Y-54253571D01*
X104928570Y-54301190D01*
X104547617Y-54301190D01*
X105976189Y-54110714D02*
X105976189Y-54777381D01*
X105547617Y-54110714D02*
X105547617Y-54634524D01*
X105595236Y-54729762D01*
X105690474Y-54777381D01*
X105833332Y-54777381D01*
X105928570Y-54729762D01*
X105976189Y-54682143D01*
X106452379Y-54110714D02*
X106452379Y-54777381D01*
X106452379Y-54205952D02*
X106499998Y-54158333D01*
X106595236Y-54110714D01*
X106738094Y-54110714D01*
X106833332Y-54158333D01*
X106880951Y-54253571D01*
X106880951Y-54777381D01*
X107785713Y-54729762D02*
X107690475Y-54777381D01*
X107499998Y-54777381D01*
X107404760Y-54729762D01*
X107357141Y-54682143D01*
X107309522Y-54586905D01*
X107309522Y-54301190D01*
X107357141Y-54205952D01*
X107404760Y-54158333D01*
X107499998Y-54110714D01*
X107690475Y-54110714D01*
X107785713Y-54158333D01*
X108214284Y-54777381D02*
X108214284Y-54110714D01*
X108214284Y-53777381D02*
X108166665Y-53825000D01*
X108214284Y-53872619D01*
X108261903Y-53825000D01*
X108214284Y-53777381D01*
X108214284Y-53872619D01*
X108690474Y-54777381D02*
X108690474Y-53777381D01*
X108690474Y-54158333D02*
X108785712Y-54110714D01*
X108976189Y-54110714D01*
X109071427Y-54158333D01*
X109119046Y-54205952D01*
X109166665Y-54301190D01*
X109166665Y-54586905D01*
X109119046Y-54682143D01*
X109071427Y-54729762D01*
X108976189Y-54777381D01*
X108785712Y-54777381D01*
X108690474Y-54729762D01*
X109738093Y-54777381D02*
X109642855Y-54729762D01*
X109595236Y-54634524D01*
X109595236Y-53777381D01*
X110499999Y-54729762D02*
X110404761Y-54777381D01*
X110214284Y-54777381D01*
X110119046Y-54729762D01*
X110071427Y-54634524D01*
X110071427Y-54253571D01*
X110119046Y-54158333D01*
X110214284Y-54110714D01*
X110404761Y-54110714D01*
X110499999Y-54158333D01*
X110547618Y-54253571D01*
X110547618Y-54348810D01*
X110071427Y-54444048D01*
X111690475Y-54729762D02*
X111833332Y-54777381D01*
X112071428Y-54777381D01*
X112166666Y-54729762D01*
X112214285Y-54682143D01*
X112261904Y-54586905D01*
X112261904Y-54491667D01*
X112214285Y-54396429D01*
X112166666Y-54348810D01*
X112071428Y-54301190D01*
X111880951Y-54253571D01*
X111785713Y-54205952D01*
X111738094Y-54158333D01*
X111690475Y-54063095D01*
X111690475Y-53967857D01*
X111738094Y-53872619D01*
X111785713Y-53825000D01*
X111880951Y-53777381D01*
X112119047Y-53777381D01*
X112261904Y-53825000D01*
X112833332Y-54777381D02*
X112738094Y-54729762D01*
X112690475Y-54682143D01*
X112642856Y-54586905D01*
X112642856Y-54301190D01*
X112690475Y-54205952D01*
X112738094Y-54158333D01*
X112833332Y-54110714D01*
X112976190Y-54110714D01*
X113071428Y-54158333D01*
X113119047Y-54205952D01*
X113166666Y-54301190D01*
X113166666Y-54586905D01*
X113119047Y-54682143D01*
X113071428Y-54729762D01*
X112976190Y-54777381D01*
X112833332Y-54777381D01*
X113452380Y-54110714D02*
X113833332Y-54110714D01*
X113595237Y-54777381D02*
X113595237Y-53920238D01*
X113642856Y-53825000D01*
X113738094Y-53777381D01*
X113833332Y-53777381D01*
X114023809Y-54110714D02*
X114404761Y-54110714D01*
X114166666Y-53777381D02*
X114166666Y-54634524D01*
X114214285Y-54729762D01*
X114309523Y-54777381D01*
X114404761Y-54777381D01*
X114642857Y-54110714D02*
X114833333Y-54777381D01*
X115023810Y-54301190D01*
X115214286Y-54777381D01*
X115404762Y-54110714D01*
X116214286Y-54777381D02*
X116214286Y-54253571D01*
X116166667Y-54158333D01*
X116071429Y-54110714D01*
X115880952Y-54110714D01*
X115785714Y-54158333D01*
X116214286Y-54729762D02*
X116119048Y-54777381D01*
X115880952Y-54777381D01*
X115785714Y-54729762D01*
X115738095Y-54634524D01*
X115738095Y-54539286D01*
X115785714Y-54444048D01*
X115880952Y-54396429D01*
X116119048Y-54396429D01*
X116214286Y-54348810D01*
X116690476Y-54777381D02*
X116690476Y-54110714D01*
X116690476Y-54301190D02*
X116738095Y-54205952D01*
X116785714Y-54158333D01*
X116880952Y-54110714D01*
X116976191Y-54110714D01*
X117690477Y-54729762D02*
X117595239Y-54777381D01*
X117404762Y-54777381D01*
X117309524Y-54729762D01*
X117261905Y-54634524D01*
X117261905Y-54253571D01*
X117309524Y-54158333D01*
X117404762Y-54110714D01*
X117595239Y-54110714D01*
X117690477Y-54158333D01*
X117738096Y-54253571D01*
X117738096Y-54348810D01*
X117261905Y-54444048D01*
X118928572Y-54777381D02*
X118928572Y-53777381D01*
X119309525Y-53777381D01*
X119404763Y-53825000D01*
X119452382Y-53872619D01*
X119500001Y-53967857D01*
X119500001Y-54110714D01*
X119452382Y-54205952D01*
X119404763Y-54253571D01*
X119309525Y-54301190D01*
X118928572Y-54301190D01*
X119785715Y-54110714D02*
X120166667Y-54110714D01*
X119928572Y-53777381D02*
X119928572Y-54634524D01*
X119976191Y-54729762D01*
X120071429Y-54777381D01*
X120166667Y-54777381D01*
X120404763Y-54110714D02*
X120642858Y-54777381D01*
X120880954Y-54110714D02*
X120642858Y-54777381D01*
X120547620Y-55015476D01*
X120500001Y-55063095D01*
X120404763Y-55110714D01*
X122500002Y-54777381D02*
X122023811Y-54777381D01*
X122023811Y-53777381D01*
X122690478Y-54110714D02*
X123071430Y-54110714D01*
X122833335Y-53777381D02*
X122833335Y-54634524D01*
X122880954Y-54729762D01*
X122976192Y-54777381D01*
X123071430Y-54777381D01*
X123833336Y-54777381D02*
X123833336Y-53777381D01*
X123833336Y-54729762D02*
X123738098Y-54777381D01*
X123547621Y-54777381D01*
X123452383Y-54729762D01*
X123404764Y-54682143D01*
X123357145Y-54586905D01*
X123357145Y-54301190D01*
X123404764Y-54205952D01*
X123452383Y-54158333D01*
X123547621Y-54110714D01*
X123738098Y-54110714D01*
X123833336Y-54158333D01*
X125023812Y-53872619D02*
X125071431Y-53825000D01*
X125166669Y-53777381D01*
X125404765Y-53777381D01*
X125500003Y-53825000D01*
X125547622Y-53872619D01*
X125595241Y-53967857D01*
X125595241Y-54063095D01*
X125547622Y-54205952D01*
X124976193Y-54777381D01*
X125595241Y-54777381D01*
X126214288Y-53777381D02*
X126309527Y-53777381D01*
X126404765Y-53825000D01*
X126452384Y-53872619D01*
X126500003Y-53967857D01*
X126547622Y-54158333D01*
X126547622Y-54396429D01*
X126500003Y-54586905D01*
X126452384Y-54682143D01*
X126404765Y-54729762D01*
X126309527Y-54777381D01*
X126214288Y-54777381D01*
X126119050Y-54729762D01*
X126071431Y-54682143D01*
X126023812Y-54586905D01*
X125976193Y-54396429D01*
X125976193Y-54158333D01*
X126023812Y-53967857D01*
X126071431Y-53872619D01*
X126119050Y-53825000D01*
X126214288Y-53777381D01*
X127500003Y-54777381D02*
X126928574Y-54777381D01*
X127214288Y-54777381D02*
X127214288Y-53777381D01*
X127119050Y-53920238D01*
X127023812Y-54015476D01*
X126928574Y-54063095D01*
X128404765Y-53777381D02*
X127928574Y-53777381D01*
X127880955Y-54253571D01*
X127928574Y-54205952D01*
X128023812Y-54158333D01*
X128261908Y-54158333D01*
X128357146Y-54205952D01*
X128404765Y-54253571D01*
X128452384Y-54348810D01*
X128452384Y-54586905D01*
X128404765Y-54682143D01*
X128357146Y-54729762D01*
X128261908Y-54777381D01*
X128023812Y-54777381D01*
X127928574Y-54729762D01*
X127880955Y-54682143D01*
D12*
X135268780Y-54889860D02*
X135629460Y-56360520D01*
X135629460Y-56360520D02*
X135908860Y-55298800D01*
X135908860Y-55298800D02*
X136218740Y-56370680D01*
X136218740Y-56370680D02*
X136559100Y-54920340D01*
X133848920Y-55580740D02*
X134638860Y-55570580D01*
X134638860Y-55570580D02*
X134649020Y-55580740D01*
X134649020Y-55580740D02*
X134649020Y-55570580D01*
X134689660Y-54859380D02*
X134689660Y-56401160D01*
X133800660Y-54849220D02*
X133800660Y-56418940D01*
X133800660Y-56418940D02*
X133810820Y-56408780D01*
X133249480Y-54950820D02*
X132898960Y-54869540D01*
X132898960Y-54869540D02*
X132578920Y-54859380D01*
X132578920Y-54859380D02*
X132340160Y-55060040D01*
X132340160Y-55060040D02*
X132309680Y-55329280D01*
X132309680Y-55329280D02*
X132550980Y-55570580D01*
X132550980Y-55570580D02*
X132939600Y-55700120D01*
X132939600Y-55700120D02*
X133119940Y-55860140D01*
X133119940Y-55860140D02*
X133160580Y-56159860D01*
X133160580Y-56159860D02*
X132929440Y-56380840D01*
X132929440Y-56380840D02*
X132609400Y-56408780D01*
X132609400Y-56408780D02*
X132258880Y-56299560D01*
X131220020Y-54849220D02*
X130971100Y-54869540D01*
X130971100Y-54869540D02*
X130729800Y-55110840D01*
X130729800Y-55110840D02*
X130640900Y-55601060D01*
X130640900Y-55601060D02*
X130668840Y-55949040D01*
X130668840Y-55949040D02*
X130869500Y-56269080D01*
X130869500Y-56269080D02*
X131120960Y-56391000D01*
X131120960Y-56391000D02*
X131430840Y-56319880D01*
X131430840Y-56319880D02*
X131649280Y-56139540D01*
X131649280Y-56139540D02*
X131720400Y-55679800D01*
X131720400Y-55679800D02*
X131669600Y-55270860D01*
X131669600Y-55270860D02*
X131560380Y-54988920D01*
X131560380Y-54988920D02*
X131199700Y-54859380D01*
X131819460Y-53129640D02*
X131560380Y-53690980D01*
X131560380Y-53690980D02*
X132098860Y-54209140D01*
X132098860Y-54209140D02*
X132619560Y-53939900D01*
X132619560Y-53939900D02*
X132898960Y-54099920D01*
X134339140Y-54079600D02*
X134669340Y-53889100D01*
X134669340Y-53889100D02*
X135108760Y-54219300D01*
X135108760Y-54219300D02*
X135581200Y-53729080D01*
X135581200Y-53729080D02*
X135299260Y-53249020D01*
X135299260Y-53249020D02*
X135489760Y-52779120D01*
X135489760Y-52779120D02*
X136099360Y-52591160D01*
X136099360Y-52591160D02*
X136099360Y-51910440D01*
X136099360Y-51910440D02*
X135540560Y-51770740D01*
X135540560Y-51770740D02*
X135339900Y-51199240D01*
X135339900Y-51199240D02*
X135609140Y-50729340D01*
X135609140Y-50729340D02*
X135139240Y-50218800D01*
X135139240Y-50218800D02*
X134621080Y-50480420D01*
X134621080Y-50480420D02*
X134151180Y-50279760D01*
X134151180Y-50279760D02*
X133981000Y-49738740D01*
X133981000Y-49738740D02*
X133290120Y-49720960D01*
X133290120Y-49720960D02*
X133079300Y-50269600D01*
X133079300Y-50269600D02*
X132660200Y-50439780D01*
X132660200Y-50439780D02*
X132109020Y-50170540D01*
X132109020Y-50170540D02*
X131590860Y-50698860D01*
X131590860Y-50698860D02*
X131839780Y-51239880D01*
X131839780Y-51239880D02*
X131669600Y-51719940D01*
X131669600Y-51719940D02*
X131120960Y-51819000D01*
X131120960Y-51819000D02*
X131110800Y-52520040D01*
X131110800Y-52520040D02*
X131669600Y-52720700D01*
X131669600Y-52720700D02*
X131809300Y-53119480D01*
X133950520Y-53099160D02*
X134250240Y-52949300D01*
X134250240Y-52949300D02*
X134450900Y-52751180D01*
X134450900Y-52751180D02*
X134600760Y-52349860D01*
X134600760Y-52349860D02*
X134600760Y-51951080D01*
X134600760Y-51951080D02*
X134450900Y-51600560D01*
X134450900Y-51600560D02*
X133998780Y-51250040D01*
X133998780Y-51250040D02*
X133549200Y-51199240D01*
X133549200Y-51199240D02*
X133150420Y-51300840D01*
X133150420Y-51300840D02*
X132749100Y-51648820D01*
X132749100Y-51648820D02*
X132599240Y-52100940D01*
X132599240Y-52100940D02*
X132650040Y-52598780D01*
X132650040Y-52598780D02*
X132898960Y-52901040D01*
X132898960Y-52901040D02*
X133249480Y-53099160D01*
X133249480Y-53099160D02*
X132898960Y-54099920D01*
X133950520Y-53099160D02*
X134349300Y-54099920D01*
D13*
X137434000Y-117602000D03*
X139934000Y-117602000D03*
X137434000Y-115316000D03*
X139934000Y-115316000D03*
D14*
X126000000Y-126750000D03*
X126000000Y-124250000D03*
X111000000Y-125250000D03*
X111000000Y-122750000D03*
D13*
X116250000Y-114000000D03*
X113750000Y-114000000D03*
X116250000Y-117000000D03*
X113750000Y-117000000D03*
X153250000Y-102000000D03*
X155750000Y-102000000D03*
X153250000Y-100000000D03*
X155750000Y-100000000D03*
X146250000Y-100000000D03*
X148750000Y-100000000D03*
X146250000Y-102000000D03*
X148750000Y-102000000D03*
D14*
X145000000Y-136250000D03*
X145000000Y-138750000D03*
X148000000Y-136250000D03*
X148000000Y-138750000D03*
X162306000Y-137180000D03*
X162306000Y-139680000D03*
X164592000Y-137180000D03*
X164592000Y-139680000D03*
D13*
X158750000Y-119000000D03*
X161250000Y-119000000D03*
X158750000Y-121500000D03*
X161250000Y-121500000D03*
X115250000Y-67000000D03*
X117750000Y-67000000D03*
X143276000Y-70104000D03*
X145776000Y-70104000D03*
X109250000Y-70000000D03*
X106750000Y-70000000D03*
X123050000Y-71700000D03*
X125550000Y-71700000D03*
X109250000Y-78200000D03*
X106750000Y-78200000D03*
X113750000Y-84000000D03*
X116250000Y-84000000D03*
X30050000Y-124200000D03*
X32550000Y-124200000D03*
D15*
X43000000Y-125000000D03*
D16*
X38000000Y-125000000D03*
D13*
X43550000Y-92600000D03*
X46050000Y-92600000D03*
D14*
X129000000Y-126750000D03*
X129000000Y-124250000D03*
D13*
X121750000Y-108000000D03*
X119250000Y-108000000D03*
X121750000Y-114000000D03*
X119250000Y-114000000D03*
D17*
X115000000Y-137000000D03*
D18*
X115000000Y-134460000D03*
X117540000Y-137000000D03*
X117540000Y-134460000D03*
X120080000Y-137000000D03*
X120080000Y-134460000D03*
D19*
X108255000Y-72800000D03*
X106145000Y-72800000D03*
X115255000Y-87000000D03*
X113145000Y-87000000D03*
D20*
X36497460Y-55340000D03*
D21*
X36497460Y-65500000D03*
D22*
X30734000Y-67603000D03*
X30734000Y-65493000D03*
D20*
X152160000Y-61067460D03*
D21*
X142000000Y-61067460D03*
D23*
X57000000Y-127500000D03*
X57000000Y-122460000D03*
X49380000Y-122460000D03*
X49380000Y-127500000D03*
D22*
X78500000Y-85945000D03*
X78500000Y-88055000D03*
D19*
X36745000Y-80600000D03*
X38855000Y-80600000D03*
X36445000Y-92200000D03*
X38555000Y-92200000D03*
D22*
X81500000Y-85945000D03*
X81500000Y-88055000D03*
D24*
X144000000Y-58000000D03*
X154200000Y-55000000D03*
D25*
X114250000Y-122200000D03*
X114250000Y-123000000D03*
X114250000Y-123800000D03*
X114250000Y-124600000D03*
X114250000Y-125400000D03*
X114250000Y-126200000D03*
X114250000Y-127000000D03*
X114250000Y-127800000D03*
D26*
X115700000Y-129250000D03*
X116500000Y-129250000D03*
X117300000Y-129250000D03*
X118100000Y-129250000D03*
X118900000Y-129250000D03*
X119700000Y-129250000D03*
X120500000Y-129250000D03*
X121300000Y-129250000D03*
D25*
X122750000Y-127800000D03*
X122750000Y-127000000D03*
X122750000Y-126200000D03*
X122750000Y-125400000D03*
X122750000Y-124600000D03*
X122750000Y-123800000D03*
X122750000Y-123000000D03*
X122750000Y-122200000D03*
D26*
X121300000Y-120750000D03*
X120500000Y-120750000D03*
X119700000Y-120750000D03*
X118900000Y-120750000D03*
X118100000Y-120750000D03*
X117300000Y-120750000D03*
X116500000Y-120750000D03*
X115700000Y-120750000D03*
D27*
X63000000Y-106000000D03*
X83160000Y-106000000D03*
X78120000Y-106000000D03*
X88200000Y-106000000D03*
X63000000Y-113560000D03*
X78120000Y-113560000D03*
X83160000Y-113560000D03*
X88200000Y-113560000D03*
D28*
X107650000Y-140000000D03*
X110350000Y-140000000D03*
D29*
X166000000Y-74000000D03*
X166000000Y-69000000D03*
X166000000Y-64000000D03*
X166000000Y-59000000D03*
X62007500Y-124317500D03*
X67007500Y-124317500D03*
X72007500Y-124317500D03*
X77007500Y-124317500D03*
X82007500Y-124317500D03*
X87007500Y-124317500D03*
D30*
X100450000Y-86301140D03*
X102350000Y-86301140D03*
X101400000Y-83298860D03*
D31*
X25654000Y-65786000D03*
X25654000Y-71374000D03*
X25654000Y-60198000D03*
D32*
X35498860Y-115050000D03*
X35498860Y-116950000D03*
X38501140Y-116000000D03*
D30*
X105550000Y-132001140D03*
X107450000Y-132001140D03*
X106500000Y-128998860D03*
D33*
X25908000Y-80010000D03*
X25908000Y-82550000D03*
X25908000Y-77470000D03*
X25908000Y-91186000D03*
X25908000Y-93726000D03*
X25908000Y-88646000D03*
D32*
X46051140Y-90550000D03*
X46051140Y-88650000D03*
X43048860Y-89600000D03*
D28*
X132650000Y-80500000D03*
X135350000Y-80500000D03*
X126250000Y-103750000D03*
X123550000Y-103750000D03*
X135350000Y-83000000D03*
X132650000Y-83000000D03*
X132650000Y-85500000D03*
X135350000Y-85500000D03*
D34*
X124000000Y-134150000D03*
X124000000Y-136850000D03*
D28*
X125850000Y-98750000D03*
X123150000Y-98750000D03*
X125850000Y-93500000D03*
X123150000Y-93500000D03*
D34*
X148350000Y-124850000D03*
X148350000Y-127550000D03*
D28*
X123110000Y-81534000D03*
X125810000Y-81534000D03*
X106650000Y-67200000D03*
X109350000Y-67200000D03*
X109350000Y-84400000D03*
X106650000Y-84400000D03*
X125810000Y-78740000D03*
X123110000Y-78740000D03*
X123050000Y-66900000D03*
X125750000Y-66900000D03*
X125750000Y-73900000D03*
X123050000Y-73900000D03*
X106650000Y-87600000D03*
X109350000Y-87600000D03*
D34*
X160000000Y-75350000D03*
X160000000Y-72650000D03*
D28*
X125750000Y-69500000D03*
X123050000Y-69500000D03*
X106650000Y-75200000D03*
X109350000Y-75200000D03*
X123110000Y-76200000D03*
X125810000Y-76200000D03*
D34*
X160000000Y-55650000D03*
X160000000Y-58350000D03*
D28*
X123110000Y-84582000D03*
X125810000Y-84582000D03*
X116350000Y-81000000D03*
X113650000Y-81000000D03*
X135302000Y-64262000D03*
X138002000Y-64262000D03*
X138764000Y-76200000D03*
X136064000Y-76200000D03*
D35*
X152215000Y-64250000D03*
X140785000Y-64250000D03*
D28*
X29650000Y-127000000D03*
X32350000Y-127000000D03*
X29650000Y-130000000D03*
X32350000Y-130000000D03*
X29900000Y-121250000D03*
X32600000Y-121250000D03*
X29650000Y-132500000D03*
X32350000Y-132500000D03*
X44100000Y-114000000D03*
X41400000Y-114000000D03*
D34*
X49500000Y-115100000D03*
X49500000Y-112400000D03*
D28*
X53039000Y-109982000D03*
X50339000Y-109982000D03*
X35400000Y-112500000D03*
X38100000Y-112500000D03*
X35400000Y-109500000D03*
X38100000Y-109500000D03*
X38180000Y-106680000D03*
X35480000Y-106680000D03*
X108350000Y-135000000D03*
X105650000Y-135000000D03*
X35450000Y-86600000D03*
X38150000Y-86600000D03*
X35450000Y-89600000D03*
X38150000Y-89600000D03*
X35450000Y-83600000D03*
X38150000Y-83600000D03*
X38180000Y-100584000D03*
X35480000Y-100584000D03*
X81350000Y-84000000D03*
X78650000Y-84000000D03*
X63650000Y-84000000D03*
X66350000Y-84000000D03*
X123110000Y-87884000D03*
X125810000Y-87884000D03*
X35450000Y-97600000D03*
X38150000Y-97600000D03*
X123110000Y-90932000D03*
X125810000Y-90932000D03*
X38150000Y-103600000D03*
X35450000Y-103600000D03*
X35450000Y-94600000D03*
X38150000Y-94600000D03*
X46150000Y-86350000D03*
X43450000Y-86350000D03*
D34*
X143500000Y-97350000D03*
X143500000Y-94650000D03*
D28*
X125850000Y-96000000D03*
X123150000Y-96000000D03*
X63650000Y-89000000D03*
X66350000Y-89000000D03*
D36*
X113198000Y-69690000D03*
X113198000Y-70960000D03*
X113198000Y-72230000D03*
X113198000Y-73500000D03*
X113198000Y-74770000D03*
X113198000Y-76040000D03*
X113198000Y-77310000D03*
X119548000Y-77310000D03*
X119548000Y-76040000D03*
X119548000Y-73500000D03*
X119548000Y-72230000D03*
X119548000Y-70960000D03*
X119548000Y-69690000D03*
X119548000Y-74770000D03*
D37*
X129550000Y-107225000D03*
X129550000Y-107875000D03*
X129550000Y-108525000D03*
X129550000Y-109175000D03*
X129550000Y-109825000D03*
X129550000Y-110475000D03*
X129550000Y-111125000D03*
X129550000Y-111775000D03*
X135450000Y-111775000D03*
X135450000Y-111125000D03*
X135450000Y-110475000D03*
X135450000Y-109825000D03*
X135450000Y-109175000D03*
X135450000Y-108525000D03*
X135450000Y-107875000D03*
X135450000Y-107225000D03*
D38*
X111084000Y-106727000D03*
X111084000Y-107997000D03*
X111084000Y-109267000D03*
X111084000Y-110537000D03*
X116484000Y-110537000D03*
X116484000Y-109267000D03*
X116484000Y-107997000D03*
X116484000Y-106727000D03*
D37*
X147050000Y-106225000D03*
X147050000Y-106875000D03*
X147050000Y-107525000D03*
X147050000Y-108175000D03*
X147050000Y-108825000D03*
X147050000Y-109475000D03*
X147050000Y-110125000D03*
X147050000Y-110775000D03*
X152950000Y-110775000D03*
X152950000Y-110125000D03*
X152950000Y-109475000D03*
X152950000Y-108825000D03*
X152950000Y-108175000D03*
X152950000Y-107525000D03*
X152950000Y-106875000D03*
X152950000Y-106225000D03*
D36*
X158175000Y-135095000D03*
X158175000Y-136365000D03*
X158175000Y-137635000D03*
X158175000Y-138905000D03*
X151825000Y-138905000D03*
X151825000Y-137635000D03*
X151825000Y-136365000D03*
X151825000Y-135095000D03*
D39*
X155833000Y-124579000D03*
X155833000Y-125214000D03*
X155833000Y-125874400D03*
X155833000Y-126534800D03*
X155833000Y-127169800D03*
X155833000Y-127830200D03*
X155833000Y-128490600D03*
X155833000Y-129125600D03*
X155833000Y-129786000D03*
X155833000Y-130421000D03*
X161167000Y-130421000D03*
X161167000Y-129786000D03*
X161167000Y-129125600D03*
X161167000Y-128490600D03*
X161167000Y-127830200D03*
X161167000Y-127169800D03*
X161167000Y-126534800D03*
X161167000Y-125874400D03*
X161167000Y-125214000D03*
X161167000Y-124579000D03*
D36*
X132698000Y-88690000D03*
X132698000Y-89960000D03*
X132698000Y-91230000D03*
X132698000Y-92500000D03*
X132698000Y-93770000D03*
X132698000Y-95040000D03*
X132698000Y-96310000D03*
X139048000Y-96310000D03*
X139048000Y-95040000D03*
X139048000Y-92500000D03*
X139048000Y-91230000D03*
X139048000Y-89960000D03*
X139048000Y-88690000D03*
X139048000Y-93770000D03*
D38*
X134714000Y-68707000D03*
X134714000Y-69977000D03*
X134714000Y-71247000D03*
X134714000Y-72517000D03*
X140114000Y-72517000D03*
X140114000Y-71247000D03*
X140114000Y-69977000D03*
X140114000Y-68707000D03*
D40*
X26000000Y-127000000D03*
X26000000Y-124460000D03*
X26000000Y-129540000D03*
D41*
X58272000Y-114808000D03*
D42*
X52472000Y-112508000D03*
X52472000Y-114808000D03*
X52472000Y-117108000D03*
D43*
X73000000Y-85730000D03*
X73000000Y-84460000D03*
X73000000Y-87000000D03*
D44*
X44112000Y-97348000D03*
X44112000Y-98298000D03*
X44112000Y-99248000D03*
X46312000Y-99248000D03*
X46312000Y-97348000D03*
D24*
X167000000Y-83000000D03*
X169500000Y-90500000D03*
X160000000Y-83000000D03*
X162500000Y-90500000D03*
X153000000Y-83000000D03*
X155500000Y-90500000D03*
X146000000Y-83000000D03*
X148500000Y-90500000D03*
X160000000Y-100000000D03*
X162500000Y-107500000D03*
X167000000Y-100000000D03*
X169500000Y-107500000D03*
D45*
X111000000Y-130000000D03*
X111000000Y-129050000D03*
X111000000Y-128100000D03*
D46*
X152000000Y-125500000D03*
X152000000Y-126700000D03*
X152000000Y-127900000D03*
D47*
X125000000Y-108059060D03*
X125000000Y-112940940D03*
D48*
X168000000Y-117000000D03*
D32*
X106657140Y-92898000D03*
X106657140Y-90998000D03*
X103654860Y-91948000D03*
X106657140Y-97216000D03*
X106657140Y-95316000D03*
X103654860Y-96266000D03*
D28*
X106600000Y-80772000D03*
X109300000Y-80772000D03*
X113712000Y-96012000D03*
X116412000Y-96012000D03*
X116412000Y-92964000D03*
X113712000Y-92964000D03*
X113712000Y-89916000D03*
X116412000Y-89916000D03*
D49*
X53340000Y-74580000D03*
D50*
X53340000Y-62580000D03*
D49*
X82550000Y-74580000D03*
D50*
X82550000Y-62580000D03*
D40*
X26000000Y-114000000D03*
X26000000Y-111460000D03*
X26000000Y-116540000D03*
D20*
X99000000Y-60000000D03*
X99000000Y-80000000D03*
D51*
X168402000Y-130810000D03*
X168402000Y-123510000D03*
D52*
X169702000Y-127160000D03*
X169702000Y-125560000D03*
X169702000Y-128760000D03*
X167102000Y-127960000D03*
X167102000Y-126360000D03*
D13*
X46970000Y-102362000D03*
X44470000Y-102362000D03*
D53*
X62992000Y-96012000D03*
D24*
X72992000Y-96012000D03*
X80492000Y-96012000D03*
X87992000Y-96012000D03*
D54*
X115850000Y-126450000D03*
X151500000Y-110000000D03*
X151250000Y-133800000D03*
X147200000Y-134150000D03*
X117500000Y-125000000D03*
X142494000Y-116586000D03*
X108966000Y-112014000D03*
X116275000Y-123850000D03*
X121050000Y-124650000D03*
X42672000Y-100838000D03*
X53250000Y-100500000D03*
X121158000Y-92710000D03*
X116840000Y-72136000D03*
X116840000Y-70358000D03*
X140462000Y-85852000D03*
X126238000Y-122428000D03*
X119126000Y-115824000D03*
X109220000Y-132334000D03*
X109220000Y-126492000D03*
X137668000Y-111252000D03*
X150622000Y-102108000D03*
X130775000Y-124350000D03*
X109025000Y-128850000D03*
X109075000Y-122050000D03*
X113275000Y-118825000D03*
X122775000Y-131225000D03*
X142075000Y-139650000D03*
X152775000Y-105050000D03*
X148775000Y-107300000D03*
X135900000Y-105075000D03*
X155600000Y-104000000D03*
X144800000Y-92600000D03*
X155800000Y-98000000D03*
X109400000Y-86000000D03*
X144000000Y-67750000D03*
X137500000Y-70000000D03*
X117750000Y-70250000D03*
X40750000Y-87750000D03*
X40750000Y-91000000D03*
X53136800Y-108153200D03*
X45974000Y-139700000D03*
X43434000Y-139700000D03*
X139446000Y-106000000D03*
X144000000Y-102200000D03*
X134500000Y-106000000D03*
X128500000Y-105500000D03*
X143150000Y-73600000D03*
X143350000Y-80300000D03*
X111250000Y-97350000D03*
X109100000Y-108150000D03*
X104500000Y-140000000D03*
X44500000Y-117700000D03*
X48500000Y-139800000D03*
X159850000Y-135200000D03*
X160900000Y-137250000D03*
X50292000Y-102362000D03*
X103632000Y-72898000D03*
X130048000Y-93218000D03*
X111760000Y-74422000D03*
X98044000Y-83820000D03*
X102750000Y-93550000D03*
X127762000Y-71882000D03*
X111506000Y-72390000D03*
X33274000Y-96012000D03*
X51200000Y-90550000D03*
X59800000Y-84200000D03*
X132842000Y-120650000D03*
X132842000Y-123698000D03*
X127508000Y-129540000D03*
X122682000Y-129540000D03*
X127900000Y-107200000D03*
X124600000Y-128500000D03*
X134112000Y-120396000D03*
X134112000Y-123698000D03*
X125730000Y-138176000D03*
X118250000Y-122500000D03*
X120500000Y-122775000D03*
X123950000Y-117200000D03*
X126250000Y-111450000D03*
X119500000Y-127400000D03*
X154940000Y-108204000D03*
X154432000Y-113284000D03*
X141986000Y-123190000D03*
X140208000Y-124968000D03*
X119634000Y-139446000D03*
X118364000Y-131572000D03*
X125200000Y-119400000D03*
X125100000Y-118000000D03*
X127762000Y-77216000D03*
X127762000Y-80010000D03*
X130250000Y-80500000D03*
X130250000Y-77750000D03*
X128150000Y-103800000D03*
X131250000Y-105275000D03*
X114600000Y-72200000D03*
X119500000Y-92700000D03*
X128250000Y-98500000D03*
X130750000Y-96000000D03*
X132050000Y-104750000D03*
X128270000Y-90932000D03*
X138684000Y-74422000D03*
X117856000Y-74930000D03*
X129540000Y-88646000D03*
X131826000Y-87376000D03*
X47752000Y-99314000D03*
X85000000Y-88500000D03*
X118618000Y-98298000D03*
X118364000Y-92710000D03*
X114808000Y-75184000D03*
X118750000Y-101300000D03*
X116300000Y-98300000D03*
X112500000Y-130800000D03*
X108966000Y-92964000D03*
X110998000Y-82296000D03*
X135350000Y-95600000D03*
X132950000Y-104650000D03*
X139350000Y-99100000D03*
X134366000Y-93980000D03*
X162814000Y-124460000D03*
X163322000Y-121412000D03*
X149860000Y-126746000D03*
X160020000Y-139700000D03*
D11*
X114250000Y-126200000D02*
X115600000Y-126200000D01*
X115600000Y-126200000D02*
X115850000Y-126450000D01*
X148000000Y-136250000D02*
X145000000Y-136250000D01*
X151625000Y-110125000D02*
X152950000Y-110125000D01*
X151500000Y-110000000D02*
X151625000Y-110125000D01*
X152950000Y-106875000D02*
X151625000Y-106875000D01*
X151275000Y-110775000D02*
X152950000Y-110775000D01*
X151000000Y-110500000D02*
X151275000Y-110775000D01*
X150500000Y-110500000D02*
X151000000Y-110500000D01*
X150000000Y-110000000D02*
X150500000Y-110500000D01*
X150000000Y-108500000D02*
X150000000Y-110000000D01*
X151625000Y-106875000D02*
X150000000Y-108500000D01*
X110350000Y-140000000D02*
X116500000Y-140000000D01*
X153000000Y-135000000D02*
X151920000Y-135000000D01*
X154000000Y-136000000D02*
X153000000Y-135000000D01*
X154000000Y-139500000D02*
X154000000Y-136000000D01*
X153000000Y-140500000D02*
X154000000Y-139500000D01*
X117000000Y-140500000D02*
X153000000Y-140500000D01*
X116500000Y-140000000D02*
X117000000Y-140500000D01*
X151920000Y-135000000D02*
X151825000Y-135095000D01*
X152950000Y-106875000D02*
X151775000Y-106875000D01*
X151650000Y-103200000D02*
X152850000Y-102000000D01*
X151650000Y-106750000D02*
X151650000Y-103200000D01*
X151775000Y-106875000D02*
X151650000Y-106750000D01*
X152850000Y-102000000D02*
X153250000Y-102000000D01*
X152875000Y-110050000D02*
X152950000Y-110125000D01*
X152950000Y-110775000D02*
X152950000Y-110125000D01*
X152950000Y-110125000D02*
X152950000Y-109475000D01*
X148000000Y-136250000D02*
X148000000Y-134950000D01*
X151825000Y-134375000D02*
X151825000Y-135095000D01*
X151250000Y-133800000D02*
X151825000Y-134375000D01*
X148000000Y-134950000D02*
X147200000Y-134150000D01*
X124000000Y-134150000D02*
X124250000Y-134150000D01*
X124250000Y-134150000D02*
X126000000Y-132400000D01*
X126000000Y-132400000D02*
X126000000Y-126750000D01*
X126000000Y-126750000D02*
X124650000Y-126750000D01*
X124650000Y-126750000D02*
X124400000Y-127000000D01*
X124400000Y-127000000D02*
X122750000Y-127000000D01*
X114250000Y-124600000D02*
X111650000Y-124600000D01*
X111650000Y-124600000D02*
X111000000Y-125250000D01*
X117500000Y-125000000D02*
X118500000Y-125000000D01*
X120500000Y-127000000D02*
X122750000Y-127000000D01*
X118500000Y-125000000D02*
X120500000Y-127000000D01*
X117100000Y-124600000D02*
X114250000Y-124600000D01*
X117500000Y-125000000D02*
X117100000Y-124600000D01*
D55*
X110350000Y-140000000D02*
X110350000Y-136650000D01*
X112540000Y-134460000D02*
X115000000Y-134460000D01*
X110350000Y-136650000D02*
X112540000Y-134460000D01*
D11*
X153250000Y-100000000D02*
X153250000Y-102500000D01*
X139934000Y-117602000D02*
X141478000Y-117602000D01*
X141478000Y-117602000D02*
X142494000Y-116586000D01*
X119250000Y-108000000D02*
X119250000Y-114000000D01*
X111084000Y-110537000D02*
X110443000Y-110537000D01*
X110443000Y-110537000D02*
X108966000Y-112014000D01*
X116275000Y-123850000D02*
X120250000Y-123850000D01*
X116225000Y-123800000D02*
X116275000Y-123850000D01*
X114250000Y-123800000D02*
X116225000Y-123800000D01*
X121100000Y-124600000D02*
X121050000Y-124650000D01*
X121100000Y-124600000D02*
X122750000Y-124600000D01*
X120250000Y-123850000D02*
X121050000Y-124650000D01*
X35480000Y-106680000D02*
X35480000Y-105998000D01*
X37592000Y-102108000D02*
X42672000Y-102108000D01*
X36830000Y-102870000D02*
X37592000Y-102108000D01*
X36830000Y-104648000D02*
X36830000Y-102870000D01*
X35480000Y-105998000D02*
X36830000Y-104648000D01*
X42672000Y-102108000D02*
X42672000Y-100838000D01*
X42926000Y-102362000D02*
X44470000Y-102362000D01*
X42672000Y-102108000D02*
X42926000Y-102362000D01*
X42672000Y-100838000D02*
X42672000Y-98806000D01*
X42672000Y-98806000D02*
X43180000Y-98298000D01*
X43180000Y-98298000D02*
X44112000Y-98298000D01*
X38150000Y-94600000D02*
X46100000Y-94600000D01*
X51350000Y-98600000D02*
X53250000Y-100500000D01*
X50100000Y-98600000D02*
X51350000Y-98600000D01*
X46100000Y-94600000D02*
X50100000Y-98600000D01*
X116412000Y-89916000D02*
X118364000Y-89916000D01*
X118364000Y-89916000D02*
X121158000Y-92710000D01*
X123150000Y-93500000D02*
X121948000Y-93500000D01*
X121948000Y-93500000D02*
X121158000Y-92710000D01*
X116840000Y-72136000D02*
X116840000Y-70358000D01*
X135350000Y-85500000D02*
X140110000Y-85500000D01*
X140110000Y-85500000D02*
X140462000Y-85852000D01*
X126000000Y-124250000D02*
X126000000Y-122666000D01*
X126000000Y-122666000D02*
X126238000Y-122428000D01*
X139934000Y-115316000D02*
X139934000Y-117602000D01*
X119250000Y-114000000D02*
X119250000Y-115700000D01*
X119250000Y-115700000D02*
X119126000Y-115824000D01*
X107450000Y-132001140D02*
X108887140Y-132001140D01*
X108887140Y-132001140D02*
X109220000Y-132334000D01*
X114250000Y-125400000D02*
X113360000Y-125400000D01*
X112268000Y-126492000D02*
X109220000Y-126492000D01*
X113360000Y-125400000D02*
X112268000Y-126492000D01*
X135450000Y-111125000D02*
X137541000Y-111125000D01*
X137541000Y-111125000D02*
X137668000Y-111252000D01*
X148750000Y-102000000D02*
X150514000Y-102000000D01*
X150514000Y-102000000D02*
X150622000Y-102108000D01*
X129000000Y-124250000D02*
X130675000Y-124250000D01*
X130675000Y-124250000D02*
X130775000Y-124350000D01*
X111000000Y-129050000D02*
X109225000Y-129050000D01*
X109225000Y-129050000D02*
X109025000Y-128850000D01*
X111000000Y-122750000D02*
X109775000Y-122750000D01*
X109775000Y-122750000D02*
X109075000Y-122050000D01*
X113750000Y-117000000D02*
X113750000Y-118350000D01*
X113750000Y-118350000D02*
X113275000Y-118825000D01*
X120080000Y-134460000D02*
X120080000Y-133920000D01*
X120080000Y-133920000D02*
X122775000Y-131225000D01*
X145000000Y-138750000D02*
X142975000Y-138750000D01*
X142975000Y-138750000D02*
X142075000Y-139650000D01*
X152950000Y-106225000D02*
X152950000Y-105225000D01*
X152950000Y-105225000D02*
X152775000Y-105050000D01*
X147050000Y-108175000D02*
X147900000Y-108175000D01*
X147900000Y-108175000D02*
X148775000Y-107300000D01*
X135450000Y-107225000D02*
X135450000Y-105525000D01*
X135450000Y-105525000D02*
X135900000Y-105075000D01*
X155750000Y-102000000D02*
X155750000Y-103850000D01*
X155750000Y-103850000D02*
X155600000Y-104000000D01*
X139048000Y-92500000D02*
X144700000Y-92500000D01*
X144700000Y-92500000D02*
X144800000Y-92600000D01*
X155750000Y-98050000D02*
X155750000Y-100000000D01*
X155800000Y-98000000D02*
X155750000Y-98050000D01*
X145000000Y-138750000D02*
X148000000Y-138750000D01*
X148000000Y-138750000D02*
X149750000Y-138750000D01*
X149905000Y-138905000D02*
X151825000Y-138905000D01*
X149750000Y-138750000D02*
X149905000Y-138905000D01*
X106657140Y-95316000D02*
X106316000Y-95316000D01*
X106316000Y-95316000D02*
X105150000Y-94150000D01*
X105150000Y-94150000D02*
X105150000Y-89700000D01*
X105150000Y-89700000D02*
X105800000Y-89050000D01*
X105800000Y-89050000D02*
X107900000Y-89050000D01*
X107900000Y-89050000D02*
X109350000Y-87600000D01*
X122750000Y-124600000D02*
X125650000Y-124600000D01*
X125650000Y-124600000D02*
X126000000Y-124250000D01*
X126000000Y-124250000D02*
X129000000Y-124250000D01*
X114250000Y-123800000D02*
X112050000Y-123800000D01*
X112050000Y-123800000D02*
X111000000Y-122750000D01*
X152750000Y-106025000D02*
X152950000Y-106225000D01*
X148750000Y-99750000D02*
X148750000Y-102000000D01*
X155750000Y-100000000D02*
X155750000Y-102500000D01*
X113750000Y-117000000D02*
X113750000Y-114000000D01*
X113750000Y-114000000D02*
X113000000Y-113250000D01*
X113000000Y-113250000D02*
X113000000Y-112453000D01*
X113000000Y-112453000D02*
X111084000Y-110537000D01*
X135350000Y-85500000D02*
X136000000Y-85500000D01*
X109350000Y-87600000D02*
X111850000Y-87600000D01*
X115496000Y-89000000D02*
X116412000Y-89916000D01*
X115000000Y-89000000D02*
X115496000Y-89000000D01*
X114500000Y-88500000D02*
X115000000Y-89000000D01*
X112750000Y-88500000D02*
X114500000Y-88500000D01*
X111850000Y-87600000D02*
X112750000Y-88500000D01*
X116578000Y-89750000D02*
X116412000Y-89916000D01*
X123150000Y-93500000D02*
X123150000Y-96000000D01*
X109350000Y-87600000D02*
X109350000Y-86050000D01*
X109350000Y-86050000D02*
X109400000Y-86000000D01*
X145776000Y-70104000D02*
X145776000Y-69526000D01*
X145776000Y-69526000D02*
X144000000Y-67750000D01*
X134714000Y-72517000D02*
X135983000Y-72517000D01*
X137500000Y-71000000D02*
X137500000Y-70000000D01*
X135983000Y-72517000D02*
X137500000Y-71000000D01*
X117750000Y-67000000D02*
X117750000Y-70250000D01*
X119548000Y-73500000D02*
X119000000Y-73500000D01*
X119000000Y-73500000D02*
X117750000Y-72250000D01*
X117750000Y-72250000D02*
X117750000Y-70250000D01*
X38150000Y-94600000D02*
X38650000Y-94600000D01*
X38650000Y-94600000D02*
X40750000Y-92500000D01*
X42150000Y-86350000D02*
X43450000Y-86350000D01*
X40750000Y-87750000D02*
X42150000Y-86350000D01*
X40750000Y-92500000D02*
X40750000Y-91000000D01*
X35498860Y-116950000D02*
X33800000Y-116950000D01*
X31250000Y-122900000D02*
X32550000Y-124200000D01*
X31250000Y-119500000D02*
X31250000Y-122900000D01*
X33800000Y-116950000D02*
X31250000Y-119500000D01*
X138002000Y-64262000D02*
X140773000Y-64262000D01*
X140773000Y-64262000D02*
X140785000Y-64250000D01*
X119548000Y-73500000D02*
X120236000Y-73500000D01*
X120904000Y-79328000D02*
X123110000Y-81534000D01*
X120904000Y-74168000D02*
X120904000Y-79328000D01*
X120236000Y-73500000D02*
X120904000Y-74168000D01*
X66350000Y-89000000D02*
X71000000Y-89000000D01*
X71000000Y-89000000D02*
X72800000Y-87200000D01*
X32550000Y-124200000D02*
X36400000Y-124200000D01*
X41550000Y-123550000D02*
X43000000Y-125000000D01*
X37050000Y-123550000D02*
X41550000Y-123550000D01*
X36400000Y-124200000D02*
X37050000Y-123550000D01*
D56*
X32350000Y-132500000D02*
X35500000Y-132500000D01*
X35500000Y-132500000D02*
X43000000Y-125000000D01*
D11*
X50339000Y-109982000D02*
X50018000Y-109982000D01*
X50339000Y-109982000D02*
X50018000Y-109982000D01*
X50018000Y-109982000D02*
X50000000Y-110000000D01*
X50000000Y-110000000D02*
X50339000Y-109982000D01*
X50339000Y-109982000D02*
X50339000Y-109122200D01*
X51308000Y-108153200D02*
X53136800Y-108153200D01*
X50339000Y-109122200D02*
X51308000Y-108153200D01*
X35400000Y-106500000D02*
X35400000Y-106800000D01*
D56*
X43434000Y-139700000D02*
X45974000Y-139700000D01*
X45974000Y-139700000D02*
X46074000Y-139800000D01*
X46300000Y-136906000D02*
X46228000Y-136906000D01*
X46228000Y-136906000D02*
X43434000Y-139700000D01*
X46074000Y-139800000D02*
X48500000Y-139800000D01*
X45974000Y-139700000D02*
X46074000Y-139800000D01*
D11*
X48600000Y-139700000D02*
X48543000Y-139757000D01*
X48543000Y-139757000D02*
X48457000Y-139757000D01*
X48457000Y-139757000D02*
X48500000Y-139800000D01*
X137434000Y-115316000D02*
X137434000Y-117602000D01*
X137434000Y-115316000D02*
X140208000Y-112542000D01*
X140208000Y-106762000D02*
X140208000Y-112542000D01*
X140208000Y-106762000D02*
X139446000Y-106000000D01*
X147050000Y-108825000D02*
X148675000Y-108825000D01*
X148025000Y-103775000D02*
X146250000Y-102000000D01*
X148825000Y-103775000D02*
X148025000Y-103775000D01*
X149425000Y-104375000D02*
X148825000Y-103775000D01*
X149425000Y-108075000D02*
X149425000Y-104375000D01*
X148675000Y-108825000D02*
X149425000Y-108075000D01*
X123550000Y-103750000D02*
X123550000Y-105500000D01*
X144200000Y-102000000D02*
X146250000Y-102000000D01*
X144000000Y-102200000D02*
X144200000Y-102000000D01*
X111084000Y-107997000D02*
X111503000Y-107997000D01*
X111503000Y-107997000D02*
X114000000Y-105500000D01*
X134375000Y-107875000D02*
X135450000Y-107875000D01*
X134000000Y-107500000D02*
X134375000Y-107875000D01*
X134000000Y-106500000D02*
X134000000Y-107500000D01*
X134500000Y-106000000D02*
X134000000Y-106500000D01*
X114000000Y-105500000D02*
X123550000Y-105500000D01*
X123550000Y-105500000D02*
X128500000Y-105500000D01*
X146250000Y-100000000D02*
X146250000Y-86900000D01*
X143276000Y-73474000D02*
X143276000Y-70104000D01*
X143150000Y-73600000D02*
X143276000Y-73474000D01*
X143350000Y-84000000D02*
X143350000Y-80300000D01*
X146250000Y-86900000D02*
X143350000Y-84000000D01*
X113712000Y-96012000D02*
X112588000Y-96012000D01*
X112588000Y-96012000D02*
X111250000Y-97350000D01*
X109253000Y-107997000D02*
X111084000Y-107997000D01*
X109100000Y-108150000D02*
X109253000Y-107997000D01*
D55*
X107650000Y-140000000D02*
X104500000Y-140000000D01*
D11*
X146250000Y-99750000D02*
X146250000Y-102000000D01*
D56*
X44500000Y-117700000D02*
X46300000Y-119500000D01*
X46300000Y-119500000D02*
X46300000Y-136906000D01*
X46300000Y-136906000D02*
X46300000Y-137600000D01*
X46300000Y-137600000D02*
X47949000Y-139249000D01*
X47949000Y-139249000D02*
X48500000Y-139800000D01*
D11*
X26000000Y-114000000D02*
X31500000Y-114000000D01*
X33000000Y-112500000D02*
X35400000Y-112500000D01*
X31500000Y-114000000D02*
X33000000Y-112500000D01*
X140114000Y-69977000D02*
X143149000Y-69977000D01*
X143149000Y-69977000D02*
X143276000Y-70104000D01*
X35600000Y-113000000D02*
X35000000Y-113000000D01*
X135450000Y-110475000D02*
X134381000Y-110475000D01*
X134112000Y-110744000D02*
X134112000Y-111775000D01*
X134381000Y-110475000D02*
X134112000Y-110744000D01*
X129550000Y-111775000D02*
X127925000Y-111775000D01*
X122700000Y-117000000D02*
X116250000Y-117000000D01*
X127925000Y-111775000D02*
X122700000Y-117000000D01*
X135450000Y-111775000D02*
X134112000Y-111775000D01*
X134112000Y-111775000D02*
X129550000Y-111775000D01*
X116250000Y-117000000D02*
X116250000Y-114000000D01*
X116250000Y-114000000D02*
X115000000Y-112750000D01*
X115000000Y-112750000D02*
X115000000Y-109500000D01*
X115000000Y-109500000D02*
X115233000Y-109267000D01*
X115233000Y-109267000D02*
X116484000Y-109267000D01*
D55*
X169702000Y-128760000D02*
X170162000Y-128760000D01*
X170162000Y-128760000D02*
X171196000Y-129794000D01*
X171196000Y-129794000D02*
X171196000Y-131572000D01*
X171196000Y-131572000D02*
X168910000Y-133858000D01*
X168910000Y-133858000D02*
X166370000Y-133858000D01*
X166370000Y-133858000D02*
X164592000Y-135636000D01*
X164592000Y-135636000D02*
X164592000Y-137180000D01*
D11*
X169800000Y-128450000D02*
X169852000Y-128450000D01*
X158750000Y-119000000D02*
X158000000Y-119000000D01*
X158000000Y-119000000D02*
X156000000Y-121000000D01*
X156000000Y-121000000D02*
X156000000Y-124412000D01*
X156000000Y-124412000D02*
X155833000Y-124579000D01*
X155833000Y-124579000D02*
X155833000Y-124483000D01*
X155833000Y-124483000D02*
X154450000Y-123100000D01*
X150100000Y-123100000D02*
X148350000Y-124850000D01*
X154450000Y-123100000D02*
X150100000Y-123100000D01*
X169800000Y-128450000D02*
X170300000Y-128450000D01*
X162306000Y-137180000D02*
X161706000Y-137180000D01*
X161706000Y-137180000D02*
X160900000Y-137250000D01*
X159745000Y-135095000D02*
X158175000Y-135095000D01*
X159850000Y-135200000D02*
X159745000Y-135095000D01*
X158175000Y-135095000D02*
X158175000Y-125575000D01*
X157179000Y-124579000D02*
X155833000Y-124579000D01*
X158175000Y-125575000D02*
X157179000Y-124579000D01*
X164592000Y-137180000D02*
X162306000Y-137180000D01*
X161167000Y-126534800D02*
X159808800Y-126534800D01*
X158750000Y-125476000D02*
X158750000Y-121500000D01*
X159808800Y-126534800D02*
X158750000Y-125476000D01*
X48250000Y-101082000D02*
X49012000Y-101082000D01*
X49012000Y-101082000D02*
X50292000Y-102362000D01*
X46312000Y-97348000D02*
X47056000Y-97348000D01*
X49022000Y-100310000D02*
X48250000Y-101082000D01*
X48250000Y-101082000D02*
X46970000Y-102362000D01*
X49022000Y-99314000D02*
X49022000Y-100310000D01*
X47056000Y-97348000D02*
X49022000Y-99314000D01*
X106650000Y-67200000D02*
X105520000Y-67200000D01*
X103632000Y-69088000D02*
X103632000Y-72898000D01*
X105520000Y-67200000D02*
X103632000Y-69088000D01*
X132698000Y-92500000D02*
X130766000Y-92500000D01*
X130766000Y-92500000D02*
X130048000Y-93218000D01*
X113198000Y-73500000D02*
X112682000Y-73500000D01*
X112682000Y-73500000D02*
X111760000Y-74422000D01*
X101400000Y-83298860D02*
X98565140Y-83298860D01*
X98565140Y-83298860D02*
X98044000Y-83820000D01*
X132698000Y-92500000D02*
X133250000Y-92500000D01*
X103654860Y-91948000D02*
X103654860Y-92645140D01*
X103654860Y-92645140D02*
X102750000Y-93550000D01*
X115250000Y-67000000D02*
X115250000Y-72750000D01*
X115250000Y-72750000D02*
X114500000Y-73500000D01*
X114500000Y-73500000D02*
X113198000Y-73500000D01*
X30050000Y-124200000D02*
X28800000Y-124200000D01*
X28800000Y-124200000D02*
X26000000Y-127000000D01*
D56*
X26000000Y-127000000D02*
X29650000Y-127000000D01*
D11*
X45800000Y-97600000D02*
X46350000Y-97600000D01*
X46350000Y-97600000D02*
X46400000Y-97650000D01*
X109300000Y-80772000D02*
X109300000Y-80090000D01*
X107950000Y-76454000D02*
X109204000Y-75200000D01*
X107950000Y-79502000D02*
X107950000Y-76454000D01*
X108712000Y-79502000D02*
X107950000Y-79502000D01*
X109300000Y-80090000D02*
X108712000Y-79502000D01*
X109204000Y-75200000D02*
X109350000Y-75200000D01*
X109250000Y-70000000D02*
X111000000Y-70000000D01*
X111310000Y-69690000D02*
X113198000Y-69690000D01*
X111000000Y-70000000D02*
X111310000Y-69690000D01*
X108255000Y-72800000D02*
X108255000Y-72345000D01*
X109250000Y-71350000D02*
X109250000Y-70000000D01*
X108255000Y-72345000D02*
X109250000Y-71350000D01*
X108255000Y-72800000D02*
X108255000Y-72855000D01*
X108255000Y-72855000D02*
X109350000Y-73950000D01*
X109350000Y-73950000D02*
X109350000Y-75200000D01*
X108345000Y-72890000D02*
X108255000Y-72800000D01*
X109350000Y-84400000D02*
X110000000Y-84400000D01*
X110000000Y-84400000D02*
X112600000Y-87000000D01*
X112600000Y-87000000D02*
X113145000Y-87000000D01*
X109350000Y-84400000D02*
X109350000Y-83050000D01*
X105200000Y-72800000D02*
X106145000Y-72800000D01*
X104600000Y-73400000D02*
X105200000Y-72800000D01*
X104600000Y-82000000D02*
X104600000Y-73400000D01*
X105400000Y-82800000D02*
X104600000Y-82000000D01*
X109100000Y-82800000D02*
X105400000Y-82800000D01*
X109350000Y-83050000D02*
X109100000Y-82800000D01*
X106145000Y-72800000D02*
X106145000Y-72255000D01*
X106750000Y-71650000D02*
X106750000Y-70000000D01*
X106145000Y-72255000D02*
X106750000Y-71650000D01*
X109150000Y-67200000D02*
X106350000Y-70000000D01*
X123110000Y-76200000D02*
X123110000Y-73960000D01*
X123110000Y-73960000D02*
X123050000Y-73900000D01*
X123050000Y-73900000D02*
X123050000Y-71700000D01*
X119548000Y-70960000D02*
X120760000Y-70960000D01*
X121500000Y-71700000D02*
X123050000Y-71700000D01*
X120760000Y-70960000D02*
X121500000Y-71700000D01*
X119548000Y-70960000D02*
X120040000Y-70960000D01*
X125750000Y-69500000D02*
X125750000Y-71500000D01*
X125750000Y-71500000D02*
X125550000Y-71700000D01*
X113198000Y-70960000D02*
X112936000Y-70960000D01*
X112936000Y-70960000D02*
X111506000Y-72390000D01*
X127664000Y-66900000D02*
X125750000Y-66900000D01*
X127762000Y-66802000D02*
X127664000Y-66900000D01*
X127762000Y-71882000D02*
X127762000Y-66802000D01*
X125750000Y-66900000D02*
X125750000Y-66250000D01*
X109250000Y-78200000D02*
X109400000Y-78200000D01*
X109400000Y-78200000D02*
X110800000Y-76800000D01*
X111840000Y-70960000D02*
X113198000Y-70960000D01*
X110800000Y-72000000D02*
X111840000Y-70960000D01*
X110800000Y-76800000D02*
X110800000Y-72000000D01*
X109250000Y-78200000D02*
X109600000Y-78200000D01*
X108850000Y-78200000D02*
X109600000Y-78200000D01*
X106650000Y-75200000D02*
X106650000Y-78100000D01*
X106650000Y-78100000D02*
X106750000Y-78200000D01*
X106450000Y-78100000D02*
X106350000Y-78200000D01*
X125810000Y-84582000D02*
X125810000Y-85772000D01*
X114046000Y-87376000D02*
X114046000Y-84296000D01*
X115062000Y-88392000D02*
X114046000Y-87376000D01*
X116078000Y-88392000D02*
X115062000Y-88392000D01*
X117094000Y-87376000D02*
X116078000Y-88392000D01*
X117094000Y-86614000D02*
X117094000Y-87376000D01*
X117856000Y-85852000D02*
X117094000Y-86614000D01*
X125730000Y-85852000D02*
X117856000Y-85852000D01*
X125810000Y-85772000D02*
X125730000Y-85852000D01*
X114046000Y-84296000D02*
X113750000Y-84000000D01*
X114300000Y-84550000D02*
X113750000Y-84000000D01*
X114300000Y-84550000D02*
X113750000Y-84000000D01*
X113750000Y-84000000D02*
X113400000Y-84000000D01*
X113400000Y-84000000D02*
X112000000Y-82600000D01*
X112000000Y-82600000D02*
X112000000Y-76400000D01*
X112000000Y-76400000D02*
X112360000Y-76040000D01*
X112360000Y-76040000D02*
X113198000Y-76040000D01*
X116350000Y-81000000D02*
X116350000Y-83900000D01*
X116350000Y-83900000D02*
X116250000Y-84000000D01*
X36445000Y-92200000D02*
X35562000Y-92200000D01*
X33274000Y-94488000D02*
X33274000Y-96012000D01*
X35562000Y-92200000D02*
X33274000Y-94488000D01*
X52472000Y-117108000D02*
X52472000Y-119368000D01*
X52472000Y-119368000D02*
X49380000Y-122460000D01*
X38150000Y-89600000D02*
X43048860Y-89600000D01*
X43048860Y-89600000D02*
X43048860Y-92098860D01*
X43048860Y-92098860D02*
X43550000Y-92600000D01*
X43298860Y-92348860D02*
X43550000Y-92600000D01*
X38150000Y-86600000D02*
X38150000Y-89600000D01*
X38150000Y-83100000D02*
X38150000Y-86600000D01*
X38150000Y-86600000D02*
X37750000Y-87000000D01*
X38855000Y-80600000D02*
X38855000Y-82395000D01*
X38855000Y-82395000D02*
X38150000Y-83100000D01*
X63650000Y-84000000D02*
X60000000Y-84000000D01*
X59800000Y-84200000D02*
X60000000Y-84000000D01*
X46051140Y-92598860D02*
X46050000Y-92600000D01*
X46051140Y-90550000D02*
X46051140Y-92598860D01*
X46051140Y-90550000D02*
X51200000Y-90550000D01*
X51200000Y-90550000D02*
X51250000Y-90550000D01*
X46301140Y-92348860D02*
X46050000Y-92600000D01*
X129000000Y-126750000D02*
X128950000Y-126750000D01*
X128950000Y-126750000D02*
X127600000Y-125400000D01*
X127600000Y-125400000D02*
X122750000Y-125400000D01*
X129550000Y-107875000D02*
X125184060Y-107875000D01*
X125184060Y-107875000D02*
X125059060Y-108000000D01*
X125059060Y-108000000D02*
X121750000Y-108000000D01*
X121750000Y-114000000D02*
X121900000Y-114000000D01*
X121900000Y-114000000D02*
X122959060Y-112940940D01*
X122959060Y-112940940D02*
X125000000Y-112940940D01*
X129550000Y-108525000D02*
X127125000Y-108525000D01*
X125000000Y-110650000D02*
X125000000Y-112940940D01*
X127125000Y-108525000D02*
X125000000Y-110650000D01*
X121300000Y-129250000D02*
X122392000Y-129250000D01*
X137877000Y-109175000D02*
X135450000Y-109175000D01*
X138938000Y-110236000D02*
X137877000Y-109175000D01*
X138938000Y-112268000D02*
X138938000Y-110236000D01*
X137864002Y-113341998D02*
X138938000Y-112268000D01*
X135578002Y-113341998D02*
X137864002Y-113341998D01*
X133096000Y-115824000D02*
X135578002Y-113341998D01*
X133096000Y-120396000D02*
X133096000Y-115824000D01*
X132842000Y-120650000D02*
X133096000Y-120396000D01*
X132842000Y-126492000D02*
X132842000Y-123698000D01*
X130048000Y-129286000D02*
X132842000Y-126492000D01*
X127762000Y-129286000D02*
X130048000Y-129286000D01*
X127508000Y-129540000D02*
X127762000Y-129286000D01*
X122392000Y-129250000D02*
X122682000Y-129540000D01*
X115000000Y-137000000D02*
X115200000Y-137000000D01*
X115200000Y-137000000D02*
X116400000Y-135800000D01*
X116400000Y-135800000D02*
X118000000Y-135800000D01*
X118000000Y-135800000D02*
X118800000Y-135000000D01*
X118800000Y-135000000D02*
X118800000Y-133400000D01*
X118800000Y-133400000D02*
X121300000Y-130900000D01*
X121300000Y-130900000D02*
X121300000Y-129250000D01*
X154432000Y-111950000D02*
X154496000Y-111950000D01*
X154496000Y-111950000D02*
X155448000Y-110998000D01*
X154545000Y-108825000D02*
X152950000Y-108825000D01*
X155448000Y-109728000D02*
X154545000Y-108825000D01*
X155448000Y-110998000D02*
X155448000Y-109728000D01*
X154300000Y-111950000D02*
X154432000Y-111950000D01*
X129550000Y-107225000D02*
X129550000Y-105650000D01*
X129550000Y-105650000D02*
X131750000Y-103450000D01*
X131750000Y-103450000D02*
X140600000Y-103450000D01*
X140600000Y-103450000D02*
X144600000Y-107450000D01*
X144600000Y-107450000D02*
X144600000Y-110650000D01*
X144600000Y-110650000D02*
X145900000Y-111950000D01*
X145900000Y-111950000D02*
X154300000Y-111950000D01*
X117900000Y-137000000D02*
X119150000Y-135750000D01*
X123800000Y-128850000D02*
X122750000Y-127800000D01*
X123800000Y-131725000D02*
X123800000Y-128850000D01*
X122625000Y-132900000D02*
X123800000Y-131725000D01*
X122625000Y-133825000D02*
X122625000Y-132900000D01*
X120700000Y-135750000D02*
X122625000Y-133825000D01*
X119150000Y-135750000D02*
X120700000Y-135750000D01*
X122750000Y-127800000D02*
X123900000Y-127800000D01*
X127925000Y-107225000D02*
X129550000Y-107225000D01*
X127900000Y-107200000D02*
X127925000Y-107225000D01*
X123900000Y-127800000D02*
X124600000Y-128500000D01*
X129550000Y-107225000D02*
X129550000Y-107000000D01*
X138922002Y-108500000D02*
X137050000Y-108500000D01*
X139700000Y-109277998D02*
X138922002Y-108500000D01*
X139700000Y-112268000D02*
X139700000Y-109277998D01*
X139192000Y-112776000D02*
X139700000Y-112268000D01*
X138176000Y-113792000D02*
X139192000Y-112776000D01*
X135890000Y-113792000D02*
X138176000Y-113792000D01*
X134366000Y-115316000D02*
X135890000Y-113792000D01*
X134366000Y-120142000D02*
X134366000Y-115316000D01*
X134112000Y-120396000D02*
X134366000Y-120142000D01*
X134112000Y-129794000D02*
X134112000Y-123698000D01*
X125730000Y-138176000D02*
X134112000Y-129794000D01*
X145450000Y-112500000D02*
X154962000Y-112500000D01*
X145450000Y-112500000D02*
X143850000Y-110900000D01*
X143850000Y-110900000D02*
X143850000Y-107700000D01*
X143850000Y-107700000D02*
X140550000Y-104400000D01*
X140550000Y-104400000D02*
X137700000Y-104400000D01*
X137700000Y-104400000D02*
X137050000Y-105050000D01*
X137050000Y-105050000D02*
X137050000Y-108500000D01*
X137050000Y-108500000D02*
X137025000Y-108525000D01*
X135450000Y-108525000D02*
X137025000Y-108525000D01*
X155194000Y-107442000D02*
X153670000Y-107442000D01*
X155956000Y-108204000D02*
X155194000Y-107442000D01*
X155956000Y-111506000D02*
X155956000Y-108204000D01*
X154962000Y-112500000D02*
X155956000Y-111506000D01*
X153670000Y-107442000D02*
X152950000Y-107525000D01*
X152950000Y-107525000D02*
X153825000Y-107525000D01*
X117540000Y-134460000D02*
X117540000Y-133960000D01*
X117540000Y-133960000D02*
X120500000Y-131000000D01*
X120500000Y-131000000D02*
X120500000Y-129250000D01*
X118100000Y-122350000D02*
X118100000Y-120750000D01*
X118250000Y-122500000D02*
X118100000Y-122350000D01*
X120080000Y-137000000D02*
X123850000Y-137000000D01*
X123850000Y-137000000D02*
X124000000Y-136850000D01*
X115255000Y-87000000D02*
X115255000Y-85255000D01*
X115000000Y-82350000D02*
X113650000Y-81000000D01*
X115000000Y-85000000D02*
X115000000Y-82350000D01*
X115255000Y-85255000D02*
X115000000Y-85000000D01*
X113650000Y-81000000D02*
X113650000Y-79450000D01*
X113198000Y-78998000D02*
X113198000Y-77310000D01*
X113650000Y-79450000D02*
X113198000Y-78998000D01*
X30734000Y-65493000D02*
X30734000Y-65278000D01*
X30734000Y-65278000D02*
X25654000Y-60198000D01*
X26428000Y-70600000D02*
X36000000Y-70600000D01*
X36000000Y-70600000D02*
X86800000Y-70600000D01*
X86800000Y-70600000D02*
X97000000Y-80800000D01*
X97000000Y-80800000D02*
X97000000Y-87400000D01*
X97000000Y-87400000D02*
X97800000Y-88200000D01*
X97800000Y-88200000D02*
X102000000Y-88200000D01*
X102000000Y-88200000D02*
X102350000Y-87850000D01*
X102350000Y-87850000D02*
X102350000Y-86301140D01*
X26428000Y-70600000D02*
X25654000Y-71374000D01*
X30734000Y-67603000D02*
X29425000Y-67603000D01*
X29425000Y-67603000D02*
X25654000Y-71374000D01*
X102350000Y-86301140D02*
X105351140Y-86301140D01*
X105351140Y-86301140D02*
X106650000Y-87600000D01*
X134714000Y-71247000D02*
X135509000Y-71247000D01*
X149098000Y-66548000D02*
X151396000Y-64250000D01*
X136906000Y-66548000D02*
X149098000Y-66548000D01*
X136398000Y-67056000D02*
X136906000Y-66548000D01*
X136398000Y-70358000D02*
X136398000Y-67056000D01*
X135509000Y-71247000D02*
X136398000Y-70358000D01*
X151396000Y-64250000D02*
X152215000Y-64250000D01*
X160000000Y-58350000D02*
X160350000Y-58350000D01*
X160350000Y-58350000D02*
X166000000Y-64000000D01*
X36745000Y-80600000D02*
X34948000Y-80600000D01*
X34948000Y-80600000D02*
X32800000Y-78452000D01*
X35450000Y-86600000D02*
X32780000Y-86600000D01*
X32780000Y-86600000D02*
X31242000Y-88138000D01*
D56*
X25908000Y-77470000D02*
X29730000Y-77470000D01*
X29730000Y-77470000D02*
X32800000Y-74400000D01*
X31242000Y-88138000D02*
X31242000Y-88900000D01*
X31242000Y-88900000D02*
X30988000Y-88646000D01*
X30988000Y-88646000D02*
X25908000Y-88646000D01*
D57*
X32800000Y-78452000D02*
X31242000Y-80010000D01*
X31242000Y-80010000D02*
X31242000Y-88138000D01*
D58*
X32800000Y-74400000D02*
X32800000Y-78452000D01*
X62600000Y-96000000D02*
X52000000Y-85400000D01*
X52000000Y-85400000D02*
X52000000Y-82800000D01*
X52000000Y-82800000D02*
X43600000Y-74400000D01*
X43600000Y-74400000D02*
X32800000Y-74400000D01*
X63000000Y-96000000D02*
X62600000Y-96000000D01*
D11*
X36745000Y-80600000D02*
X36745000Y-80545000D01*
D59*
X75400000Y-111000000D02*
X75560000Y-111000000D01*
D58*
X73400000Y-102600000D02*
X73400000Y-109000000D01*
X73400000Y-109000000D02*
X75400000Y-111000000D01*
X80000000Y-96000000D02*
X73400000Y-102600000D01*
D59*
X75560000Y-111000000D02*
X78120000Y-113560000D01*
D58*
X80500000Y-96000000D02*
X80000000Y-96000000D01*
D11*
X81500000Y-88055000D02*
X81500000Y-95000000D01*
X81500000Y-95000000D02*
X80500000Y-96000000D01*
X80500000Y-95700000D02*
X80500000Y-96000000D01*
D60*
X78120000Y-113560000D02*
X78120000Y-113120000D01*
D11*
X73000000Y-96000000D02*
X73000000Y-95500000D01*
X73000000Y-95500000D02*
X78500000Y-90000000D01*
X78500000Y-90000000D02*
X78500000Y-88055000D01*
X81500000Y-85945000D02*
X81500000Y-84150000D01*
X81500000Y-84150000D02*
X81350000Y-84000000D01*
X78500000Y-85945000D02*
X81500000Y-85945000D01*
X81350000Y-85795000D02*
X81500000Y-85945000D01*
X35400000Y-94750000D02*
X35400000Y-94850000D01*
X35400000Y-94850000D02*
X38150000Y-97600000D01*
X38555000Y-92200000D02*
X37950000Y-92200000D01*
X37950000Y-92200000D02*
X35400000Y-94750000D01*
D57*
X163600000Y-69000000D02*
X163400000Y-69000000D01*
X156000000Y-56800000D02*
X154200000Y-55000000D01*
X156000000Y-61600000D02*
X156000000Y-56800000D01*
X163400000Y-69000000D02*
X156000000Y-61600000D01*
D60*
X166000000Y-69000000D02*
X163600000Y-69000000D01*
X163600000Y-69000000D02*
X162800000Y-68200000D01*
D11*
X160000000Y-72650000D02*
X162350000Y-72650000D01*
X162350000Y-72650000D02*
X166000000Y-69000000D01*
X132725002Y-112850000D02*
X137594000Y-112850000D01*
X117575000Y-123000000D02*
X117950000Y-123375000D01*
X117950000Y-123375000D02*
X120250000Y-123375000D01*
X120250000Y-123375000D02*
X120500000Y-123125000D01*
X120500000Y-123125000D02*
X120500000Y-122775000D01*
X123950000Y-117200000D02*
X124175000Y-116975000D01*
X124175000Y-116975000D02*
X129825000Y-116975000D01*
X129825000Y-116975000D02*
X131300000Y-115500000D01*
X131300000Y-115500000D02*
X131300000Y-114275002D01*
X131300000Y-114275002D02*
X132725002Y-112850000D01*
X114250000Y-123000000D02*
X117575000Y-123000000D01*
X137765000Y-109825000D02*
X135450000Y-109825000D01*
X138430000Y-110490000D02*
X137765000Y-109825000D01*
X138430000Y-112014000D02*
X138430000Y-110490000D01*
X137594000Y-112850000D02*
X138430000Y-112014000D01*
X114250000Y-127000000D02*
X112100000Y-127000000D01*
X112100000Y-127000000D02*
X111000000Y-128100000D01*
X114250000Y-127800000D02*
X114250000Y-128250000D01*
X112500000Y-130000000D02*
X111000000Y-130000000D01*
X114250000Y-128250000D02*
X112500000Y-130000000D01*
X44100000Y-114000000D02*
X45500000Y-114000000D01*
X116500000Y-130500000D02*
X116500000Y-129250000D01*
X115500000Y-131500000D02*
X116500000Y-130500000D01*
X110000000Y-131500000D02*
X115500000Y-131500000D01*
X109000000Y-130500000D02*
X110000000Y-131500000D01*
X101500000Y-130500000D02*
X109000000Y-130500000D01*
X100000000Y-132000000D02*
X101500000Y-130500000D01*
X72000000Y-132000000D02*
X100000000Y-132000000D01*
X61000000Y-121000000D02*
X72000000Y-132000000D01*
X59500000Y-121000000D02*
X61000000Y-121000000D01*
X54500000Y-116000000D02*
X59500000Y-121000000D01*
X51000000Y-116000000D02*
X54500000Y-116000000D01*
X50000000Y-117000000D02*
X51000000Y-116000000D01*
X48500000Y-117000000D02*
X50000000Y-117000000D01*
X45500000Y-114000000D02*
X48500000Y-117000000D01*
X117300000Y-129250000D02*
X117300000Y-131200000D01*
X110000000Y-135000000D02*
X108350000Y-135000000D01*
X113000000Y-132000000D02*
X110000000Y-135000000D01*
X116500000Y-132000000D02*
X113000000Y-132000000D01*
X117300000Y-131200000D02*
X116500000Y-132000000D01*
X127575000Y-109175000D02*
X126250000Y-110500000D01*
X126250000Y-110500000D02*
X126250000Y-111450000D01*
X129550000Y-109175000D02*
X127575000Y-109175000D01*
X118100000Y-128050000D02*
X118100000Y-129250000D01*
X118500000Y-127650000D02*
X118100000Y-128050000D01*
X119250000Y-127650000D02*
X118500000Y-127650000D01*
X119500000Y-127400000D02*
X119250000Y-127650000D01*
X118900000Y-129250000D02*
X118900000Y-131036000D01*
X154911000Y-108175000D02*
X152950000Y-108175000D01*
X154940000Y-108204000D02*
X154911000Y-108175000D01*
X151892000Y-113284000D02*
X154432000Y-113284000D01*
X141986000Y-123190000D02*
X151892000Y-113284000D01*
X125476000Y-139700000D02*
X140208000Y-124968000D01*
X119888000Y-139700000D02*
X125476000Y-139700000D01*
X119634000Y-139446000D02*
X119888000Y-139700000D01*
X118900000Y-131036000D02*
X118364000Y-131572000D01*
X151825000Y-136365000D02*
X151465000Y-136365000D01*
X151465000Y-136365000D02*
X148900000Y-133800000D01*
X148900000Y-133800000D02*
X148900000Y-131500000D01*
X148900000Y-131500000D02*
X139100000Y-121700000D01*
X139100000Y-121700000D02*
X128600000Y-121700000D01*
X128600000Y-121700000D02*
X125600000Y-118700000D01*
X125600000Y-118700000D02*
X117600000Y-118700000D01*
X117600000Y-118700000D02*
X117300000Y-119000000D01*
X117300000Y-119000000D02*
X117300000Y-120750000D01*
X151825000Y-137635000D02*
X151535000Y-137635000D01*
X151535000Y-137635000D02*
X150500000Y-136600000D01*
X150500000Y-136600000D02*
X150500000Y-136200000D01*
X150500000Y-136200000D02*
X148300000Y-134000000D01*
X148300000Y-134000000D02*
X148300000Y-131700000D01*
X148300000Y-131700000D02*
X138900000Y-122300000D01*
X138900000Y-122300000D02*
X128000000Y-122300000D01*
X128000000Y-122300000D02*
X125200000Y-119500000D01*
X125200000Y-119500000D02*
X125200000Y-119400000D01*
X125100000Y-118000000D02*
X124900000Y-118200000D01*
X124900000Y-118200000D02*
X117300000Y-118200000D01*
X117300000Y-118200000D02*
X116500000Y-119000000D01*
X116500000Y-119000000D02*
X116500000Y-120750000D01*
X63000000Y-106000000D02*
X63000000Y-108000000D01*
X100501140Y-128998860D02*
X106500000Y-128998860D01*
X98000000Y-131500000D02*
X100501140Y-128998860D01*
X74500000Y-131500000D02*
X98000000Y-131500000D01*
X69500000Y-126500000D02*
X74500000Y-131500000D01*
X69500000Y-114500000D02*
X69500000Y-126500000D01*
X63000000Y-108000000D02*
X69500000Y-114500000D01*
X52472000Y-114808000D02*
X49783200Y-114816800D01*
X49783200Y-114816800D02*
X49500000Y-115100000D01*
X63000000Y-113560000D02*
X59520000Y-113560000D01*
X59520000Y-113560000D02*
X58272000Y-114808000D01*
X58272000Y-114808000D02*
X52472000Y-114808000D01*
D57*
X83160000Y-113560000D02*
X83160000Y-116230000D01*
X83160000Y-116230000D02*
X77007500Y-122382500D01*
X77007500Y-122382500D02*
X77007500Y-124317500D01*
D11*
X125810000Y-78740000D02*
X156610000Y-78740000D01*
X156610000Y-78740000D02*
X160000000Y-75350000D01*
X159688000Y-83312000D02*
X160000000Y-83000000D01*
X160000000Y-75350000D02*
X164650000Y-75350000D01*
X164650000Y-75350000D02*
X166000000Y-74000000D01*
X125750000Y-73900000D02*
X128002000Y-73900000D01*
X168402000Y-61402000D02*
X166000000Y-59000000D01*
X168402000Y-70358000D02*
X168402000Y-61402000D01*
X167386000Y-71374000D02*
X168402000Y-70358000D01*
X165608000Y-71374000D02*
X167386000Y-71374000D01*
X163068000Y-73914000D02*
X165608000Y-71374000D01*
X159004000Y-73914000D02*
X163068000Y-73914000D01*
X155194000Y-77724000D02*
X159004000Y-73914000D01*
X131826000Y-77724000D02*
X155194000Y-77724000D01*
X128002000Y-73900000D02*
X131826000Y-77724000D01*
X166000000Y-59000000D02*
X166000000Y-59320000D01*
X166942000Y-83058000D02*
X167000000Y-83000000D01*
X159996000Y-55650000D02*
X160000000Y-55650000D01*
X160000000Y-55650000D02*
X162650000Y-55650000D01*
X162650000Y-55650000D02*
X166000000Y-59000000D01*
X100450000Y-86301140D02*
X100450000Y-85950000D01*
X100450000Y-85950000D02*
X101600000Y-84800000D01*
X101600000Y-84800000D02*
X106250000Y-84800000D01*
X106250000Y-84800000D02*
X106650000Y-84400000D01*
X35498860Y-115050000D02*
X40350000Y-115050000D01*
X40350000Y-115050000D02*
X41400000Y-114000000D01*
X32600000Y-121250000D02*
X34000000Y-121250000D01*
X38501140Y-116748860D02*
X38501140Y-116000000D01*
X34000000Y-121250000D02*
X38501140Y-116748860D01*
X32600000Y-121250000D02*
X33250000Y-121250000D01*
X105550000Y-132001140D02*
X105550000Y-134900000D01*
X105550000Y-134900000D02*
X105650000Y-135000000D01*
X35450000Y-83600000D02*
X35450000Y-84218000D01*
X35450000Y-84218000D02*
X36830000Y-85598000D01*
X36830000Y-85598000D02*
X36830000Y-90170000D01*
X36830000Y-90170000D02*
X31496000Y-95504000D01*
X31496000Y-95504000D02*
X23622000Y-95504000D01*
X23622000Y-95504000D02*
X23368000Y-95250000D01*
X23368000Y-95250000D02*
X23368000Y-85090000D01*
X23368000Y-85090000D02*
X25908000Y-82550000D01*
X35450000Y-89600000D02*
X34700000Y-89600000D01*
X25908000Y-93726000D02*
X31324000Y-93726000D01*
X31324000Y-93726000D02*
X35450000Y-89600000D01*
X35390000Y-89540000D02*
X35450000Y-89600000D01*
X46150000Y-86350000D02*
X46150000Y-88551140D01*
X46150000Y-88551140D02*
X46051140Y-88650000D01*
X125810000Y-87884000D02*
X125984000Y-87884000D01*
X125984000Y-87884000D02*
X127762000Y-86106000D01*
X126746000Y-76200000D02*
X125810000Y-76200000D01*
X127762000Y-77216000D02*
X126746000Y-76200000D01*
X127762000Y-86106000D02*
X127762000Y-80010000D01*
X125810000Y-76200000D02*
X128700000Y-76200000D01*
X130250000Y-80500000D02*
X132650000Y-80500000D01*
X128700000Y-76200000D02*
X130250000Y-77750000D01*
X125810000Y-76200000D02*
X125810000Y-76374000D01*
X126238000Y-87884000D02*
X125810000Y-87884000D01*
X125810000Y-76200000D02*
X125222000Y-76200000D01*
X125222000Y-76200000D02*
X124460000Y-75438000D01*
X124460000Y-75438000D02*
X124460000Y-70910000D01*
X124460000Y-70910000D02*
X123050000Y-69500000D01*
X119548000Y-69690000D02*
X119548000Y-68652000D01*
X121300000Y-66900000D02*
X123050000Y-66900000D01*
X119548000Y-68652000D02*
X121300000Y-66900000D01*
X119548000Y-69690000D02*
X122460000Y-69690000D01*
X122460000Y-69690000D02*
X122650000Y-69500000D01*
X122450000Y-67100000D02*
X122650000Y-66900000D01*
X135350000Y-80500000D02*
X135350000Y-83000000D01*
X129550000Y-109825000D02*
X130375000Y-109825000D01*
X128100000Y-103750000D02*
X126250000Y-103750000D01*
X128150000Y-103800000D02*
X128100000Y-103750000D01*
X131250000Y-108950000D02*
X131250000Y-105275000D01*
X130375000Y-109825000D02*
X131250000Y-108950000D01*
X132650000Y-83000000D02*
X132650000Y-85500000D01*
X132650000Y-83000000D02*
X131250000Y-83000000D01*
X131460000Y-89960000D02*
X132698000Y-89960000D01*
X130750000Y-89250000D02*
X131460000Y-89960000D01*
X130750000Y-83500000D02*
X130750000Y-89250000D01*
X131250000Y-83000000D02*
X130750000Y-83500000D01*
X114570000Y-72230000D02*
X114600000Y-72200000D01*
X119500000Y-92700000D02*
X120300000Y-93500000D01*
X120300000Y-93500000D02*
X120300000Y-98900000D01*
X120300000Y-98900000D02*
X121400000Y-100000000D01*
X121400000Y-100000000D02*
X124600000Y-100000000D01*
X125850000Y-98750000D02*
X124600000Y-100000000D01*
X114570000Y-72230000D02*
X113198000Y-72230000D01*
X132698000Y-96310000D02*
X131060000Y-96310000D01*
X128000000Y-98750000D02*
X125850000Y-98750000D01*
X128250000Y-98500000D02*
X128000000Y-98750000D01*
X131060000Y-96310000D02*
X130750000Y-96000000D01*
X123150000Y-98750000D02*
X123150000Y-98350000D01*
X123150000Y-98350000D02*
X124750000Y-96750000D01*
X124750000Y-96750000D02*
X124750000Y-94600000D01*
X124750000Y-94600000D02*
X125850000Y-93500000D01*
X125850000Y-93500000D02*
X128500000Y-93500000D01*
X130040000Y-95040000D02*
X132698000Y-95040000D01*
X128500000Y-93500000D02*
X130040000Y-95040000D01*
X148350000Y-127550000D02*
X148500000Y-127550000D01*
X148500000Y-127550000D02*
X149900000Y-128950000D01*
X149900000Y-128950000D02*
X152900000Y-128950000D01*
X152900000Y-128950000D02*
X154500000Y-127350000D01*
X154500000Y-127350000D02*
X154500000Y-126900000D01*
X154500000Y-126900000D02*
X154865200Y-126534800D01*
X154865200Y-126534800D02*
X155833000Y-126534800D01*
X125810000Y-81534000D02*
X125810000Y-81440000D01*
X125810000Y-81440000D02*
X123110000Y-78740000D01*
X123110000Y-78740000D02*
X122936000Y-78740000D01*
X122936000Y-78740000D02*
X121412000Y-77216000D01*
X121412000Y-77216000D02*
X121412000Y-72898000D01*
X121412000Y-72898000D02*
X120744000Y-72230000D01*
X120744000Y-72230000D02*
X119548000Y-72230000D01*
X123110000Y-84582000D02*
X122936000Y-84582000D01*
X122936000Y-84582000D02*
X120142000Y-81788000D01*
X120142000Y-81788000D02*
X120142000Y-77978000D01*
X120142000Y-77978000D02*
X119634000Y-77470000D01*
X119634000Y-77470000D02*
X119548000Y-77310000D01*
X119548000Y-76040000D02*
X119548000Y-77310000D01*
X135302000Y-64262000D02*
X133858000Y-64262000D01*
X132334000Y-65786000D02*
X132334000Y-70104000D01*
X133858000Y-64262000D02*
X132334000Y-65786000D01*
X136064000Y-76200000D02*
X134620000Y-76200000D01*
X132461000Y-69977000D02*
X134714000Y-69977000D01*
X132334000Y-70104000D02*
X132461000Y-69977000D01*
X132334000Y-73914000D02*
X132334000Y-70104000D01*
X134620000Y-76200000D02*
X132334000Y-73914000D01*
X129550000Y-110475000D02*
X130425000Y-110475000D01*
X130425000Y-110475000D02*
X132050000Y-108850000D01*
X132050000Y-108850000D02*
X132050000Y-104750000D01*
X125810000Y-90932000D02*
X128270000Y-90932000D01*
X119548000Y-74770000D02*
X118016000Y-74770000D01*
X138684000Y-74422000D02*
X138764000Y-74422000D01*
X118016000Y-74770000D02*
X117856000Y-74930000D01*
X138764000Y-76200000D02*
X138764000Y-74422000D01*
X138764000Y-74422000D02*
X138764000Y-71548000D01*
X139065000Y-71247000D02*
X140114000Y-71247000D01*
X138764000Y-71548000D02*
X139065000Y-71247000D01*
X26000000Y-129540000D02*
X24040000Y-129540000D01*
X25750000Y-121250000D02*
X29900000Y-121250000D01*
X24000000Y-123000000D02*
X25750000Y-121250000D01*
X24000000Y-129500000D02*
X24000000Y-123000000D01*
X24040000Y-129540000D02*
X24000000Y-129500000D01*
X26000000Y-129540000D02*
X27540000Y-129540000D01*
X28000000Y-130000000D02*
X29650000Y-130000000D01*
X27540000Y-129540000D02*
X28000000Y-130000000D01*
X32350000Y-127000000D02*
X32350000Y-127300000D01*
X32350000Y-127300000D02*
X29650000Y-130000000D01*
X32350000Y-130000000D02*
X32150000Y-130000000D01*
X32150000Y-130000000D02*
X29650000Y-132500000D01*
X52472000Y-112508000D02*
X52472000Y-110549000D01*
X52472000Y-110549000D02*
X53039000Y-109982000D01*
X52472000Y-112508000D02*
X49616800Y-112516800D01*
X49616800Y-112516800D02*
X49500000Y-112400000D01*
X35400000Y-109500000D02*
X35400000Y-109800000D01*
X35400000Y-109800000D02*
X38100000Y-112500000D01*
X26000000Y-116540000D02*
X30210000Y-116540000D01*
X36600000Y-114000000D02*
X38100000Y-112500000D01*
X32750000Y-114000000D02*
X36600000Y-114000000D01*
X30210000Y-116540000D02*
X32750000Y-114000000D01*
X38180000Y-106680000D02*
X38180000Y-109420000D01*
X38180000Y-109420000D02*
X37980000Y-109220000D01*
X37980000Y-109220000D02*
X37338000Y-109220000D01*
X35450000Y-103600000D02*
X35450000Y-103314000D01*
X35450000Y-103314000D02*
X38180000Y-100584000D01*
X38180000Y-100584000D02*
X39116000Y-100584000D01*
X42352000Y-97348000D02*
X44112000Y-97348000D01*
X39116000Y-100584000D02*
X42352000Y-97348000D01*
X38150000Y-100600000D02*
X38150000Y-100900000D01*
X38150000Y-100600000D02*
X38150000Y-100750000D01*
X44112000Y-99248000D02*
X44770000Y-99248000D01*
X36910000Y-99060000D02*
X35450000Y-97600000D01*
X39624000Y-99060000D02*
X36910000Y-99060000D01*
X42418000Y-96266000D02*
X39624000Y-99060000D01*
X44958000Y-96266000D02*
X42418000Y-96266000D01*
X45212000Y-96520000D02*
X44958000Y-96266000D01*
X45212000Y-98806000D02*
X45212000Y-96520000D01*
X44770000Y-99248000D02*
X45212000Y-98806000D01*
X35480000Y-100584000D02*
X35480000Y-97630000D01*
X35480000Y-97630000D02*
X35450000Y-97600000D01*
X35450000Y-100614000D02*
X35480000Y-100584000D01*
X35450000Y-97600000D02*
X35450000Y-97854000D01*
X35450000Y-97600000D02*
X35800000Y-97600000D01*
X35450000Y-97600000D02*
X35450000Y-97750000D01*
X73000000Y-84460000D02*
X78190000Y-84460000D01*
X78190000Y-84460000D02*
X78650000Y-84000000D01*
X66350000Y-84000000D02*
X72540000Y-84000000D01*
X72540000Y-84000000D02*
X73000000Y-84460000D01*
X139048000Y-93770000D02*
X137966000Y-93770000D01*
X124634000Y-89408000D02*
X123110000Y-90932000D01*
X128778000Y-89408000D02*
X124634000Y-89408000D01*
X129540000Y-88646000D02*
X128778000Y-89408000D01*
X133858000Y-87376000D02*
X131826000Y-87376000D01*
X136144000Y-89662000D02*
X133858000Y-87376000D01*
X136144000Y-91948000D02*
X136144000Y-89662000D01*
X137966000Y-93770000D02*
X136144000Y-91948000D01*
X123110000Y-90932000D02*
X123110000Y-91110000D01*
X123110000Y-87884000D02*
X123110000Y-89408000D01*
X123110000Y-89408000D02*
X123110000Y-90932000D01*
X38150000Y-103600000D02*
X55400000Y-103600000D01*
X67250000Y-92600000D02*
X63650000Y-89000000D01*
X67250000Y-98250000D02*
X67250000Y-92600000D01*
X65500000Y-100000000D02*
X67250000Y-98250000D01*
X63750000Y-100000000D02*
X65500000Y-100000000D01*
X59000000Y-100000000D02*
X63750000Y-100000000D01*
X55400000Y-103600000D02*
X59000000Y-100000000D01*
X63650000Y-89000000D02*
X63490471Y-89159529D01*
X66350000Y-86500000D02*
X70000000Y-86500000D01*
X70770000Y-85730000D02*
X73000000Y-85730000D01*
X70000000Y-86500000D02*
X70770000Y-85730000D01*
X63650000Y-89000000D02*
X63850000Y-89000000D01*
X63850000Y-89000000D02*
X66350000Y-86500000D01*
X47686000Y-99248000D02*
X46312000Y-99248000D01*
X47752000Y-99314000D02*
X47686000Y-99248000D01*
X85000000Y-88500000D02*
X86500000Y-90000000D01*
X86500000Y-90000000D02*
X92500000Y-90000000D01*
X92500000Y-90000000D02*
X99000000Y-96500000D01*
X99000000Y-96500000D02*
X100500000Y-96500000D01*
X100500000Y-96500000D02*
X104500000Y-100500000D01*
X104500000Y-100500000D02*
X136500000Y-100500000D01*
X136500000Y-100500000D02*
X139048000Y-97952000D01*
X139048000Y-97952000D02*
X139048000Y-96310000D01*
X139048000Y-96310000D02*
X142460000Y-96310000D01*
X142460000Y-96310000D02*
X143500000Y-97350000D01*
X125850000Y-96000000D02*
X129500000Y-96000000D01*
X137460000Y-95040000D02*
X139048000Y-95040000D01*
X135500000Y-97000000D02*
X137460000Y-95040000D01*
X130500000Y-97000000D02*
X135500000Y-97000000D01*
X129500000Y-96000000D02*
X130500000Y-97000000D01*
X143500000Y-94650000D02*
X141850000Y-94650000D01*
X141460000Y-95040000D02*
X139048000Y-95040000D01*
X141850000Y-94650000D02*
X141460000Y-95040000D01*
X118618000Y-98298000D02*
X118618000Y-93472000D01*
X118618000Y-93472000D02*
X118364000Y-93218000D01*
X118364000Y-93218000D02*
X118364000Y-92710000D01*
X114394000Y-74770000D02*
X113198000Y-74770000D01*
X114808000Y-75184000D02*
X114394000Y-74770000D01*
X147050000Y-110125000D02*
X145775000Y-110125000D01*
X139100000Y-101300000D02*
X118750000Y-101300000D01*
X145450000Y-107650000D02*
X139100000Y-101300000D01*
X145450000Y-109800000D02*
X145450000Y-107650000D01*
X145775000Y-110125000D02*
X145450000Y-109800000D01*
X158175000Y-136365000D02*
X157865000Y-136365000D01*
X157865000Y-136365000D02*
X155833000Y-134333000D01*
X155833000Y-134333000D02*
X155833000Y-130421000D01*
X158175000Y-137635000D02*
X159065000Y-137635000D01*
X162286000Y-129786000D02*
X161167000Y-129786000D01*
X162900000Y-130400000D02*
X162286000Y-129786000D01*
X162900000Y-131350000D02*
X162900000Y-130400000D01*
X161550000Y-132700000D02*
X162900000Y-131350000D01*
X161550000Y-135150000D02*
X161550000Y-132700000D01*
X159065000Y-137635000D02*
X161550000Y-135150000D01*
X155833000Y-125214000D02*
X152286000Y-125214000D01*
X152286000Y-125214000D02*
X152000000Y-125500000D01*
X152000000Y-127900000D02*
X152650000Y-127900000D01*
X152650000Y-127900000D02*
X154675600Y-125874400D01*
X154675600Y-125874400D02*
X155833000Y-125874400D01*
D61*
X167102000Y-127960000D02*
X166257628Y-127960000D01*
X166257628Y-127960000D02*
X164076000Y-125778372D01*
X164076000Y-125778372D02*
X161263028Y-125778372D01*
X161263028Y-125778372D02*
X161167000Y-125874400D01*
D62*
X167200000Y-127650000D02*
X167200000Y-127576000D01*
D61*
X169702000Y-127160000D02*
X165956000Y-127160000D01*
X164076000Y-125214000D02*
X161167000Y-125214000D01*
X165100000Y-126238000D02*
X164076000Y-125214000D01*
X165100000Y-126304000D02*
X165100000Y-126238000D01*
X165956000Y-127160000D02*
X165100000Y-126304000D01*
D62*
X169800000Y-126850000D02*
X169522000Y-126850000D01*
D11*
X161231000Y-125150000D02*
X161167000Y-125214000D01*
X115700000Y-129250000D02*
X114050000Y-129250000D01*
X116412000Y-98188000D02*
X116412000Y-96012000D01*
X116300000Y-98300000D02*
X116412000Y-98188000D01*
X114050000Y-129250000D02*
X112500000Y-130800000D01*
X116412000Y-96012000D02*
X116412000Y-96694000D01*
X103654860Y-97050860D02*
X103654860Y-96266000D01*
X105156000Y-98552000D02*
X103654860Y-97050860D01*
X114554000Y-98552000D02*
X105156000Y-98552000D01*
X116412000Y-96694000D02*
X114554000Y-98552000D01*
X106600000Y-80772000D02*
X106600000Y-81708000D01*
X108900000Y-92898000D02*
X106657140Y-92898000D01*
X108966000Y-92964000D02*
X108900000Y-92898000D01*
X107188000Y-82296000D02*
X110998000Y-82296000D01*
X106600000Y-81708000D02*
X107188000Y-82296000D01*
X113712000Y-89916000D02*
X113712000Y-92964000D01*
X106657140Y-90998000D02*
X107884000Y-90998000D01*
X108966000Y-89916000D02*
X113712000Y-89916000D01*
X107884000Y-90998000D02*
X108966000Y-89916000D01*
X106657140Y-97216000D02*
X109032000Y-97216000D01*
X114888000Y-94488000D02*
X116412000Y-92964000D01*
X111760000Y-94488000D02*
X114888000Y-94488000D01*
X109032000Y-97216000D02*
X111760000Y-94488000D01*
X129550000Y-111125000D02*
X130625000Y-111125000D01*
X134830000Y-91230000D02*
X132698000Y-91230000D01*
X135350000Y-91750000D02*
X134830000Y-91230000D01*
X135350000Y-95600000D02*
X135350000Y-91750000D01*
X132950000Y-108800000D02*
X132950000Y-104650000D01*
X130625000Y-111125000D02*
X132950000Y-108800000D01*
X132698000Y-88690000D02*
X133940000Y-88690000D01*
X133770000Y-91230000D02*
X132698000Y-91230000D01*
X134250000Y-90750000D02*
X133770000Y-91230000D01*
X134250000Y-89000000D02*
X134250000Y-90750000D01*
X133940000Y-88690000D02*
X134250000Y-89000000D01*
X146025000Y-107525000D02*
X145200000Y-106700000D01*
X145200000Y-106700000D02*
X145200000Y-104950000D01*
X145200000Y-104950000D02*
X139350000Y-99100000D01*
X147050000Y-107525000D02*
X146025000Y-107525000D01*
X134156000Y-93770000D02*
X132698000Y-93770000D01*
X134366000Y-93980000D02*
X134156000Y-93770000D01*
X133120000Y-93770000D02*
X132698000Y-93770000D01*
X161167000Y-124579000D02*
X162695000Y-124579000D01*
X162695000Y-124579000D02*
X162814000Y-124460000D01*
X161250000Y-121500000D02*
X163234000Y-121500000D01*
X163234000Y-121500000D02*
X163322000Y-121412000D01*
X152000000Y-126700000D02*
X149906000Y-126700000D01*
X149906000Y-126700000D02*
X149860000Y-126746000D01*
X158175000Y-138905000D02*
X159225000Y-138905000D01*
X160040000Y-139680000D02*
X160020000Y-139700000D01*
X160040000Y-139680000D02*
X162306000Y-139680000D01*
X159225000Y-138905000D02*
X160020000Y-139700000D01*
X161250000Y-121500000D02*
X161250000Y-119000000D01*
X164592000Y-139680000D02*
X162306000Y-139680000D01*
M02*
