G04 #@! TF.FileFunction,Legend,Top*
%FSLAX46Y46*%
G04 Gerber Fmt 4.6, Leading zero omitted, Abs format (unit mm)*
G04 Created by KiCad (PCBNEW 4.0.0-rc1-stable) date 4/11/2015 1:36:56 PM*
%MOMM*%
G01*
G04 APERTURE LIST*
%ADD10C,0.100000*%
%ADD11C,0.250000*%
%ADD12C,0.150000*%
%ADD13C,0.127000*%
%ADD14C,0.076200*%
G04 APERTURE END LIST*
D10*
D11*
X65666667Y-128952381D02*
X65904762Y-129952381D01*
X66095239Y-129238095D01*
X66285715Y-129952381D01*
X66523810Y-128952381D01*
X66904762Y-129952381D02*
X66904762Y-128952381D01*
X67333334Y-129952381D02*
X67333334Y-129428571D01*
X67285715Y-129333333D01*
X67190477Y-129285714D01*
X67047619Y-129285714D01*
X66952381Y-129333333D01*
X66904762Y-129380952D01*
X67809524Y-129952381D02*
X67809524Y-129285714D01*
X67809524Y-128952381D02*
X67761905Y-129000000D01*
X67809524Y-129047619D01*
X67857143Y-129000000D01*
X67809524Y-128952381D01*
X67809524Y-129047619D01*
X68142857Y-129285714D02*
X68523809Y-129285714D01*
X68285714Y-128952381D02*
X68285714Y-129809524D01*
X68333333Y-129904762D01*
X68428571Y-129952381D01*
X68523809Y-129952381D01*
X69238096Y-129904762D02*
X69142858Y-129952381D01*
X68952381Y-129952381D01*
X68857143Y-129904762D01*
X68809524Y-129809524D01*
X68809524Y-129428571D01*
X68857143Y-129333333D01*
X68952381Y-129285714D01*
X69142858Y-129285714D01*
X69238096Y-129333333D01*
X69285715Y-129428571D01*
X69285715Y-129523810D01*
X68809524Y-129619048D01*
X60642857Y-129000000D02*
X60547619Y-128952381D01*
X60404762Y-128952381D01*
X60261904Y-129000000D01*
X60166666Y-129095238D01*
X60119047Y-129190476D01*
X60071428Y-129380952D01*
X60071428Y-129523810D01*
X60119047Y-129714286D01*
X60166666Y-129809524D01*
X60261904Y-129904762D01*
X60404762Y-129952381D01*
X60500000Y-129952381D01*
X60642857Y-129904762D01*
X60690476Y-129857143D01*
X60690476Y-129523810D01*
X60500000Y-129523810D01*
X61119047Y-129952381D02*
X61119047Y-129285714D01*
X61119047Y-129476190D02*
X61166666Y-129380952D01*
X61214285Y-129333333D01*
X61309523Y-129285714D01*
X61404762Y-129285714D01*
X62119048Y-129904762D02*
X62023810Y-129952381D01*
X61833333Y-129952381D01*
X61738095Y-129904762D01*
X61690476Y-129809524D01*
X61690476Y-129428571D01*
X61738095Y-129333333D01*
X61833333Y-129285714D01*
X62023810Y-129285714D01*
X62119048Y-129333333D01*
X62166667Y-129428571D01*
X62166667Y-129523810D01*
X61690476Y-129619048D01*
X62976191Y-129904762D02*
X62880953Y-129952381D01*
X62690476Y-129952381D01*
X62595238Y-129904762D01*
X62547619Y-129809524D01*
X62547619Y-129428571D01*
X62595238Y-129333333D01*
X62690476Y-129285714D01*
X62880953Y-129285714D01*
X62976191Y-129333333D01*
X63023810Y-129428571D01*
X63023810Y-129523810D01*
X62547619Y-129619048D01*
X63452381Y-129285714D02*
X63452381Y-129952381D01*
X63452381Y-129380952D02*
X63500000Y-129333333D01*
X63595238Y-129285714D01*
X63738096Y-129285714D01*
X63833334Y-129333333D01*
X63880953Y-129428571D01*
X63880953Y-129952381D01*
X85809523Y-128952381D02*
X86000000Y-128952381D01*
X86095238Y-129000000D01*
X86190476Y-129095238D01*
X86238095Y-129285714D01*
X86238095Y-129619048D01*
X86190476Y-129809524D01*
X86095238Y-129904762D01*
X86000000Y-129952381D01*
X85809523Y-129952381D01*
X85714285Y-129904762D01*
X85619047Y-129809524D01*
X85571428Y-129619048D01*
X85571428Y-129285714D01*
X85619047Y-129095238D01*
X85714285Y-129000000D01*
X85809523Y-128952381D01*
X86666666Y-129952381D02*
X86666666Y-129285714D01*
X86666666Y-129476190D02*
X86714285Y-129380952D01*
X86761904Y-129333333D01*
X86857142Y-129285714D01*
X86952381Y-129285714D01*
X87714286Y-129952381D02*
X87714286Y-129428571D01*
X87666667Y-129333333D01*
X87571429Y-129285714D01*
X87380952Y-129285714D01*
X87285714Y-129333333D01*
X87714286Y-129904762D02*
X87619048Y-129952381D01*
X87380952Y-129952381D01*
X87285714Y-129904762D01*
X87238095Y-129809524D01*
X87238095Y-129714286D01*
X87285714Y-129619048D01*
X87380952Y-129571429D01*
X87619048Y-129571429D01*
X87714286Y-129523810D01*
X88190476Y-129285714D02*
X88190476Y-129952381D01*
X88190476Y-129380952D02*
X88238095Y-129333333D01*
X88333333Y-129285714D01*
X88476191Y-129285714D01*
X88571429Y-129333333D01*
X88619048Y-129428571D01*
X88619048Y-129952381D01*
X89523810Y-129285714D02*
X89523810Y-130095238D01*
X89476191Y-130190476D01*
X89428572Y-130238095D01*
X89333333Y-130285714D01*
X89190476Y-130285714D01*
X89095238Y-130238095D01*
X89523810Y-129904762D02*
X89428572Y-129952381D01*
X89238095Y-129952381D01*
X89142857Y-129904762D01*
X89095238Y-129857143D01*
X89047619Y-129761905D01*
X89047619Y-129476190D01*
X89095238Y-129380952D01*
X89142857Y-129333333D01*
X89238095Y-129285714D01*
X89428572Y-129285714D01*
X89523810Y-129333333D01*
X90380953Y-129904762D02*
X90285715Y-129952381D01*
X90095238Y-129952381D01*
X90000000Y-129904762D01*
X89952381Y-129809524D01*
X89952381Y-129428571D01*
X90000000Y-129333333D01*
X90095238Y-129285714D01*
X90285715Y-129285714D01*
X90380953Y-129333333D01*
X90428572Y-129428571D01*
X90428572Y-129523810D01*
X89952381Y-129619048D01*
X80571428Y-129476190D02*
X80571428Y-129952381D01*
X80238095Y-128952381D02*
X80571428Y-129476190D01*
X80904762Y-128952381D01*
X81619048Y-129904762D02*
X81523810Y-129952381D01*
X81333333Y-129952381D01*
X81238095Y-129904762D01*
X81190476Y-129809524D01*
X81190476Y-129428571D01*
X81238095Y-129333333D01*
X81333333Y-129285714D01*
X81523810Y-129285714D01*
X81619048Y-129333333D01*
X81666667Y-129428571D01*
X81666667Y-129523810D01*
X81190476Y-129619048D01*
X82238095Y-129952381D02*
X82142857Y-129904762D01*
X82095238Y-129809524D01*
X82095238Y-128952381D01*
X82761905Y-129952381D02*
X82666667Y-129904762D01*
X82619048Y-129809524D01*
X82619048Y-128952381D01*
X83285715Y-129952381D02*
X83190477Y-129904762D01*
X83142858Y-129857143D01*
X83095239Y-129761905D01*
X83095239Y-129476190D01*
X83142858Y-129380952D01*
X83190477Y-129333333D01*
X83285715Y-129285714D01*
X83428573Y-129285714D01*
X83523811Y-129333333D01*
X83571430Y-129380952D01*
X83619049Y-129476190D01*
X83619049Y-129761905D01*
X83571430Y-129857143D01*
X83523811Y-129904762D01*
X83428573Y-129952381D01*
X83285715Y-129952381D01*
X83952382Y-129285714D02*
X84142858Y-129952381D01*
X84333335Y-129476190D01*
X84523811Y-129952381D01*
X84714287Y-129285714D01*
X75523810Y-129428571D02*
X75666667Y-129476190D01*
X75714286Y-129523810D01*
X75761905Y-129619048D01*
X75761905Y-129761905D01*
X75714286Y-129857143D01*
X75666667Y-129904762D01*
X75571429Y-129952381D01*
X75190476Y-129952381D01*
X75190476Y-128952381D01*
X75523810Y-128952381D01*
X75619048Y-129000000D01*
X75666667Y-129047619D01*
X75714286Y-129142857D01*
X75714286Y-129238095D01*
X75666667Y-129333333D01*
X75619048Y-129380952D01*
X75523810Y-129428571D01*
X75190476Y-129428571D01*
X76333333Y-129952381D02*
X76238095Y-129904762D01*
X76190476Y-129809524D01*
X76190476Y-128952381D01*
X77142858Y-129952381D02*
X77142858Y-129428571D01*
X77095239Y-129333333D01*
X77000001Y-129285714D01*
X76809524Y-129285714D01*
X76714286Y-129333333D01*
X77142858Y-129904762D02*
X77047620Y-129952381D01*
X76809524Y-129952381D01*
X76714286Y-129904762D01*
X76666667Y-129809524D01*
X76666667Y-129714286D01*
X76714286Y-129619048D01*
X76809524Y-129571429D01*
X77047620Y-129571429D01*
X77142858Y-129523810D01*
X78047620Y-129904762D02*
X77952382Y-129952381D01*
X77761905Y-129952381D01*
X77666667Y-129904762D01*
X77619048Y-129857143D01*
X77571429Y-129761905D01*
X77571429Y-129476190D01*
X77619048Y-129380952D01*
X77666667Y-129333333D01*
X77761905Y-129285714D01*
X77952382Y-129285714D01*
X78047620Y-129333333D01*
X78476191Y-129952381D02*
X78476191Y-128952381D01*
X78571429Y-129571429D02*
X78857144Y-129952381D01*
X78857144Y-129285714D02*
X78476191Y-129666667D01*
X71428572Y-129952381D02*
X71095238Y-129476190D01*
X70857143Y-129952381D02*
X70857143Y-128952381D01*
X71238096Y-128952381D01*
X71333334Y-129000000D01*
X71380953Y-129047619D01*
X71428572Y-129142857D01*
X71428572Y-129285714D01*
X71380953Y-129380952D01*
X71333334Y-129428571D01*
X71238096Y-129476190D01*
X70857143Y-129476190D01*
X72238096Y-129904762D02*
X72142858Y-129952381D01*
X71952381Y-129952381D01*
X71857143Y-129904762D01*
X71809524Y-129809524D01*
X71809524Y-129428571D01*
X71857143Y-129333333D01*
X71952381Y-129285714D01*
X72142858Y-129285714D01*
X72238096Y-129333333D01*
X72285715Y-129428571D01*
X72285715Y-129523810D01*
X71809524Y-129619048D01*
X73142858Y-129952381D02*
X73142858Y-128952381D01*
X73142858Y-129904762D02*
X73047620Y-129952381D01*
X72857143Y-129952381D01*
X72761905Y-129904762D01*
X72714286Y-129857143D01*
X72666667Y-129761905D01*
X72666667Y-129476190D01*
X72714286Y-129380952D01*
X72761905Y-129333333D01*
X72857143Y-129285714D01*
X73047620Y-129285714D01*
X73142858Y-129333333D01*
X171854762Y-59832762D02*
X171902381Y-59689905D01*
X171902381Y-59451809D01*
X171854762Y-59356571D01*
X171807143Y-59308952D01*
X171711905Y-59261333D01*
X171616667Y-59261333D01*
X171521429Y-59308952D01*
X171473810Y-59356571D01*
X171426190Y-59451809D01*
X171378571Y-59642286D01*
X171330952Y-59737524D01*
X171283333Y-59785143D01*
X171188095Y-59832762D01*
X171092857Y-59832762D01*
X170997619Y-59785143D01*
X170950000Y-59737524D01*
X170902381Y-59642286D01*
X170902381Y-59404190D01*
X170950000Y-59261333D01*
X171521429Y-58832762D02*
X171521429Y-58070857D01*
X170902381Y-65214381D02*
X171902381Y-64881048D01*
X170902381Y-64547714D01*
X171521429Y-64214381D02*
X171521429Y-63452476D01*
X170902381Y-70294381D02*
X171902381Y-69961048D01*
X170902381Y-69627714D01*
X171521429Y-69294381D02*
X171521429Y-68532476D01*
X171902381Y-68913428D02*
X171140476Y-68913428D01*
X171854762Y-75326762D02*
X171902381Y-75183905D01*
X171902381Y-74945809D01*
X171854762Y-74850571D01*
X171807143Y-74802952D01*
X171711905Y-74755333D01*
X171616667Y-74755333D01*
X171521429Y-74802952D01*
X171473810Y-74850571D01*
X171426190Y-74945809D01*
X171378571Y-75136286D01*
X171330952Y-75231524D01*
X171283333Y-75279143D01*
X171188095Y-75326762D01*
X171092857Y-75326762D01*
X170997619Y-75279143D01*
X170950000Y-75231524D01*
X170902381Y-75136286D01*
X170902381Y-74898190D01*
X170950000Y-74755333D01*
X171521429Y-74326762D02*
X171521429Y-73564857D01*
X171902381Y-73945809D02*
X171140476Y-73945809D01*
D12*
X139184000Y-116752000D02*
X138184000Y-116752000D01*
X138184000Y-118452000D02*
X139184000Y-118452000D01*
X139184000Y-114466000D02*
X138184000Y-114466000D01*
X138184000Y-116166000D02*
X139184000Y-116166000D01*
X125150000Y-125000000D02*
X125150000Y-126000000D01*
X126850000Y-126000000D02*
X126850000Y-125000000D01*
X110150000Y-123500000D02*
X110150000Y-124500000D01*
X111850000Y-124500000D02*
X111850000Y-123500000D01*
X114500000Y-114850000D02*
X115500000Y-114850000D01*
X115500000Y-113150000D02*
X114500000Y-113150000D01*
X114500000Y-117850000D02*
X115500000Y-117850000D01*
X115500000Y-116150000D02*
X114500000Y-116150000D01*
X155000000Y-101150000D02*
X154000000Y-101150000D01*
X154000000Y-102850000D02*
X155000000Y-102850000D01*
X155000000Y-99150000D02*
X154000000Y-99150000D01*
X154000000Y-100850000D02*
X155000000Y-100850000D01*
X148000000Y-99150000D02*
X147000000Y-99150000D01*
X147000000Y-100850000D02*
X148000000Y-100850000D01*
X148000000Y-101150000D02*
X147000000Y-101150000D01*
X147000000Y-102850000D02*
X148000000Y-102850000D01*
X145850000Y-138000000D02*
X145850000Y-137000000D01*
X144150000Y-137000000D02*
X144150000Y-138000000D01*
X148850000Y-138000000D02*
X148850000Y-137000000D01*
X147150000Y-137000000D02*
X147150000Y-138000000D01*
X163156000Y-138930000D02*
X163156000Y-137930000D01*
X161456000Y-137930000D02*
X161456000Y-138930000D01*
X165442000Y-138930000D02*
X165442000Y-137930000D01*
X163742000Y-137930000D02*
X163742000Y-138930000D01*
X160500000Y-118150000D02*
X159500000Y-118150000D01*
X159500000Y-119850000D02*
X160500000Y-119850000D01*
X160500000Y-120650000D02*
X159500000Y-120650000D01*
X159500000Y-122350000D02*
X160500000Y-122350000D01*
X117000000Y-66150000D02*
X116000000Y-66150000D01*
X116000000Y-67850000D02*
X117000000Y-67850000D01*
X145026000Y-69254000D02*
X144026000Y-69254000D01*
X144026000Y-70954000D02*
X145026000Y-70954000D01*
X107500000Y-70850000D02*
X108500000Y-70850000D01*
X108500000Y-69150000D02*
X107500000Y-69150000D01*
X124800000Y-70850000D02*
X123800000Y-70850000D01*
X123800000Y-72550000D02*
X124800000Y-72550000D01*
X107500000Y-79050000D02*
X108500000Y-79050000D01*
X108500000Y-77350000D02*
X107500000Y-77350000D01*
X115500000Y-83150000D02*
X114500000Y-83150000D01*
X114500000Y-84850000D02*
X115500000Y-84850000D01*
X31800000Y-123350000D02*
X30800000Y-123350000D01*
X30800000Y-125050000D02*
X31800000Y-125050000D01*
X40575000Y-118750000D02*
X40575000Y-131250000D01*
X40715000Y-118754000D02*
X40715000Y-131246000D01*
X40855000Y-118760000D02*
X40855000Y-131240000D01*
X40995000Y-118770000D02*
X40995000Y-131230000D01*
X41135000Y-118782000D02*
X41135000Y-131218000D01*
X41275000Y-118798000D02*
X41275000Y-131202000D01*
X41415000Y-118817000D02*
X41415000Y-131183000D01*
X41555000Y-118840000D02*
X41555000Y-131160000D01*
X41695000Y-118865000D02*
X41695000Y-131135000D01*
X41835000Y-118894000D02*
X41835000Y-131106000D01*
X41975000Y-118927000D02*
X41975000Y-124479000D01*
X41975000Y-125521000D02*
X41975000Y-131073000D01*
X42115000Y-118962000D02*
X42115000Y-124266000D01*
X42115000Y-125734000D02*
X42115000Y-131038000D01*
X42255000Y-119001000D02*
X42255000Y-124124000D01*
X42255000Y-125876000D02*
X42255000Y-130999000D01*
X42395000Y-119044000D02*
X42395000Y-124022000D01*
X42395000Y-125978000D02*
X42395000Y-130956000D01*
X42535000Y-119091000D02*
X42535000Y-123948000D01*
X42535000Y-126052000D02*
X42535000Y-130909000D01*
X42675000Y-119141000D02*
X42675000Y-123897000D01*
X42675000Y-126103000D02*
X42675000Y-130859000D01*
X42815000Y-119195000D02*
X42815000Y-123865000D01*
X42815000Y-126135000D02*
X42815000Y-130805000D01*
X42955000Y-119252000D02*
X42955000Y-123851000D01*
X42955000Y-126149000D02*
X42955000Y-130748000D01*
X43095000Y-119314000D02*
X43095000Y-123854000D01*
X43095000Y-126146000D02*
X43095000Y-130686000D01*
X43235000Y-119380000D02*
X43235000Y-123874000D01*
X43235000Y-126126000D02*
X43235000Y-130620000D01*
X43375000Y-119451000D02*
X43375000Y-123913000D01*
X43375000Y-126087000D02*
X43375000Y-130549000D01*
X43515000Y-119525000D02*
X43515000Y-123972000D01*
X43515000Y-126028000D02*
X43515000Y-130475000D01*
X43655000Y-119605000D02*
X43655000Y-124055000D01*
X43655000Y-125945000D02*
X43655000Y-130395000D01*
X43795000Y-119689000D02*
X43795000Y-124169000D01*
X43795000Y-125831000D02*
X43795000Y-130311000D01*
X43935000Y-119779000D02*
X43935000Y-124330000D01*
X43935000Y-125670000D02*
X43935000Y-130221000D01*
X44075000Y-119873000D02*
X44075000Y-124591000D01*
X44075000Y-125409000D02*
X44075000Y-130127000D01*
X44215000Y-119974000D02*
X44215000Y-130026000D01*
X44355000Y-120081000D02*
X44355000Y-129919000D01*
X44495000Y-120193000D02*
X44495000Y-129807000D01*
X44635000Y-120313000D02*
X44635000Y-129687000D01*
X44775000Y-120441000D02*
X44775000Y-129559000D01*
X44915000Y-120576000D02*
X44915000Y-129424000D01*
X45055000Y-120720000D02*
X45055000Y-129280000D01*
X45195000Y-120875000D02*
X45195000Y-129125000D01*
X45335000Y-121040000D02*
X45335000Y-128960000D01*
X45475000Y-121217000D02*
X45475000Y-128783000D01*
X45615000Y-121408000D02*
X45615000Y-128592000D01*
X45755000Y-121617000D02*
X45755000Y-128383000D01*
X45895000Y-121845000D02*
X45895000Y-128155000D01*
X46035000Y-122097000D02*
X46035000Y-127903000D01*
X46175000Y-122381000D02*
X46175000Y-127619000D01*
X46315000Y-122709000D02*
X46315000Y-127291000D01*
X46455000Y-123103000D02*
X46455000Y-126897000D01*
X46595000Y-123617000D02*
X46595000Y-126383000D01*
X46735000Y-124567000D02*
X46735000Y-125433000D01*
X44150000Y-125000000D02*
G75*
G03X44150000Y-125000000I-1150000J0D01*
G01*
X46787500Y-125000000D02*
G75*
G03X46787500Y-125000000I-6287500J0D01*
G01*
X45300000Y-91750000D02*
X44300000Y-91750000D01*
X44300000Y-93450000D02*
X45300000Y-93450000D01*
X128150000Y-125000000D02*
X128150000Y-126000000D01*
X129850000Y-126000000D02*
X129850000Y-125000000D01*
X120000000Y-108850000D02*
X121000000Y-108850000D01*
X121000000Y-107150000D02*
X120000000Y-107150000D01*
X120000000Y-114850000D02*
X121000000Y-114850000D01*
X121000000Y-113150000D02*
X120000000Y-113150000D01*
X116270000Y-138270000D02*
X121350000Y-138270000D01*
X113450000Y-138550000D02*
X113450000Y-137000000D01*
X113730000Y-135730000D02*
X116270000Y-135730000D01*
X116270000Y-135730000D02*
X116270000Y-138270000D01*
X121350000Y-138270000D02*
X121350000Y-133190000D01*
X121350000Y-133190000D02*
X116270000Y-133190000D01*
X113450000Y-138550000D02*
X115000000Y-138550000D01*
X113730000Y-133190000D02*
X113730000Y-135730000D01*
X116270000Y-133190000D02*
X113730000Y-133190000D01*
X106950000Y-72800000D02*
X106700000Y-72800000D01*
X107450000Y-72800000D02*
X107700000Y-72800000D01*
X107450000Y-72800000D02*
X106950000Y-73150000D01*
X106950000Y-73150000D02*
X106950000Y-72450000D01*
X106950000Y-72450000D02*
X107450000Y-72800000D01*
X107450000Y-73150000D02*
X107450000Y-72450000D01*
X108500000Y-72000000D02*
X106100000Y-72000000D01*
X108500000Y-73600000D02*
X106100000Y-73600000D01*
X113950000Y-87000000D02*
X113700000Y-87000000D01*
X114450000Y-87000000D02*
X114700000Y-87000000D01*
X114450000Y-87000000D02*
X113950000Y-87350000D01*
X113950000Y-87350000D02*
X113950000Y-86650000D01*
X113950000Y-86650000D02*
X114450000Y-87000000D01*
X114450000Y-87350000D02*
X114450000Y-86650000D01*
X115500000Y-86200000D02*
X113100000Y-86200000D01*
X115500000Y-87800000D02*
X113100000Y-87800000D01*
X36497460Y-57880000D02*
X36497460Y-56864000D01*
X36497460Y-62706000D02*
X36497460Y-63976000D01*
X35227460Y-62452000D02*
X37767460Y-62452000D01*
X35227460Y-62198000D02*
X37767460Y-62198000D01*
X35227460Y-61944000D02*
X37767460Y-61944000D01*
X35227460Y-62706000D02*
X37767460Y-62706000D01*
X35227460Y-61690000D02*
X37767460Y-62960000D01*
X35227460Y-62960000D02*
X37767460Y-61690000D01*
X35227460Y-61690000D02*
X37767460Y-61690000D01*
X35227460Y-62325000D02*
X37767460Y-62325000D01*
X37767460Y-62960000D02*
X35227460Y-62960000D01*
X35227460Y-62960000D02*
X35227460Y-57880000D01*
X35227460Y-57880000D02*
X37767460Y-57880000D01*
X37767460Y-57880000D02*
X37767460Y-62960000D01*
X30734000Y-66298000D02*
X30734000Y-66048000D01*
X30734000Y-66798000D02*
X30734000Y-67048000D01*
X30734000Y-66798000D02*
X30384000Y-66298000D01*
X30384000Y-66298000D02*
X31084000Y-66298000D01*
X31084000Y-66298000D02*
X30734000Y-66798000D01*
X30384000Y-66798000D02*
X31084000Y-66798000D01*
X31534000Y-67848000D02*
X31534000Y-65448000D01*
X29934000Y-67848000D02*
X29934000Y-65448000D01*
X149620000Y-61067460D02*
X150636000Y-61067460D01*
X144794000Y-61067460D02*
X143524000Y-61067460D01*
X145048000Y-59797460D02*
X145048000Y-62337460D01*
X145302000Y-59797460D02*
X145302000Y-62337460D01*
X145556000Y-59797460D02*
X145556000Y-62337460D01*
X144794000Y-59797460D02*
X144794000Y-62337460D01*
X145810000Y-59797460D02*
X144540000Y-62337460D01*
X144540000Y-59797460D02*
X145810000Y-62337460D01*
X145810000Y-59797460D02*
X145810000Y-62337460D01*
X145175000Y-59797460D02*
X145175000Y-62337460D01*
X144540000Y-62337460D02*
X144540000Y-59797460D01*
X144540000Y-59797460D02*
X149620000Y-59797460D01*
X149620000Y-59797460D02*
X149620000Y-62337460D01*
X149620000Y-62337460D02*
X144540000Y-62337460D01*
X50000000Y-123500000D02*
X50000000Y-126500000D01*
X56500000Y-121500000D02*
X56500000Y-121000000D01*
X56500000Y-121000000D02*
X50000000Y-121000000D01*
X50000000Y-121000000D02*
X50000000Y-121500000D01*
X56500000Y-126500000D02*
X56500000Y-123500000D01*
X56500000Y-129000000D02*
X56500000Y-128500000D01*
X56500000Y-129000000D02*
X50000000Y-129000000D01*
X50000000Y-129000000D02*
X50000000Y-128500000D01*
X78500000Y-87250000D02*
X78500000Y-87500000D01*
X78500000Y-86750000D02*
X78500000Y-86500000D01*
X78500000Y-86750000D02*
X78850000Y-87250000D01*
X78850000Y-87250000D02*
X78150000Y-87250000D01*
X78150000Y-87250000D02*
X78500000Y-86750000D01*
X78850000Y-86750000D02*
X78150000Y-86750000D01*
X77700000Y-85700000D02*
X77700000Y-88100000D01*
X79300000Y-85700000D02*
X79300000Y-88100000D01*
X38050000Y-80600000D02*
X38300000Y-80600000D01*
X37550000Y-80600000D02*
X37300000Y-80600000D01*
X37550000Y-80600000D02*
X38050000Y-80250000D01*
X38050000Y-80250000D02*
X38050000Y-80950000D01*
X38050000Y-80950000D02*
X37550000Y-80600000D01*
X37550000Y-80250000D02*
X37550000Y-80950000D01*
X36500000Y-81400000D02*
X38900000Y-81400000D01*
X36500000Y-79800000D02*
X38900000Y-79800000D01*
X37750000Y-92200000D02*
X38000000Y-92200000D01*
X37250000Y-92200000D02*
X37000000Y-92200000D01*
X37250000Y-92200000D02*
X37750000Y-91850000D01*
X37750000Y-91850000D02*
X37750000Y-92550000D01*
X37750000Y-92550000D02*
X37250000Y-92200000D01*
X37250000Y-91850000D02*
X37250000Y-92550000D01*
X36200000Y-93000000D02*
X38600000Y-93000000D01*
X36200000Y-91400000D02*
X38600000Y-91400000D01*
X81500000Y-87250000D02*
X81500000Y-87500000D01*
X81500000Y-86750000D02*
X81500000Y-86500000D01*
X81500000Y-86750000D02*
X81850000Y-87250000D01*
X81850000Y-87250000D02*
X81150000Y-87250000D01*
X81150000Y-87250000D02*
X81500000Y-86750000D01*
X81850000Y-86750000D02*
X81150000Y-86750000D01*
X80700000Y-85700000D02*
X80700000Y-88100000D01*
X82300000Y-85700000D02*
X82300000Y-88100000D01*
X140400000Y-56200000D02*
X157800000Y-56200000D01*
X157800000Y-56200000D02*
X157800000Y-56800000D01*
X157800000Y-56800000D02*
X140400000Y-56800000D01*
X140400000Y-56800000D02*
X140400000Y-56200000D01*
X114875000Y-121375000D02*
X114875000Y-121700000D01*
X122125000Y-121375000D02*
X122125000Y-121700000D01*
X122125000Y-128625000D02*
X122125000Y-128300000D01*
X114875000Y-128625000D02*
X114875000Y-128300000D01*
X114875000Y-121375000D02*
X115200000Y-121375000D01*
X114875000Y-128625000D02*
X115200000Y-128625000D01*
X122125000Y-128625000D02*
X121800000Y-128625000D01*
X122125000Y-121375000D02*
X121800000Y-121375000D01*
X114875000Y-121700000D02*
X113450000Y-121700000D01*
X89390000Y-103420000D02*
X89390000Y-104520000D01*
X89390000Y-116150000D02*
X89390000Y-114630000D01*
X89400000Y-116130000D02*
X60400000Y-116130000D01*
X60400000Y-116130000D02*
X60380000Y-103520000D01*
X89420000Y-107750000D02*
X89420000Y-112210000D01*
X60400000Y-103430000D02*
X89400000Y-103430000D01*
X109600000Y-140875000D02*
X108400000Y-140875000D01*
X108400000Y-139125000D02*
X109600000Y-139125000D01*
X169800000Y-76600000D02*
X169800000Y-56500000D01*
X161900000Y-76600000D02*
X161900000Y-56400000D01*
X161900000Y-56400000D02*
X170100000Y-56400000D01*
X170100000Y-56400000D02*
X170100000Y-76600000D01*
X170100000Y-76600000D02*
X162000000Y-76600000D01*
X79507500Y-128117500D02*
X89607500Y-128117500D01*
X79607500Y-128417500D02*
X89607500Y-128417500D01*
X79607500Y-120217500D02*
X89607500Y-120217500D01*
X59407500Y-128117500D02*
X79507500Y-128117500D01*
X59407500Y-120217500D02*
X79607500Y-120217500D01*
X89607500Y-120217500D02*
X89607500Y-128417500D01*
X79607500Y-128417500D02*
X59407500Y-128417500D01*
X59407500Y-128417500D02*
X59407500Y-120317500D01*
X99900180Y-84850800D02*
X99900180Y-84149760D01*
X99900180Y-84149760D02*
X100149100Y-84149760D01*
X102699160Y-84149760D02*
X102899820Y-84149760D01*
X102899820Y-84149760D02*
X102899820Y-84850800D01*
X28448000Y-58928000D02*
X28448000Y-57658000D01*
X28448000Y-64516000D02*
X28448000Y-61468000D01*
X28448000Y-70104000D02*
X28448000Y-67056000D01*
X28448000Y-72644000D02*
X28448000Y-73914000D01*
X22860000Y-58928000D02*
X22860000Y-57658000D01*
X22860000Y-64516000D02*
X22860000Y-61468000D01*
X22860000Y-70104000D02*
X22860000Y-67056000D01*
X22860000Y-72644000D02*
X22860000Y-73914000D01*
X28448000Y-57658000D02*
X22860000Y-57658000D01*
X22860000Y-73914000D02*
X28448000Y-73914000D01*
X36949200Y-114500180D02*
X37650240Y-114500180D01*
X37650240Y-114500180D02*
X37650240Y-114749100D01*
X37650240Y-117299160D02*
X37650240Y-117499820D01*
X37650240Y-117499820D02*
X36949200Y-117499820D01*
X105000180Y-130550800D02*
X105000180Y-129849760D01*
X105000180Y-129849760D02*
X105249100Y-129849760D01*
X107799160Y-129849760D02*
X107999820Y-129849760D01*
X107999820Y-129849760D02*
X107999820Y-130550800D01*
X24003000Y-74676000D02*
X24003000Y-76581000D01*
X24003000Y-79121000D02*
X24003000Y-78359000D01*
X24003000Y-81534000D02*
X24003000Y-81661000D01*
X24003000Y-81534000D02*
X24003000Y-80899000D01*
X24003000Y-85344000D02*
X24003000Y-83566000D01*
X27686000Y-85344000D02*
X27686000Y-83693000D01*
X27813000Y-81026000D02*
X27813000Y-81661000D01*
X27813000Y-78486000D02*
X27813000Y-79121000D01*
X27686000Y-74676000D02*
X27686000Y-76327000D01*
X22860000Y-81534000D02*
X24003000Y-81534000D01*
X22860000Y-78486000D02*
X24003000Y-78486000D01*
X24003000Y-74676000D02*
X27686000Y-74676000D01*
X27686000Y-85344000D02*
X24003000Y-85344000D01*
X22860000Y-74676000D02*
X24003000Y-74676000D01*
X24003000Y-85344000D02*
X22860000Y-85344000D01*
X22860000Y-80010000D02*
X22860000Y-85344000D01*
X22860000Y-80010000D02*
X22860000Y-74676000D01*
X24003000Y-85852000D02*
X24003000Y-87757000D01*
X24003000Y-90297000D02*
X24003000Y-89535000D01*
X24003000Y-92710000D02*
X24003000Y-92837000D01*
X24003000Y-92710000D02*
X24003000Y-92075000D01*
X24003000Y-96520000D02*
X24003000Y-94742000D01*
X27686000Y-96520000D02*
X27686000Y-94869000D01*
X27813000Y-92202000D02*
X27813000Y-92837000D01*
X27813000Y-89662000D02*
X27813000Y-90297000D01*
X27686000Y-85852000D02*
X27686000Y-87503000D01*
X22860000Y-92710000D02*
X24003000Y-92710000D01*
X22860000Y-89662000D02*
X24003000Y-89662000D01*
X24003000Y-85852000D02*
X27686000Y-85852000D01*
X27686000Y-96520000D02*
X24003000Y-96520000D01*
X22860000Y-85852000D02*
X24003000Y-85852000D01*
X24003000Y-96520000D02*
X22860000Y-96520000D01*
X22860000Y-91186000D02*
X22860000Y-96520000D01*
X22860000Y-91186000D02*
X22860000Y-85852000D01*
X44600800Y-91099820D02*
X43899760Y-91099820D01*
X43899760Y-91099820D02*
X43899760Y-90850900D01*
X43899760Y-88300840D02*
X43899760Y-88100180D01*
X43899760Y-88100180D02*
X44600800Y-88100180D01*
X134600000Y-81375000D02*
X133400000Y-81375000D01*
X133400000Y-79625000D02*
X134600000Y-79625000D01*
X124300000Y-102875000D02*
X125500000Y-102875000D01*
X125500000Y-104625000D02*
X124300000Y-104625000D01*
X133400000Y-82125000D02*
X134600000Y-82125000D01*
X134600000Y-83875000D02*
X133400000Y-83875000D01*
X134600000Y-86375000D02*
X133400000Y-86375000D01*
X133400000Y-84625000D02*
X134600000Y-84625000D01*
X123125000Y-136100000D02*
X123125000Y-134900000D01*
X124875000Y-134900000D02*
X124875000Y-136100000D01*
X123900000Y-97875000D02*
X125100000Y-97875000D01*
X125100000Y-99625000D02*
X123900000Y-99625000D01*
X123900000Y-92625000D02*
X125100000Y-92625000D01*
X125100000Y-94375000D02*
X123900000Y-94375000D01*
X147475000Y-126800000D02*
X147475000Y-125600000D01*
X149225000Y-125600000D02*
X149225000Y-126800000D01*
X125060000Y-82409000D02*
X123860000Y-82409000D01*
X123860000Y-80659000D02*
X125060000Y-80659000D01*
X108600000Y-68075000D02*
X107400000Y-68075000D01*
X107400000Y-66325000D02*
X108600000Y-66325000D01*
X107400000Y-83525000D02*
X108600000Y-83525000D01*
X108600000Y-85275000D02*
X107400000Y-85275000D01*
X123860000Y-77865000D02*
X125060000Y-77865000D01*
X125060000Y-79615000D02*
X123860000Y-79615000D01*
X125000000Y-67775000D02*
X123800000Y-67775000D01*
X123800000Y-66025000D02*
X125000000Y-66025000D01*
X123800000Y-73025000D02*
X125000000Y-73025000D01*
X125000000Y-74775000D02*
X123800000Y-74775000D01*
X108600000Y-88475000D02*
X107400000Y-88475000D01*
X107400000Y-86725000D02*
X108600000Y-86725000D01*
X160875000Y-73400000D02*
X160875000Y-74600000D01*
X159125000Y-74600000D02*
X159125000Y-73400000D01*
X123800000Y-68625000D02*
X125000000Y-68625000D01*
X125000000Y-70375000D02*
X123800000Y-70375000D01*
X108600000Y-76075000D02*
X107400000Y-76075000D01*
X107400000Y-74325000D02*
X108600000Y-74325000D01*
X125060000Y-77075000D02*
X123860000Y-77075000D01*
X123860000Y-75325000D02*
X125060000Y-75325000D01*
X159125000Y-57600000D02*
X159125000Y-56400000D01*
X160875000Y-56400000D02*
X160875000Y-57600000D01*
X125060000Y-85457000D02*
X123860000Y-85457000D01*
X123860000Y-83707000D02*
X125060000Y-83707000D01*
X114400000Y-80125000D02*
X115600000Y-80125000D01*
X115600000Y-81875000D02*
X114400000Y-81875000D01*
X137252000Y-65137000D02*
X136052000Y-65137000D01*
X136052000Y-63387000D02*
X137252000Y-63387000D01*
X136814000Y-75325000D02*
X138014000Y-75325000D01*
X138014000Y-77075000D02*
X136814000Y-77075000D01*
X142690000Y-64250000D02*
X142055000Y-64250000D01*
X150945000Y-64250000D02*
X150310000Y-64250000D01*
X150310000Y-64885000D02*
X142690000Y-64885000D01*
X142690000Y-64885000D02*
X142690000Y-63615000D01*
X142690000Y-63615000D02*
X150310000Y-63615000D01*
X150310000Y-63615000D02*
X150310000Y-64885000D01*
X31600000Y-127875000D02*
X30400000Y-127875000D01*
X30400000Y-126125000D02*
X31600000Y-126125000D01*
X31600000Y-130875000D02*
X30400000Y-130875000D01*
X30400000Y-129125000D02*
X31600000Y-129125000D01*
X31850000Y-122125000D02*
X30650000Y-122125000D01*
X30650000Y-120375000D02*
X31850000Y-120375000D01*
X31600000Y-133375000D02*
X30400000Y-133375000D01*
X30400000Y-131625000D02*
X31600000Y-131625000D01*
X42150000Y-113125000D02*
X43350000Y-113125000D01*
X43350000Y-114875000D02*
X42150000Y-114875000D01*
X50375000Y-113150000D02*
X50375000Y-114350000D01*
X48625000Y-114350000D02*
X48625000Y-113150000D01*
X51089000Y-109107000D02*
X52289000Y-109107000D01*
X52289000Y-110857000D02*
X51089000Y-110857000D01*
X37350000Y-113375000D02*
X36150000Y-113375000D01*
X36150000Y-111625000D02*
X37350000Y-111625000D01*
X37350000Y-110375000D02*
X36150000Y-110375000D01*
X36150000Y-108625000D02*
X37350000Y-108625000D01*
X36230000Y-105805000D02*
X37430000Y-105805000D01*
X37430000Y-107555000D02*
X36230000Y-107555000D01*
X106400000Y-134125000D02*
X107600000Y-134125000D01*
X107600000Y-135875000D02*
X106400000Y-135875000D01*
X37400000Y-87475000D02*
X36200000Y-87475000D01*
X36200000Y-85725000D02*
X37400000Y-85725000D01*
X37400000Y-90475000D02*
X36200000Y-90475000D01*
X36200000Y-88725000D02*
X37400000Y-88725000D01*
X37400000Y-84475000D02*
X36200000Y-84475000D01*
X36200000Y-82725000D02*
X37400000Y-82725000D01*
X36230000Y-99709000D02*
X37430000Y-99709000D01*
X37430000Y-101459000D02*
X36230000Y-101459000D01*
X79400000Y-83125000D02*
X80600000Y-83125000D01*
X80600000Y-84875000D02*
X79400000Y-84875000D01*
X65600000Y-84875000D02*
X64400000Y-84875000D01*
X64400000Y-83125000D02*
X65600000Y-83125000D01*
X125060000Y-88759000D02*
X123860000Y-88759000D01*
X123860000Y-87009000D02*
X125060000Y-87009000D01*
X37400000Y-98475000D02*
X36200000Y-98475000D01*
X36200000Y-96725000D02*
X37400000Y-96725000D01*
X125060000Y-91807000D02*
X123860000Y-91807000D01*
X123860000Y-90057000D02*
X125060000Y-90057000D01*
X36200000Y-102725000D02*
X37400000Y-102725000D01*
X37400000Y-104475000D02*
X36200000Y-104475000D01*
X37400000Y-95475000D02*
X36200000Y-95475000D01*
X36200000Y-93725000D02*
X37400000Y-93725000D01*
X44200000Y-85475000D02*
X45400000Y-85475000D01*
X45400000Y-87225000D02*
X44200000Y-87225000D01*
X144375000Y-95400000D02*
X144375000Y-96600000D01*
X142625000Y-96600000D02*
X142625000Y-95400000D01*
X123900000Y-95125000D02*
X125100000Y-95125000D01*
X125100000Y-96875000D02*
X123900000Y-96875000D01*
X65600000Y-89875000D02*
X64400000Y-89875000D01*
X64400000Y-88125000D02*
X65600000Y-88125000D01*
X118786000Y-78580000D02*
X113960000Y-78580000D01*
X113960000Y-78580000D02*
X113960000Y-68420000D01*
X113960000Y-68420000D02*
X118786000Y-68420000D01*
X118786000Y-68420000D02*
X118786000Y-78580000D01*
X117008000Y-68420000D02*
X117008000Y-69055000D01*
X117008000Y-69055000D02*
X115738000Y-69055000D01*
X115738000Y-69055000D02*
X115738000Y-68420000D01*
X130300000Y-112225000D02*
X134700000Y-112225000D01*
X128725000Y-106775000D02*
X134700000Y-106775000D01*
X111709000Y-106057000D02*
X111709000Y-106202000D01*
X115859000Y-106057000D02*
X115859000Y-106202000D01*
X115859000Y-111207000D02*
X115859000Y-111062000D01*
X111709000Y-111207000D02*
X111709000Y-111062000D01*
X111709000Y-106057000D02*
X115859000Y-106057000D01*
X111709000Y-111207000D02*
X115859000Y-111207000D01*
X111709000Y-106202000D02*
X110309000Y-106202000D01*
X147800000Y-111225000D02*
X152200000Y-111225000D01*
X146225000Y-105775000D02*
X152200000Y-105775000D01*
X157286000Y-134460000D02*
X157286000Y-139540000D01*
X157286000Y-139540000D02*
X152714000Y-139540000D01*
X152714000Y-139540000D02*
X152714000Y-134460000D01*
X152714000Y-134460000D02*
X157286000Y-134460000D01*
X155762000Y-134460000D02*
X155762000Y-134968000D01*
X155762000Y-134968000D02*
X154492000Y-134968000D01*
X154492000Y-134968000D02*
X154492000Y-134460000D01*
X160278000Y-131310000D02*
X160278000Y-123690000D01*
X156722000Y-123690000D02*
X156722000Y-131310000D01*
X160278000Y-131310000D02*
X156722000Y-131310000D01*
X156722000Y-123690000D02*
X160278000Y-123690000D01*
X157589210Y-124198000D02*
G75*
G03X157589210Y-124198000I-359210J0D01*
G01*
X159135000Y-123690000D02*
X159135000Y-124452000D01*
X159135000Y-124452000D02*
X157865000Y-124452000D01*
X157865000Y-124452000D02*
X157865000Y-123690000D01*
X138286000Y-97580000D02*
X133460000Y-97580000D01*
X133460000Y-97580000D02*
X133460000Y-87420000D01*
X133460000Y-87420000D02*
X138286000Y-87420000D01*
X138286000Y-87420000D02*
X138286000Y-97580000D01*
X136508000Y-87420000D02*
X136508000Y-88055000D01*
X136508000Y-88055000D02*
X135238000Y-88055000D01*
X135238000Y-88055000D02*
X135238000Y-87420000D01*
X135339000Y-68037000D02*
X135339000Y-68182000D01*
X139489000Y-68037000D02*
X139489000Y-68182000D01*
X139489000Y-73187000D02*
X139489000Y-73042000D01*
X135339000Y-73187000D02*
X135339000Y-73042000D01*
X135339000Y-68037000D02*
X139489000Y-68037000D01*
X135339000Y-73187000D02*
X139489000Y-73187000D01*
X135339000Y-68182000D02*
X133939000Y-68182000D01*
X24349000Y-122174000D02*
X27778000Y-122174000D01*
X24349000Y-131826000D02*
X27778000Y-131826000D01*
X23206000Y-121666000D02*
X23206000Y-132334000D01*
X24222000Y-125222000D02*
X22952000Y-125222000D01*
X24222000Y-128778000D02*
X22952000Y-128778000D01*
X24349000Y-132334000D02*
X24349000Y-121666000D01*
X27778000Y-121666000D02*
X27778000Y-132334000D01*
X22952000Y-132334000D02*
X27778000Y-132334000D01*
X22952000Y-121666000D02*
X27778000Y-121666000D01*
X22952000Y-121666000D02*
X22952000Y-132334000D01*
D13*
X58322000Y-115808000D02*
X57622000Y-115808000D01*
X57622000Y-115808000D02*
X57622000Y-113808000D01*
X57622000Y-113808000D02*
X58272000Y-113808000D01*
X58272000Y-113808000D02*
X58272000Y-115708000D01*
X58272000Y-115708000D02*
X57722000Y-115708000D01*
X57722000Y-115708000D02*
X57722000Y-113908000D01*
X57722000Y-113908000D02*
X58172000Y-113908000D01*
X58172000Y-113908000D02*
X58172000Y-115608000D01*
X58172000Y-115608000D02*
X57822000Y-115608000D01*
X57822000Y-115608000D02*
X57822000Y-114008000D01*
X57822000Y-114008000D02*
X58072000Y-114008000D01*
X58072000Y-114008000D02*
X58072000Y-115508000D01*
X58072000Y-115508000D02*
X57922000Y-115508000D01*
X57922000Y-115508000D02*
X57922000Y-114108000D01*
X57922000Y-114108000D02*
X57972000Y-114108000D01*
X57972000Y-114108000D02*
X57972000Y-115408000D01*
X58772000Y-113408000D02*
X58772000Y-116208000D01*
X58772000Y-116208000D02*
X57222000Y-116208000D01*
X57222000Y-116208000D02*
X57222000Y-113408000D01*
X57222000Y-113408000D02*
X58672000Y-113408000D01*
X58672000Y-113408000D02*
X58672000Y-116108000D01*
X58672000Y-116108000D02*
X57322000Y-116108000D01*
X57322000Y-116108000D02*
X57322000Y-113508000D01*
X57322000Y-113508000D02*
X58572000Y-113508000D01*
X58572000Y-113508000D02*
X58572000Y-116008000D01*
X58572000Y-116008000D02*
X57422000Y-116008000D01*
X57422000Y-116008000D02*
X57422000Y-113608000D01*
X57422000Y-113608000D02*
X58472000Y-113608000D01*
X58472000Y-113608000D02*
X58472000Y-115908000D01*
X58472000Y-115908000D02*
X57522000Y-115908000D01*
X57522000Y-115908000D02*
X57522000Y-113708000D01*
X57522000Y-113708000D02*
X58372000Y-113708000D01*
X58372000Y-113708000D02*
X58372000Y-115808000D01*
X53522000Y-116858000D02*
X53522000Y-117358000D01*
X53522000Y-117358000D02*
X51972000Y-117358000D01*
X51972000Y-117358000D02*
X51972000Y-116858000D01*
X51972000Y-116858000D02*
X53422000Y-116858000D01*
X53422000Y-116858000D02*
X53422000Y-117258000D01*
X53422000Y-117258000D02*
X52072000Y-117258000D01*
X52072000Y-117258000D02*
X52072000Y-116958000D01*
X52072000Y-116958000D02*
X53322000Y-116958000D01*
X53322000Y-116958000D02*
X53322000Y-117158000D01*
X53322000Y-117158000D02*
X52172000Y-117158000D01*
X52172000Y-117158000D02*
X52172000Y-117058000D01*
X52172000Y-117058000D02*
X53222000Y-117058000D01*
X53522000Y-114558000D02*
X53522000Y-115058000D01*
X53522000Y-115058000D02*
X51972000Y-115058000D01*
X51972000Y-115058000D02*
X51972000Y-114558000D01*
X51972000Y-114558000D02*
X53422000Y-114558000D01*
X53422000Y-114558000D02*
X53422000Y-114958000D01*
X53422000Y-114958000D02*
X52072000Y-114958000D01*
X52072000Y-114958000D02*
X52072000Y-114658000D01*
X52072000Y-114658000D02*
X53322000Y-114658000D01*
X53322000Y-114658000D02*
X53322000Y-114858000D01*
X53322000Y-114858000D02*
X52172000Y-114858000D01*
X52172000Y-114858000D02*
X52172000Y-114758000D01*
X52172000Y-114758000D02*
X53222000Y-114758000D01*
X53522000Y-112258000D02*
X53522000Y-112758000D01*
X53522000Y-112758000D02*
X51972000Y-112758000D01*
X51972000Y-112758000D02*
X51972000Y-112258000D01*
X51972000Y-112258000D02*
X53422000Y-112258000D01*
X53422000Y-112258000D02*
X53422000Y-112658000D01*
X53422000Y-112658000D02*
X52072000Y-112658000D01*
X52072000Y-112658000D02*
X52072000Y-112358000D01*
X52072000Y-112358000D02*
X53322000Y-112358000D01*
X53322000Y-112358000D02*
X53322000Y-112558000D01*
X53322000Y-112558000D02*
X52172000Y-112558000D01*
X52172000Y-112558000D02*
X52172000Y-112458000D01*
X52172000Y-112458000D02*
X53222000Y-112458000D01*
X51872000Y-112858000D02*
X53622000Y-112858000D01*
X51872000Y-112158000D02*
X51872000Y-112858000D01*
X53622000Y-112158000D02*
X51872000Y-112158000D01*
X51872000Y-117458000D02*
X53622000Y-117458000D01*
X51872000Y-116758000D02*
X51872000Y-117458000D01*
X53622000Y-116758000D02*
X51872000Y-116758000D01*
X53622000Y-114458000D02*
X51872000Y-114458000D01*
X51872000Y-114458000D02*
X51872000Y-115158000D01*
X51872000Y-115158000D02*
X53622000Y-115158000D01*
X57122000Y-116308000D02*
X58872000Y-116308000D01*
X58872000Y-116308000D02*
X58872000Y-113308000D01*
X58872000Y-113308000D02*
X57122000Y-113308000D01*
X54722000Y-112358000D02*
G75*
G03X54722000Y-112358000I-300000J0D01*
G01*
X57122000Y-111558000D02*
X57122000Y-118058000D01*
X57122000Y-118058000D02*
X53622000Y-118058000D01*
X53622000Y-118058000D02*
X53622000Y-111558000D01*
X53622000Y-111558000D02*
X57122000Y-111558000D01*
D12*
X74700000Y-87430000D02*
X74700000Y-84030000D01*
X74697056Y-87427056D02*
G75*
G02X70600000Y-85730000I-1697056J1697056D01*
G01*
X74697056Y-84032944D02*
G75*
G03X70600000Y-85730000I-1697056J-1697056D01*
G01*
X45012000Y-96598000D02*
G75*
G03X45012000Y-96598000I-100000J0D01*
G01*
X45462000Y-96848000D02*
X44962000Y-96848000D01*
X45462000Y-99748000D02*
X45462000Y-96848000D01*
X44962000Y-99748000D02*
X45462000Y-99748000D01*
X44962000Y-96848000D02*
X44962000Y-99748000D01*
X167000000Y-81900000D02*
X167000000Y-78800000D01*
X167000000Y-78800000D02*
X169400000Y-78800000D01*
X169400000Y-91600000D02*
X169400000Y-94800000D01*
X169400000Y-94800000D02*
X167000000Y-94800000D01*
X167000000Y-94800000D02*
X167000000Y-84100000D01*
X169400000Y-78800000D02*
X169400000Y-89400000D01*
X160000000Y-81900000D02*
X160000000Y-78800000D01*
X160000000Y-78800000D02*
X162400000Y-78800000D01*
X162400000Y-91600000D02*
X162400000Y-94800000D01*
X162400000Y-94800000D02*
X160000000Y-94800000D01*
X160000000Y-94800000D02*
X160000000Y-84100000D01*
X162400000Y-78800000D02*
X162400000Y-89400000D01*
X153000000Y-81900000D02*
X153000000Y-78800000D01*
X153000000Y-78800000D02*
X155400000Y-78800000D01*
X155400000Y-91600000D02*
X155400000Y-94800000D01*
X155400000Y-94800000D02*
X153000000Y-94800000D01*
X153000000Y-94800000D02*
X153000000Y-84100000D01*
X155400000Y-78800000D02*
X155400000Y-89400000D01*
X146000000Y-81900000D02*
X146000000Y-78800000D01*
X146000000Y-78800000D02*
X148400000Y-78800000D01*
X148400000Y-91600000D02*
X148400000Y-94800000D01*
X148400000Y-94800000D02*
X146000000Y-94800000D01*
X146000000Y-94800000D02*
X146000000Y-84100000D01*
X148400000Y-78800000D02*
X148400000Y-89400000D01*
X160000000Y-98900000D02*
X160000000Y-95800000D01*
X160000000Y-95800000D02*
X162400000Y-95800000D01*
X162400000Y-108600000D02*
X162400000Y-111800000D01*
X162400000Y-111800000D02*
X160000000Y-111800000D01*
X160000000Y-111800000D02*
X160000000Y-101100000D01*
X162400000Y-95800000D02*
X162400000Y-106400000D01*
X167000000Y-98900000D02*
X167000000Y-95800000D01*
X167000000Y-95800000D02*
X169400000Y-95800000D01*
X169400000Y-108600000D02*
X169400000Y-111800000D01*
X169400000Y-111800000D02*
X167000000Y-111800000D01*
X167000000Y-111800000D02*
X167000000Y-101100000D01*
X169400000Y-95800000D02*
X169400000Y-106400000D01*
X111650000Y-128800000D02*
X111650000Y-128350000D01*
X111650000Y-129300000D02*
X111650000Y-129750000D01*
X110350000Y-127900000D02*
X110350000Y-127450000D01*
X110350000Y-127450000D02*
X111650000Y-127450000D01*
X111650000Y-127450000D02*
X111650000Y-127850000D01*
X110350000Y-128800000D02*
X110350000Y-128350000D01*
X110350000Y-129750000D02*
X110350000Y-129300000D01*
X110350000Y-130650000D02*
X110350000Y-130250000D01*
X110350000Y-130650000D02*
X111650000Y-130650000D01*
X111650000Y-130650000D02*
X111650000Y-130250000D01*
X151300000Y-128350000D02*
X151300000Y-128250000D01*
X152600000Y-128250000D02*
X152600000Y-128400000D01*
X152600000Y-128400000D02*
X151300000Y-128400000D01*
X152600000Y-127000000D02*
X152600000Y-127550000D01*
X152650000Y-126350000D02*
X152650000Y-125850000D01*
X151300000Y-127000000D02*
X151300000Y-127550000D01*
X151300000Y-125850000D02*
X151300000Y-126350000D01*
X152650000Y-125200000D02*
X152650000Y-124900000D01*
X152650000Y-124900000D02*
X151350000Y-124900000D01*
X151350000Y-124900000D02*
X151350000Y-125150000D01*
X126000760Y-115199000D02*
X125599440Y-115399660D01*
X125599440Y-115399660D02*
X125000000Y-115501260D01*
X125000000Y-115501260D02*
X124499620Y-115399660D01*
X124499620Y-115399660D02*
X123801120Y-115000880D01*
X123801120Y-115000880D02*
X123399800Y-114398900D01*
X123399800Y-114398900D02*
X123199140Y-113799460D01*
X123199140Y-113799460D02*
X123199140Y-107200540D01*
X123199140Y-107200540D02*
X123399800Y-106499500D01*
X123399800Y-106499500D02*
X123699520Y-106100720D01*
X123699520Y-106100720D02*
X124199900Y-105699400D01*
X124199900Y-105699400D02*
X124799340Y-105498740D01*
X124799340Y-105498740D02*
X125299720Y-105498740D01*
X125299720Y-105498740D02*
X125800100Y-105699400D01*
X125800100Y-105699400D02*
X126399540Y-106199780D01*
X126399540Y-106199780D02*
X126699260Y-106700160D01*
X126699260Y-106700160D02*
X126800860Y-107200540D01*
X126800860Y-107299600D02*
X126800860Y-113901060D01*
X126800860Y-113901060D02*
X126699260Y-114299840D01*
X126699260Y-114299840D02*
X126399540Y-114800220D01*
X126399540Y-114800220D02*
X125899160Y-115300600D01*
X127329180Y-107309760D02*
X127280920Y-106850020D01*
X127280920Y-106850020D02*
X127169160Y-106451240D01*
X127169160Y-106451240D02*
X126950720Y-106019440D01*
X126950720Y-106019440D02*
X126719580Y-105729880D01*
X126719580Y-105729880D02*
X126369060Y-105399680D01*
X126369060Y-105399680D02*
X125830580Y-105110120D01*
X125830580Y-105110120D02*
X125231140Y-104980580D01*
X125231140Y-104980580D02*
X124720600Y-104980580D01*
X124720600Y-104980580D02*
X124019560Y-105150760D01*
X124019560Y-105150760D02*
X123430280Y-105549540D01*
X123430280Y-105549540D02*
X123059440Y-106009280D01*
X123059440Y-106009280D02*
X122851160Y-106430920D01*
X122851160Y-106430920D02*
X122691140Y-106880500D01*
X122691140Y-106880500D02*
X122660660Y-107319920D01*
X122879100Y-114660520D02*
X123100080Y-115038980D01*
X123100080Y-115038980D02*
X123379480Y-115359020D01*
X123379480Y-115359020D02*
X123709680Y-115610480D01*
X123709680Y-115610480D02*
X124260860Y-115910200D01*
X124260860Y-115910200D02*
X124730760Y-116019420D01*
X124730760Y-116019420D02*
X125190500Y-116039740D01*
X125190500Y-116039740D02*
X125650240Y-115950840D01*
X125650240Y-115950840D02*
X126099820Y-115760340D01*
X126099820Y-115760340D02*
X126569720Y-115399660D01*
X126569720Y-115399660D02*
X126889760Y-115049140D01*
X126889760Y-115049140D02*
X127120900Y-114660520D01*
X127120900Y-114660520D02*
X127260600Y-114231260D01*
X127260600Y-114231260D02*
X127329180Y-113789300D01*
X122670820Y-107299600D02*
X122670820Y-113751200D01*
X122670820Y-113751200D02*
X122708920Y-114170300D01*
X122708920Y-114170300D02*
X122879100Y-114660520D01*
X127329180Y-107299600D02*
X127329180Y-113751200D01*
X105206800Y-93447820D02*
X104505760Y-93447820D01*
X104505760Y-93447820D02*
X104505760Y-93198900D01*
X104505760Y-90648840D02*
X104505760Y-90448180D01*
X104505760Y-90448180D02*
X105206800Y-90448180D01*
X105206800Y-97765820D02*
X104505760Y-97765820D01*
X104505760Y-97765820D02*
X104505760Y-97516900D01*
X104505760Y-94966840D02*
X104505760Y-94766180D01*
X104505760Y-94766180D02*
X105206800Y-94766180D01*
X108550000Y-81647000D02*
X107350000Y-81647000D01*
X107350000Y-79897000D02*
X108550000Y-79897000D01*
X115662000Y-96887000D02*
X114462000Y-96887000D01*
X114462000Y-95137000D02*
X115662000Y-95137000D01*
X114462000Y-92089000D02*
X115662000Y-92089000D01*
X115662000Y-93839000D02*
X114462000Y-93839000D01*
X115662000Y-90791000D02*
X114462000Y-90791000D01*
X114462000Y-89041000D02*
X115662000Y-89041000D01*
X65840000Y-68580000D02*
G75*
G03X65840000Y-68580000I-12500000J0D01*
G01*
X95050000Y-68580000D02*
G75*
G03X95050000Y-68580000I-12500000J0D01*
G01*
X24349000Y-109174000D02*
X27778000Y-109174000D01*
X24349000Y-118826000D02*
X27778000Y-118826000D01*
X23206000Y-108666000D02*
X23206000Y-119334000D01*
X24222000Y-112222000D02*
X22952000Y-112222000D01*
X24222000Y-115778000D02*
X22952000Y-115778000D01*
X24349000Y-119334000D02*
X24349000Y-108666000D01*
X27778000Y-108666000D02*
X27778000Y-119334000D01*
X22952000Y-119334000D02*
X27778000Y-119334000D01*
X22952000Y-108666000D02*
X27778000Y-108666000D01*
X22952000Y-108666000D02*
X22952000Y-119334000D01*
X101540000Y-62380000D02*
X96460000Y-62380000D01*
X96460000Y-62380000D02*
X96460000Y-77620000D01*
X96460000Y-77620000D02*
X99000000Y-77620000D01*
X99000000Y-77620000D02*
X101540000Y-77620000D01*
X101540000Y-77620000D02*
X101540000Y-62380000D01*
X99000000Y-78890000D02*
X99000000Y-77620000D01*
X99000000Y-61110000D02*
X99000000Y-62380000D01*
X45220000Y-103212000D02*
X46220000Y-103212000D01*
X46220000Y-101512000D02*
X45220000Y-101512000D01*
X64992000Y-93512000D02*
X64992000Y-98512000D01*
X60492000Y-93512000D02*
X90492000Y-93512000D01*
X90492000Y-93512000D02*
X90492000Y-98512000D01*
X90492000Y-98512000D02*
X60492000Y-98512000D01*
X60492000Y-98512000D02*
X60492000Y-93512000D01*
X134942334Y-118109143D02*
X134894715Y-118156762D01*
X134751858Y-118204381D01*
X134656620Y-118204381D01*
X134513762Y-118156762D01*
X134418524Y-118061524D01*
X134370905Y-117966286D01*
X134323286Y-117775810D01*
X134323286Y-117632952D01*
X134370905Y-117442476D01*
X134418524Y-117347238D01*
X134513762Y-117252000D01*
X134656620Y-117204381D01*
X134751858Y-117204381D01*
X134894715Y-117252000D01*
X134942334Y-117299619D01*
X135894715Y-118204381D02*
X135323286Y-118204381D01*
X135609000Y-118204381D02*
X135609000Y-117204381D01*
X135513762Y-117347238D01*
X135418524Y-117442476D01*
X135323286Y-117490095D01*
X135117334Y-116023143D02*
X135069715Y-116070762D01*
X134926858Y-116118381D01*
X134831620Y-116118381D01*
X134688762Y-116070762D01*
X134593524Y-115975524D01*
X134545905Y-115880286D01*
X134498286Y-115689810D01*
X134498286Y-115546952D01*
X134545905Y-115356476D01*
X134593524Y-115261238D01*
X134688762Y-115166000D01*
X134831620Y-115118381D01*
X134926858Y-115118381D01*
X135069715Y-115166000D01*
X135117334Y-115213619D01*
X135498286Y-115213619D02*
X135545905Y-115166000D01*
X135641143Y-115118381D01*
X135879239Y-115118381D01*
X135974477Y-115166000D01*
X136022096Y-115213619D01*
X136069715Y-115308857D01*
X136069715Y-115404095D01*
X136022096Y-115546952D01*
X135450667Y-116118381D01*
X136069715Y-116118381D01*
X126457143Y-129066666D02*
X126504762Y-129114285D01*
X126552381Y-129257142D01*
X126552381Y-129352380D01*
X126504762Y-129495238D01*
X126409524Y-129590476D01*
X126314286Y-129638095D01*
X126123810Y-129685714D01*
X125980952Y-129685714D01*
X125790476Y-129638095D01*
X125695238Y-129590476D01*
X125600000Y-129495238D01*
X125552381Y-129352380D01*
X125552381Y-129257142D01*
X125600000Y-129114285D01*
X125647619Y-129066666D01*
X125552381Y-128733333D02*
X125552381Y-128114285D01*
X125933333Y-128447619D01*
X125933333Y-128304761D01*
X125980952Y-128209523D01*
X126028571Y-128161904D01*
X126123810Y-128114285D01*
X126361905Y-128114285D01*
X126457143Y-128161904D01*
X126504762Y-128209523D01*
X126552381Y-128304761D01*
X126552381Y-128590476D01*
X126504762Y-128685714D01*
X126457143Y-128733333D01*
X111357143Y-120666666D02*
X111404762Y-120714285D01*
X111452381Y-120857142D01*
X111452381Y-120952380D01*
X111404762Y-121095238D01*
X111309524Y-121190476D01*
X111214286Y-121238095D01*
X111023810Y-121285714D01*
X110880952Y-121285714D01*
X110690476Y-121238095D01*
X110595238Y-121190476D01*
X110500000Y-121095238D01*
X110452381Y-120952380D01*
X110452381Y-120857142D01*
X110500000Y-120714285D01*
X110547619Y-120666666D01*
X110785714Y-119809523D02*
X111452381Y-119809523D01*
X110404762Y-120047619D02*
X111119048Y-120285714D01*
X111119048Y-119666666D01*
X111313334Y-114547143D02*
X111265715Y-114594762D01*
X111122858Y-114642381D01*
X111027620Y-114642381D01*
X110884762Y-114594762D01*
X110789524Y-114499524D01*
X110741905Y-114404286D01*
X110694286Y-114213810D01*
X110694286Y-114070952D01*
X110741905Y-113880476D01*
X110789524Y-113785238D01*
X110884762Y-113690000D01*
X111027620Y-113642381D01*
X111122858Y-113642381D01*
X111265715Y-113690000D01*
X111313334Y-113737619D01*
X112170477Y-113642381D02*
X111980000Y-113642381D01*
X111884762Y-113690000D01*
X111837143Y-113737619D01*
X111741905Y-113880476D01*
X111694286Y-114070952D01*
X111694286Y-114451905D01*
X111741905Y-114547143D01*
X111789524Y-114594762D01*
X111884762Y-114642381D01*
X112075239Y-114642381D01*
X112170477Y-114594762D01*
X112218096Y-114547143D01*
X112265715Y-114451905D01*
X112265715Y-114213810D01*
X112218096Y-114118571D01*
X112170477Y-114070952D01*
X112075239Y-114023333D01*
X111884762Y-114023333D01*
X111789524Y-114070952D01*
X111741905Y-114118571D01*
X111694286Y-114213810D01*
X111423334Y-117397143D02*
X111375715Y-117444762D01*
X111232858Y-117492381D01*
X111137620Y-117492381D01*
X110994762Y-117444762D01*
X110899524Y-117349524D01*
X110851905Y-117254286D01*
X110804286Y-117063810D01*
X110804286Y-116920952D01*
X110851905Y-116730476D01*
X110899524Y-116635238D01*
X110994762Y-116540000D01*
X111137620Y-116492381D01*
X111232858Y-116492381D01*
X111375715Y-116540000D01*
X111423334Y-116587619D01*
X111756667Y-116492381D02*
X112423334Y-116492381D01*
X111994762Y-117492381D01*
X157673334Y-102347143D02*
X157625715Y-102394762D01*
X157482858Y-102442381D01*
X157387620Y-102442381D01*
X157244762Y-102394762D01*
X157149524Y-102299524D01*
X157101905Y-102204286D01*
X157054286Y-102013810D01*
X157054286Y-101870952D01*
X157101905Y-101680476D01*
X157149524Y-101585238D01*
X157244762Y-101490000D01*
X157387620Y-101442381D01*
X157482858Y-101442381D01*
X157625715Y-101490000D01*
X157673334Y-101537619D01*
X158244762Y-101870952D02*
X158149524Y-101823333D01*
X158101905Y-101775714D01*
X158054286Y-101680476D01*
X158054286Y-101632857D01*
X158101905Y-101537619D01*
X158149524Y-101490000D01*
X158244762Y-101442381D01*
X158435239Y-101442381D01*
X158530477Y-101490000D01*
X158578096Y-101537619D01*
X158625715Y-101632857D01*
X158625715Y-101680476D01*
X158578096Y-101775714D01*
X158530477Y-101823333D01*
X158435239Y-101870952D01*
X158244762Y-101870952D01*
X158149524Y-101918571D01*
X158101905Y-101966190D01*
X158054286Y-102061429D01*
X158054286Y-102251905D01*
X158101905Y-102347143D01*
X158149524Y-102394762D01*
X158244762Y-102442381D01*
X158435239Y-102442381D01*
X158530477Y-102394762D01*
X158578096Y-102347143D01*
X158625715Y-102251905D01*
X158625715Y-102061429D01*
X158578096Y-101966190D01*
X158530477Y-101918571D01*
X158435239Y-101870952D01*
X157583334Y-100407143D02*
X157535715Y-100454762D01*
X157392858Y-100502381D01*
X157297620Y-100502381D01*
X157154762Y-100454762D01*
X157059524Y-100359524D01*
X157011905Y-100264286D01*
X156964286Y-100073810D01*
X156964286Y-99930952D01*
X157011905Y-99740476D01*
X157059524Y-99645238D01*
X157154762Y-99550000D01*
X157297620Y-99502381D01*
X157392858Y-99502381D01*
X157535715Y-99550000D01*
X157583334Y-99597619D01*
X158059524Y-100502381D02*
X158250000Y-100502381D01*
X158345239Y-100454762D01*
X158392858Y-100407143D01*
X158488096Y-100264286D01*
X158535715Y-100073810D01*
X158535715Y-99692857D01*
X158488096Y-99597619D01*
X158440477Y-99550000D01*
X158345239Y-99502381D01*
X158154762Y-99502381D01*
X158059524Y-99550000D01*
X158011905Y-99597619D01*
X157964286Y-99692857D01*
X157964286Y-99930952D01*
X158011905Y-100026190D01*
X158059524Y-100073810D01*
X158154762Y-100121429D01*
X158345239Y-100121429D01*
X158440477Y-100073810D01*
X158488096Y-100026190D01*
X158535715Y-99930952D01*
X142937143Y-100457143D02*
X142889524Y-100504762D01*
X142746667Y-100552381D01*
X142651429Y-100552381D01*
X142508571Y-100504762D01*
X142413333Y-100409524D01*
X142365714Y-100314286D01*
X142318095Y-100123810D01*
X142318095Y-99980952D01*
X142365714Y-99790476D01*
X142413333Y-99695238D01*
X142508571Y-99600000D01*
X142651429Y-99552381D01*
X142746667Y-99552381D01*
X142889524Y-99600000D01*
X142937143Y-99647619D01*
X143889524Y-100552381D02*
X143318095Y-100552381D01*
X143603809Y-100552381D02*
X143603809Y-99552381D01*
X143508571Y-99695238D01*
X143413333Y-99790476D01*
X143318095Y-99838095D01*
X144508571Y-99552381D02*
X144603810Y-99552381D01*
X144699048Y-99600000D01*
X144746667Y-99647619D01*
X144794286Y-99742857D01*
X144841905Y-99933333D01*
X144841905Y-100171429D01*
X144794286Y-100361905D01*
X144746667Y-100457143D01*
X144699048Y-100504762D01*
X144603810Y-100552381D01*
X144508571Y-100552381D01*
X144413333Y-100504762D01*
X144365714Y-100457143D01*
X144318095Y-100361905D01*
X144270476Y-100171429D01*
X144270476Y-99933333D01*
X144318095Y-99742857D01*
X144365714Y-99647619D01*
X144413333Y-99600000D01*
X144508571Y-99552381D01*
X143437143Y-103957143D02*
X143389524Y-104004762D01*
X143246667Y-104052381D01*
X143151429Y-104052381D01*
X143008571Y-104004762D01*
X142913333Y-103909524D01*
X142865714Y-103814286D01*
X142818095Y-103623810D01*
X142818095Y-103480952D01*
X142865714Y-103290476D01*
X142913333Y-103195238D01*
X143008571Y-103100000D01*
X143151429Y-103052381D01*
X143246667Y-103052381D01*
X143389524Y-103100000D01*
X143437143Y-103147619D01*
X144389524Y-104052381D02*
X143818095Y-104052381D01*
X144103809Y-104052381D02*
X144103809Y-103052381D01*
X144008571Y-103195238D01*
X143913333Y-103290476D01*
X143818095Y-103338095D01*
X145341905Y-104052381D02*
X144770476Y-104052381D01*
X145056190Y-104052381D02*
X145056190Y-103052381D01*
X144960952Y-103195238D01*
X144865714Y-103290476D01*
X144770476Y-103338095D01*
X145357143Y-134142857D02*
X145404762Y-134190476D01*
X145452381Y-134333333D01*
X145452381Y-134428571D01*
X145404762Y-134571429D01*
X145309524Y-134666667D01*
X145214286Y-134714286D01*
X145023810Y-134761905D01*
X144880952Y-134761905D01*
X144690476Y-134714286D01*
X144595238Y-134666667D01*
X144500000Y-134571429D01*
X144452381Y-134428571D01*
X144452381Y-134333333D01*
X144500000Y-134190476D01*
X144547619Y-134142857D01*
X145452381Y-133190476D02*
X145452381Y-133761905D01*
X145452381Y-133476191D02*
X144452381Y-133476191D01*
X144595238Y-133571429D01*
X144690476Y-133666667D01*
X144738095Y-133761905D01*
X144547619Y-132809524D02*
X144500000Y-132761905D01*
X144452381Y-132666667D01*
X144452381Y-132428571D01*
X144500000Y-132333333D01*
X144547619Y-132285714D01*
X144642857Y-132238095D01*
X144738095Y-132238095D01*
X144880952Y-132285714D01*
X145452381Y-132857143D01*
X145452381Y-132238095D01*
X148357143Y-134142857D02*
X148404762Y-134190476D01*
X148452381Y-134333333D01*
X148452381Y-134428571D01*
X148404762Y-134571429D01*
X148309524Y-134666667D01*
X148214286Y-134714286D01*
X148023810Y-134761905D01*
X147880952Y-134761905D01*
X147690476Y-134714286D01*
X147595238Y-134666667D01*
X147500000Y-134571429D01*
X147452381Y-134428571D01*
X147452381Y-134333333D01*
X147500000Y-134190476D01*
X147547619Y-134142857D01*
X148452381Y-133190476D02*
X148452381Y-133761905D01*
X148452381Y-133476191D02*
X147452381Y-133476191D01*
X147595238Y-133571429D01*
X147690476Y-133666667D01*
X147738095Y-133761905D01*
X147452381Y-132857143D02*
X147452381Y-132238095D01*
X147833333Y-132571429D01*
X147833333Y-132428571D01*
X147880952Y-132333333D01*
X147928571Y-132285714D01*
X148023810Y-132238095D01*
X148261905Y-132238095D01*
X148357143Y-132285714D01*
X148404762Y-132333333D01*
X148452381Y-132428571D01*
X148452381Y-132714286D01*
X148404762Y-132809524D01*
X148357143Y-132857143D01*
X162663143Y-135272857D02*
X162710762Y-135320476D01*
X162758381Y-135463333D01*
X162758381Y-135558571D01*
X162710762Y-135701429D01*
X162615524Y-135796667D01*
X162520286Y-135844286D01*
X162329810Y-135891905D01*
X162186952Y-135891905D01*
X161996476Y-135844286D01*
X161901238Y-135796667D01*
X161806000Y-135701429D01*
X161758381Y-135558571D01*
X161758381Y-135463333D01*
X161806000Y-135320476D01*
X161853619Y-135272857D01*
X162758381Y-134320476D02*
X162758381Y-134891905D01*
X162758381Y-134606191D02*
X161758381Y-134606191D01*
X161901238Y-134701429D01*
X161996476Y-134796667D01*
X162044095Y-134891905D01*
X162091714Y-133463333D02*
X162758381Y-133463333D01*
X161710762Y-133701429D02*
X162425048Y-133939524D01*
X162425048Y-133320476D01*
X164949143Y-135072857D02*
X164996762Y-135120476D01*
X165044381Y-135263333D01*
X165044381Y-135358571D01*
X164996762Y-135501429D01*
X164901524Y-135596667D01*
X164806286Y-135644286D01*
X164615810Y-135691905D01*
X164472952Y-135691905D01*
X164282476Y-135644286D01*
X164187238Y-135596667D01*
X164092000Y-135501429D01*
X164044381Y-135358571D01*
X164044381Y-135263333D01*
X164092000Y-135120476D01*
X164139619Y-135072857D01*
X165044381Y-134120476D02*
X165044381Y-134691905D01*
X165044381Y-134406191D02*
X164044381Y-134406191D01*
X164187238Y-134501429D01*
X164282476Y-134596667D01*
X164330095Y-134691905D01*
X164044381Y-133215714D02*
X164044381Y-133691905D01*
X164520571Y-133739524D01*
X164472952Y-133691905D01*
X164425333Y-133596667D01*
X164425333Y-133358571D01*
X164472952Y-133263333D01*
X164520571Y-133215714D01*
X164615810Y-133168095D01*
X164853905Y-133168095D01*
X164949143Y-133215714D01*
X164996762Y-133263333D01*
X165044381Y-133358571D01*
X165044381Y-133596667D01*
X164996762Y-133691905D01*
X164949143Y-133739524D01*
X162957143Y-119307143D02*
X162909524Y-119354762D01*
X162766667Y-119402381D01*
X162671429Y-119402381D01*
X162528571Y-119354762D01*
X162433333Y-119259524D01*
X162385714Y-119164286D01*
X162338095Y-118973810D01*
X162338095Y-118830952D01*
X162385714Y-118640476D01*
X162433333Y-118545238D01*
X162528571Y-118450000D01*
X162671429Y-118402381D01*
X162766667Y-118402381D01*
X162909524Y-118450000D01*
X162957143Y-118497619D01*
X163909524Y-119402381D02*
X163338095Y-119402381D01*
X163623809Y-119402381D02*
X163623809Y-118402381D01*
X163528571Y-118545238D01*
X163433333Y-118640476D01*
X163338095Y-118688095D01*
X164766667Y-118402381D02*
X164576190Y-118402381D01*
X164480952Y-118450000D01*
X164433333Y-118497619D01*
X164338095Y-118640476D01*
X164290476Y-118830952D01*
X164290476Y-119211905D01*
X164338095Y-119307143D01*
X164385714Y-119354762D01*
X164480952Y-119402381D01*
X164671429Y-119402381D01*
X164766667Y-119354762D01*
X164814286Y-119307143D01*
X164861905Y-119211905D01*
X164861905Y-118973810D01*
X164814286Y-118878571D01*
X164766667Y-118830952D01*
X164671429Y-118783333D01*
X164480952Y-118783333D01*
X164385714Y-118830952D01*
X164338095Y-118878571D01*
X164290476Y-118973810D01*
X163107143Y-121907143D02*
X163059524Y-121954762D01*
X162916667Y-122002381D01*
X162821429Y-122002381D01*
X162678571Y-121954762D01*
X162583333Y-121859524D01*
X162535714Y-121764286D01*
X162488095Y-121573810D01*
X162488095Y-121430952D01*
X162535714Y-121240476D01*
X162583333Y-121145238D01*
X162678571Y-121050000D01*
X162821429Y-121002381D01*
X162916667Y-121002381D01*
X163059524Y-121050000D01*
X163107143Y-121097619D01*
X164059524Y-122002381D02*
X163488095Y-122002381D01*
X163773809Y-122002381D02*
X163773809Y-121002381D01*
X163678571Y-121145238D01*
X163583333Y-121240476D01*
X163488095Y-121288095D01*
X164392857Y-121002381D02*
X165059524Y-121002381D01*
X164630952Y-122002381D01*
X115857143Y-65257143D02*
X115809524Y-65304762D01*
X115666667Y-65352381D01*
X115571429Y-65352381D01*
X115428571Y-65304762D01*
X115333333Y-65209524D01*
X115285714Y-65114286D01*
X115238095Y-64923810D01*
X115238095Y-64780952D01*
X115285714Y-64590476D01*
X115333333Y-64495238D01*
X115428571Y-64400000D01*
X115571429Y-64352381D01*
X115666667Y-64352381D01*
X115809524Y-64400000D01*
X115857143Y-64447619D01*
X116809524Y-65352381D02*
X116238095Y-65352381D01*
X116523809Y-65352381D02*
X116523809Y-64352381D01*
X116428571Y-64495238D01*
X116333333Y-64590476D01*
X116238095Y-64638095D01*
X117380952Y-64780952D02*
X117285714Y-64733333D01*
X117238095Y-64685714D01*
X117190476Y-64590476D01*
X117190476Y-64542857D01*
X117238095Y-64447619D01*
X117285714Y-64400000D01*
X117380952Y-64352381D01*
X117571429Y-64352381D01*
X117666667Y-64400000D01*
X117714286Y-64447619D01*
X117761905Y-64542857D01*
X117761905Y-64590476D01*
X117714286Y-64685714D01*
X117666667Y-64733333D01*
X117571429Y-64780952D01*
X117380952Y-64780952D01*
X117285714Y-64828571D01*
X117238095Y-64876190D01*
X117190476Y-64971429D01*
X117190476Y-65161905D01*
X117238095Y-65257143D01*
X117285714Y-65304762D01*
X117380952Y-65352381D01*
X117571429Y-65352381D01*
X117666667Y-65304762D01*
X117714286Y-65257143D01*
X117761905Y-65161905D01*
X117761905Y-64971429D01*
X117714286Y-64876190D01*
X117666667Y-64828571D01*
X117571429Y-64780952D01*
X143883143Y-68361143D02*
X143835524Y-68408762D01*
X143692667Y-68456381D01*
X143597429Y-68456381D01*
X143454571Y-68408762D01*
X143359333Y-68313524D01*
X143311714Y-68218286D01*
X143264095Y-68027810D01*
X143264095Y-67884952D01*
X143311714Y-67694476D01*
X143359333Y-67599238D01*
X143454571Y-67504000D01*
X143597429Y-67456381D01*
X143692667Y-67456381D01*
X143835524Y-67504000D01*
X143883143Y-67551619D01*
X144835524Y-68456381D02*
X144264095Y-68456381D01*
X144549809Y-68456381D02*
X144549809Y-67456381D01*
X144454571Y-67599238D01*
X144359333Y-67694476D01*
X144264095Y-67742095D01*
X145311714Y-68456381D02*
X145502190Y-68456381D01*
X145597429Y-68408762D01*
X145645048Y-68361143D01*
X145740286Y-68218286D01*
X145787905Y-68027810D01*
X145787905Y-67646857D01*
X145740286Y-67551619D01*
X145692667Y-67504000D01*
X145597429Y-67456381D01*
X145406952Y-67456381D01*
X145311714Y-67504000D01*
X145264095Y-67551619D01*
X145216476Y-67646857D01*
X145216476Y-67884952D01*
X145264095Y-67980190D01*
X145311714Y-68027810D01*
X145406952Y-68075429D01*
X145597429Y-68075429D01*
X145692667Y-68027810D01*
X145740286Y-67980190D01*
X145787905Y-67884952D01*
X103557143Y-70357143D02*
X103509524Y-70404762D01*
X103366667Y-70452381D01*
X103271429Y-70452381D01*
X103128571Y-70404762D01*
X103033333Y-70309524D01*
X102985714Y-70214286D01*
X102938095Y-70023810D01*
X102938095Y-69880952D01*
X102985714Y-69690476D01*
X103033333Y-69595238D01*
X103128571Y-69500000D01*
X103271429Y-69452381D01*
X103366667Y-69452381D01*
X103509524Y-69500000D01*
X103557143Y-69547619D01*
X103938095Y-69547619D02*
X103985714Y-69500000D01*
X104080952Y-69452381D01*
X104319048Y-69452381D01*
X104414286Y-69500000D01*
X104461905Y-69547619D01*
X104509524Y-69642857D01*
X104509524Y-69738095D01*
X104461905Y-69880952D01*
X103890476Y-70452381D01*
X104509524Y-70452381D01*
X105128571Y-69452381D02*
X105223810Y-69452381D01*
X105319048Y-69500000D01*
X105366667Y-69547619D01*
X105414286Y-69642857D01*
X105461905Y-69833333D01*
X105461905Y-70071429D01*
X105414286Y-70261905D01*
X105366667Y-70357143D01*
X105319048Y-70404762D01*
X105223810Y-70452381D01*
X105128571Y-70452381D01*
X105033333Y-70404762D01*
X104985714Y-70357143D01*
X104938095Y-70261905D01*
X104890476Y-70071429D01*
X104890476Y-69833333D01*
X104938095Y-69642857D01*
X104985714Y-69547619D01*
X105033333Y-69500000D01*
X105128571Y-69452381D01*
X127457143Y-72057143D02*
X127409524Y-72104762D01*
X127266667Y-72152381D01*
X127171429Y-72152381D01*
X127028571Y-72104762D01*
X126933333Y-72009524D01*
X126885714Y-71914286D01*
X126838095Y-71723810D01*
X126838095Y-71580952D01*
X126885714Y-71390476D01*
X126933333Y-71295238D01*
X127028571Y-71200000D01*
X127171429Y-71152381D01*
X127266667Y-71152381D01*
X127409524Y-71200000D01*
X127457143Y-71247619D01*
X127838095Y-71247619D02*
X127885714Y-71200000D01*
X127980952Y-71152381D01*
X128219048Y-71152381D01*
X128314286Y-71200000D01*
X128361905Y-71247619D01*
X128409524Y-71342857D01*
X128409524Y-71438095D01*
X128361905Y-71580952D01*
X127790476Y-72152381D01*
X128409524Y-72152381D01*
X129361905Y-72152381D02*
X128790476Y-72152381D01*
X129076190Y-72152381D02*
X129076190Y-71152381D01*
X128980952Y-71295238D01*
X128885714Y-71390476D01*
X128790476Y-71438095D01*
X103357143Y-78557143D02*
X103309524Y-78604762D01*
X103166667Y-78652381D01*
X103071429Y-78652381D01*
X102928571Y-78604762D01*
X102833333Y-78509524D01*
X102785714Y-78414286D01*
X102738095Y-78223810D01*
X102738095Y-78080952D01*
X102785714Y-77890476D01*
X102833333Y-77795238D01*
X102928571Y-77700000D01*
X103071429Y-77652381D01*
X103166667Y-77652381D01*
X103309524Y-77700000D01*
X103357143Y-77747619D01*
X103738095Y-77747619D02*
X103785714Y-77700000D01*
X103880952Y-77652381D01*
X104119048Y-77652381D01*
X104214286Y-77700000D01*
X104261905Y-77747619D01*
X104309524Y-77842857D01*
X104309524Y-77938095D01*
X104261905Y-78080952D01*
X103690476Y-78652381D01*
X104309524Y-78652381D01*
X104690476Y-77747619D02*
X104738095Y-77700000D01*
X104833333Y-77652381D01*
X105071429Y-77652381D01*
X105166667Y-77700000D01*
X105214286Y-77747619D01*
X105261905Y-77842857D01*
X105261905Y-77938095D01*
X105214286Y-78080952D01*
X104642857Y-78652381D01*
X105261905Y-78652381D01*
X118157143Y-84357143D02*
X118109524Y-84404762D01*
X117966667Y-84452381D01*
X117871429Y-84452381D01*
X117728571Y-84404762D01*
X117633333Y-84309524D01*
X117585714Y-84214286D01*
X117538095Y-84023810D01*
X117538095Y-83880952D01*
X117585714Y-83690476D01*
X117633333Y-83595238D01*
X117728571Y-83500000D01*
X117871429Y-83452381D01*
X117966667Y-83452381D01*
X118109524Y-83500000D01*
X118157143Y-83547619D01*
X118538095Y-83547619D02*
X118585714Y-83500000D01*
X118680952Y-83452381D01*
X118919048Y-83452381D01*
X119014286Y-83500000D01*
X119061905Y-83547619D01*
X119109524Y-83642857D01*
X119109524Y-83738095D01*
X119061905Y-83880952D01*
X118490476Y-84452381D01*
X119109524Y-84452381D01*
X119442857Y-83452381D02*
X120061905Y-83452381D01*
X119728571Y-83833333D01*
X119871429Y-83833333D01*
X119966667Y-83880952D01*
X120014286Y-83928571D01*
X120061905Y-84023810D01*
X120061905Y-84261905D01*
X120014286Y-84357143D01*
X119966667Y-84404762D01*
X119871429Y-84452381D01*
X119585714Y-84452381D01*
X119490476Y-84404762D01*
X119442857Y-84357143D01*
X34409143Y-124563143D02*
X34361524Y-124610762D01*
X34218667Y-124658381D01*
X34123429Y-124658381D01*
X33980571Y-124610762D01*
X33885333Y-124515524D01*
X33837714Y-124420286D01*
X33790095Y-124229810D01*
X33790095Y-124086952D01*
X33837714Y-123896476D01*
X33885333Y-123801238D01*
X33980571Y-123706000D01*
X34123429Y-123658381D01*
X34218667Y-123658381D01*
X34361524Y-123706000D01*
X34409143Y-123753619D01*
X34790095Y-123753619D02*
X34837714Y-123706000D01*
X34932952Y-123658381D01*
X35171048Y-123658381D01*
X35266286Y-123706000D01*
X35313905Y-123753619D01*
X35361524Y-123848857D01*
X35361524Y-123944095D01*
X35313905Y-124086952D01*
X34742476Y-124658381D01*
X35361524Y-124658381D01*
X36218667Y-123658381D02*
X36028190Y-123658381D01*
X35932952Y-123706000D01*
X35885333Y-123753619D01*
X35790095Y-123896476D01*
X35742476Y-124086952D01*
X35742476Y-124467905D01*
X35790095Y-124563143D01*
X35837714Y-124610762D01*
X35932952Y-124658381D01*
X36123429Y-124658381D01*
X36218667Y-124610762D01*
X36266286Y-124563143D01*
X36313905Y-124467905D01*
X36313905Y-124229810D01*
X36266286Y-124134571D01*
X36218667Y-124086952D01*
X36123429Y-124039333D01*
X35932952Y-124039333D01*
X35837714Y-124086952D01*
X35790095Y-124134571D01*
X35742476Y-124229810D01*
X44315143Y-131929143D02*
X44267524Y-131976762D01*
X44124667Y-132024381D01*
X44029429Y-132024381D01*
X43886571Y-131976762D01*
X43791333Y-131881524D01*
X43743714Y-131786286D01*
X43696095Y-131595810D01*
X43696095Y-131452952D01*
X43743714Y-131262476D01*
X43791333Y-131167238D01*
X43886571Y-131072000D01*
X44029429Y-131024381D01*
X44124667Y-131024381D01*
X44267524Y-131072000D01*
X44315143Y-131119619D01*
X44696095Y-131119619D02*
X44743714Y-131072000D01*
X44838952Y-131024381D01*
X45077048Y-131024381D01*
X45172286Y-131072000D01*
X45219905Y-131119619D01*
X45267524Y-131214857D01*
X45267524Y-131310095D01*
X45219905Y-131452952D01*
X44648476Y-132024381D01*
X45267524Y-132024381D01*
X45600857Y-131024381D02*
X46267524Y-131024381D01*
X45838952Y-132024381D01*
X48157143Y-92957143D02*
X48109524Y-93004762D01*
X47966667Y-93052381D01*
X47871429Y-93052381D01*
X47728571Y-93004762D01*
X47633333Y-92909524D01*
X47585714Y-92814286D01*
X47538095Y-92623810D01*
X47538095Y-92480952D01*
X47585714Y-92290476D01*
X47633333Y-92195238D01*
X47728571Y-92100000D01*
X47871429Y-92052381D01*
X47966667Y-92052381D01*
X48109524Y-92100000D01*
X48157143Y-92147619D01*
X48538095Y-92147619D02*
X48585714Y-92100000D01*
X48680952Y-92052381D01*
X48919048Y-92052381D01*
X49014286Y-92100000D01*
X49061905Y-92147619D01*
X49109524Y-92242857D01*
X49109524Y-92338095D01*
X49061905Y-92480952D01*
X48490476Y-93052381D01*
X49109524Y-93052381D01*
X49585714Y-93052381D02*
X49776190Y-93052381D01*
X49871429Y-93004762D01*
X49919048Y-92957143D01*
X50014286Y-92814286D01*
X50061905Y-92623810D01*
X50061905Y-92242857D01*
X50014286Y-92147619D01*
X49966667Y-92100000D01*
X49871429Y-92052381D01*
X49680952Y-92052381D01*
X49585714Y-92100000D01*
X49538095Y-92147619D01*
X49490476Y-92242857D01*
X49490476Y-92480952D01*
X49538095Y-92576190D01*
X49585714Y-92623810D01*
X49680952Y-92671429D01*
X49871429Y-92671429D01*
X49966667Y-92623810D01*
X50014286Y-92576190D01*
X50061905Y-92480952D01*
X129457143Y-129942857D02*
X129504762Y-129990476D01*
X129552381Y-130133333D01*
X129552381Y-130228571D01*
X129504762Y-130371429D01*
X129409524Y-130466667D01*
X129314286Y-130514286D01*
X129123810Y-130561905D01*
X128980952Y-130561905D01*
X128790476Y-130514286D01*
X128695238Y-130466667D01*
X128600000Y-130371429D01*
X128552381Y-130228571D01*
X128552381Y-130133333D01*
X128600000Y-129990476D01*
X128647619Y-129942857D01*
X128552381Y-129609524D02*
X128552381Y-128990476D01*
X128933333Y-129323810D01*
X128933333Y-129180952D01*
X128980952Y-129085714D01*
X129028571Y-129038095D01*
X129123810Y-128990476D01*
X129361905Y-128990476D01*
X129457143Y-129038095D01*
X129504762Y-129085714D01*
X129552381Y-129180952D01*
X129552381Y-129466667D01*
X129504762Y-129561905D01*
X129457143Y-129609524D01*
X128552381Y-128371429D02*
X128552381Y-128276190D01*
X128600000Y-128180952D01*
X128647619Y-128133333D01*
X128742857Y-128085714D01*
X128933333Y-128038095D01*
X129171429Y-128038095D01*
X129361905Y-128085714D01*
X129457143Y-128133333D01*
X129504762Y-128180952D01*
X129552381Y-128276190D01*
X129552381Y-128371429D01*
X129504762Y-128466667D01*
X129457143Y-128514286D01*
X129361905Y-128561905D01*
X129171429Y-128609524D01*
X128933333Y-128609524D01*
X128742857Y-128561905D01*
X128647619Y-128514286D01*
X128600000Y-128466667D01*
X128552381Y-128371429D01*
X119857143Y-110457143D02*
X119809524Y-110504762D01*
X119666667Y-110552381D01*
X119571429Y-110552381D01*
X119428571Y-110504762D01*
X119333333Y-110409524D01*
X119285714Y-110314286D01*
X119238095Y-110123810D01*
X119238095Y-109980952D01*
X119285714Y-109790476D01*
X119333333Y-109695238D01*
X119428571Y-109600000D01*
X119571429Y-109552381D01*
X119666667Y-109552381D01*
X119809524Y-109600000D01*
X119857143Y-109647619D01*
X120190476Y-109552381D02*
X120809524Y-109552381D01*
X120476190Y-109933333D01*
X120619048Y-109933333D01*
X120714286Y-109980952D01*
X120761905Y-110028571D01*
X120809524Y-110123810D01*
X120809524Y-110361905D01*
X120761905Y-110457143D01*
X120714286Y-110504762D01*
X120619048Y-110552381D01*
X120333333Y-110552381D01*
X120238095Y-110504762D01*
X120190476Y-110457143D01*
X121761905Y-110552381D02*
X121190476Y-110552381D01*
X121476190Y-110552381D02*
X121476190Y-109552381D01*
X121380952Y-109695238D01*
X121285714Y-109790476D01*
X121190476Y-109838095D01*
X119917143Y-116137143D02*
X119869524Y-116184762D01*
X119726667Y-116232381D01*
X119631429Y-116232381D01*
X119488571Y-116184762D01*
X119393333Y-116089524D01*
X119345714Y-115994286D01*
X119298095Y-115803810D01*
X119298095Y-115660952D01*
X119345714Y-115470476D01*
X119393333Y-115375238D01*
X119488571Y-115280000D01*
X119631429Y-115232381D01*
X119726667Y-115232381D01*
X119869524Y-115280000D01*
X119917143Y-115327619D01*
X120250476Y-115232381D02*
X120869524Y-115232381D01*
X120536190Y-115613333D01*
X120679048Y-115613333D01*
X120774286Y-115660952D01*
X120821905Y-115708571D01*
X120869524Y-115803810D01*
X120869524Y-116041905D01*
X120821905Y-116137143D01*
X120774286Y-116184762D01*
X120679048Y-116232381D01*
X120393333Y-116232381D01*
X120298095Y-116184762D01*
X120250476Y-116137143D01*
X121250476Y-115327619D02*
X121298095Y-115280000D01*
X121393333Y-115232381D01*
X121631429Y-115232381D01*
X121726667Y-115280000D01*
X121774286Y-115327619D01*
X121821905Y-115422857D01*
X121821905Y-115518095D01*
X121774286Y-115660952D01*
X121202857Y-116232381D01*
X121821905Y-116232381D01*
X110257143Y-138214285D02*
X110304762Y-138261904D01*
X110352381Y-138404761D01*
X110352381Y-138499999D01*
X110304762Y-138642857D01*
X110209524Y-138738095D01*
X110114286Y-138785714D01*
X109923810Y-138833333D01*
X109780952Y-138833333D01*
X109590476Y-138785714D01*
X109495238Y-138738095D01*
X109400000Y-138642857D01*
X109352381Y-138499999D01*
X109352381Y-138404761D01*
X109400000Y-138261904D01*
X109447619Y-138214285D01*
X109352381Y-137595238D02*
X109352381Y-137404761D01*
X109400000Y-137309523D01*
X109495238Y-137214285D01*
X109685714Y-137166666D01*
X110019048Y-137166666D01*
X110209524Y-137214285D01*
X110304762Y-137309523D01*
X110352381Y-137404761D01*
X110352381Y-137595238D01*
X110304762Y-137690476D01*
X110209524Y-137785714D01*
X110019048Y-137833333D01*
X109685714Y-137833333D01*
X109495238Y-137785714D01*
X109400000Y-137690476D01*
X109352381Y-137595238D01*
X110352381Y-136738095D02*
X109352381Y-136738095D01*
X110352381Y-136166666D01*
X109352381Y-136166666D01*
X110352381Y-135166666D02*
X110352381Y-135738095D01*
X110352381Y-135452381D02*
X109352381Y-135452381D01*
X109495238Y-135547619D01*
X109590476Y-135642857D01*
X109638095Y-135738095D01*
X103761905Y-73152381D02*
X103761905Y-72152381D01*
X104000000Y-72152381D01*
X104142858Y-72200000D01*
X104238096Y-72295238D01*
X104285715Y-72390476D01*
X104333334Y-72580952D01*
X104333334Y-72723810D01*
X104285715Y-72914286D01*
X104238096Y-73009524D01*
X104142858Y-73104762D01*
X104000000Y-73152381D01*
X103761905Y-73152381D01*
X105285715Y-73152381D02*
X104714286Y-73152381D01*
X105000000Y-73152381D02*
X105000000Y-72152381D01*
X104904762Y-72295238D01*
X104809524Y-72390476D01*
X104714286Y-72438095D01*
X116061905Y-87452381D02*
X116061905Y-86452381D01*
X116300000Y-86452381D01*
X116442858Y-86500000D01*
X116538096Y-86595238D01*
X116585715Y-86690476D01*
X116633334Y-86880952D01*
X116633334Y-87023810D01*
X116585715Y-87214286D01*
X116538096Y-87309524D01*
X116442858Y-87404762D01*
X116300000Y-87452381D01*
X116061905Y-87452381D01*
X117014286Y-86547619D02*
X117061905Y-86500000D01*
X117157143Y-86452381D01*
X117395239Y-86452381D01*
X117490477Y-86500000D01*
X117538096Y-86547619D01*
X117585715Y-86642857D01*
X117585715Y-86738095D01*
X117538096Y-86880952D01*
X116966667Y-87452381D01*
X117585715Y-87452381D01*
X39489841Y-60850755D02*
X38489841Y-60850755D01*
X38489841Y-60612660D01*
X38537460Y-60469802D01*
X38632698Y-60374564D01*
X38727936Y-60326945D01*
X38918412Y-60279326D01*
X39061270Y-60279326D01*
X39251746Y-60326945D01*
X39346984Y-60374564D01*
X39442222Y-60469802D01*
X39489841Y-60612660D01*
X39489841Y-60850755D01*
X38489841Y-59945993D02*
X38489841Y-59326945D01*
X38870793Y-59660279D01*
X38870793Y-59517421D01*
X38918412Y-59422183D01*
X38966031Y-59374564D01*
X39061270Y-59326945D01*
X39299365Y-59326945D01*
X39394603Y-59374564D01*
X39442222Y-59422183D01*
X39489841Y-59517421D01*
X39489841Y-59803136D01*
X39442222Y-59898374D01*
X39394603Y-59945993D01*
X29336381Y-67286095D02*
X28336381Y-67286095D01*
X28336381Y-67048000D01*
X28384000Y-66905142D01*
X28479238Y-66809904D01*
X28574476Y-66762285D01*
X28764952Y-66714666D01*
X28907810Y-66714666D01*
X29098286Y-66762285D01*
X29193524Y-66809904D01*
X29288762Y-66905142D01*
X29336381Y-67048000D01*
X29336381Y-67286095D01*
X28669714Y-65857523D02*
X29336381Y-65857523D01*
X28288762Y-66095619D02*
X29003048Y-66333714D01*
X29003048Y-65714666D01*
X146581905Y-63444381D02*
X146581905Y-62444381D01*
X146820000Y-62444381D01*
X146962858Y-62492000D01*
X147058096Y-62587238D01*
X147105715Y-62682476D01*
X147153334Y-62872952D01*
X147153334Y-63015810D01*
X147105715Y-63206286D01*
X147058096Y-63301524D01*
X146962858Y-63396762D01*
X146820000Y-63444381D01*
X146581905Y-63444381D01*
X148058096Y-62444381D02*
X147581905Y-62444381D01*
X147534286Y-62920571D01*
X147581905Y-62872952D01*
X147677143Y-62825333D01*
X147915239Y-62825333D01*
X148010477Y-62872952D01*
X148058096Y-62920571D01*
X148105715Y-63015810D01*
X148105715Y-63253905D01*
X148058096Y-63349143D01*
X148010477Y-63396762D01*
X147915239Y-63444381D01*
X147677143Y-63444381D01*
X147581905Y-63396762D01*
X147534286Y-63349143D01*
X52261905Y-130452381D02*
X52261905Y-129452381D01*
X52500000Y-129452381D01*
X52642858Y-129500000D01*
X52738096Y-129595238D01*
X52785715Y-129690476D01*
X52833334Y-129880952D01*
X52833334Y-130023810D01*
X52785715Y-130214286D01*
X52738096Y-130309524D01*
X52642858Y-130404762D01*
X52500000Y-130452381D01*
X52261905Y-130452381D01*
X53690477Y-129452381D02*
X53500000Y-129452381D01*
X53404762Y-129500000D01*
X53357143Y-129547619D01*
X53261905Y-129690476D01*
X53214286Y-129880952D01*
X53214286Y-130261905D01*
X53261905Y-130357143D01*
X53309524Y-130404762D01*
X53404762Y-130452381D01*
X53595239Y-130452381D01*
X53690477Y-130404762D01*
X53738096Y-130357143D01*
X53785715Y-130261905D01*
X53785715Y-130023810D01*
X53738096Y-129928571D01*
X53690477Y-129880952D01*
X53595239Y-129833333D01*
X53404762Y-129833333D01*
X53309524Y-129880952D01*
X53261905Y-129928571D01*
X53214286Y-130023810D01*
X77761905Y-89902381D02*
X77761905Y-88902381D01*
X78000000Y-88902381D01*
X78142858Y-88950000D01*
X78238096Y-89045238D01*
X78285715Y-89140476D01*
X78333334Y-89330952D01*
X78333334Y-89473810D01*
X78285715Y-89664286D01*
X78238096Y-89759524D01*
X78142858Y-89854762D01*
X78000000Y-89902381D01*
X77761905Y-89902381D01*
X78904762Y-89330952D02*
X78809524Y-89283333D01*
X78761905Y-89235714D01*
X78714286Y-89140476D01*
X78714286Y-89092857D01*
X78761905Y-88997619D01*
X78809524Y-88950000D01*
X78904762Y-88902381D01*
X79095239Y-88902381D01*
X79190477Y-88950000D01*
X79238096Y-88997619D01*
X79285715Y-89092857D01*
X79285715Y-89140476D01*
X79238096Y-89235714D01*
X79190477Y-89283333D01*
X79095239Y-89330952D01*
X78904762Y-89330952D01*
X78809524Y-89378571D01*
X78761905Y-89426190D01*
X78714286Y-89521429D01*
X78714286Y-89711905D01*
X78761905Y-89807143D01*
X78809524Y-89854762D01*
X78904762Y-89902381D01*
X79095239Y-89902381D01*
X79190477Y-89854762D01*
X79238096Y-89807143D01*
X79285715Y-89711905D01*
X79285715Y-89521429D01*
X79238096Y-89426190D01*
X79190477Y-89378571D01*
X79095239Y-89330952D01*
X39861905Y-81052381D02*
X39861905Y-80052381D01*
X40100000Y-80052381D01*
X40242858Y-80100000D01*
X40338096Y-80195238D01*
X40385715Y-80290476D01*
X40433334Y-80480952D01*
X40433334Y-80623810D01*
X40385715Y-80814286D01*
X40338096Y-80909524D01*
X40242858Y-81004762D01*
X40100000Y-81052381D01*
X39861905Y-81052381D01*
X40909524Y-81052381D02*
X41100000Y-81052381D01*
X41195239Y-81004762D01*
X41242858Y-80957143D01*
X41338096Y-80814286D01*
X41385715Y-80623810D01*
X41385715Y-80242857D01*
X41338096Y-80147619D01*
X41290477Y-80100000D01*
X41195239Y-80052381D01*
X41004762Y-80052381D01*
X40909524Y-80100000D01*
X40861905Y-80147619D01*
X40814286Y-80242857D01*
X40814286Y-80480952D01*
X40861905Y-80576190D01*
X40909524Y-80623810D01*
X41004762Y-80671429D01*
X41195239Y-80671429D01*
X41290477Y-80623810D01*
X41338096Y-80576190D01*
X41385715Y-80480952D01*
X39585714Y-93052381D02*
X39585714Y-92052381D01*
X39823809Y-92052381D01*
X39966667Y-92100000D01*
X40061905Y-92195238D01*
X40109524Y-92290476D01*
X40157143Y-92480952D01*
X40157143Y-92623810D01*
X40109524Y-92814286D01*
X40061905Y-92909524D01*
X39966667Y-93004762D01*
X39823809Y-93052381D01*
X39585714Y-93052381D01*
X41109524Y-93052381D02*
X40538095Y-93052381D01*
X40823809Y-93052381D02*
X40823809Y-92052381D01*
X40728571Y-92195238D01*
X40633333Y-92290476D01*
X40538095Y-92338095D01*
X41728571Y-92052381D02*
X41823810Y-92052381D01*
X41919048Y-92100000D01*
X41966667Y-92147619D01*
X42014286Y-92242857D01*
X42061905Y-92433333D01*
X42061905Y-92671429D01*
X42014286Y-92861905D01*
X41966667Y-92957143D01*
X41919048Y-93004762D01*
X41823810Y-93052381D01*
X41728571Y-93052381D01*
X41633333Y-93004762D01*
X41585714Y-92957143D01*
X41538095Y-92861905D01*
X41490476Y-92671429D01*
X41490476Y-92433333D01*
X41538095Y-92242857D01*
X41585714Y-92147619D01*
X41633333Y-92100000D01*
X41728571Y-92052381D01*
X80335714Y-90002381D02*
X80335714Y-89002381D01*
X80573809Y-89002381D01*
X80716667Y-89050000D01*
X80811905Y-89145238D01*
X80859524Y-89240476D01*
X80907143Y-89430952D01*
X80907143Y-89573810D01*
X80859524Y-89764286D01*
X80811905Y-89859524D01*
X80716667Y-89954762D01*
X80573809Y-90002381D01*
X80335714Y-90002381D01*
X81859524Y-90002381D02*
X81288095Y-90002381D01*
X81573809Y-90002381D02*
X81573809Y-89002381D01*
X81478571Y-89145238D01*
X81383333Y-89240476D01*
X81288095Y-89288095D01*
X82811905Y-90002381D02*
X82240476Y-90002381D01*
X82526190Y-90002381D02*
X82526190Y-89002381D01*
X82430952Y-89145238D01*
X82335714Y-89240476D01*
X82240476Y-89288095D01*
X149666667Y-54928571D02*
X149333333Y-54928571D01*
X149333333Y-55452381D02*
X149333333Y-54452381D01*
X149809524Y-54452381D01*
X150714286Y-55452381D02*
X150142857Y-55452381D01*
X150428571Y-55452381D02*
X150428571Y-54452381D01*
X150333333Y-54595238D01*
X150238095Y-54690476D01*
X150142857Y-54738095D01*
X117523810Y-119402381D02*
X117523810Y-118402381D01*
X118571429Y-119307143D02*
X118523810Y-119354762D01*
X118380953Y-119402381D01*
X118285715Y-119402381D01*
X118142857Y-119354762D01*
X118047619Y-119259524D01*
X118000000Y-119164286D01*
X117952381Y-118973810D01*
X117952381Y-118830952D01*
X118000000Y-118640476D01*
X118047619Y-118545238D01*
X118142857Y-118450000D01*
X118285715Y-118402381D01*
X118380953Y-118402381D01*
X118523810Y-118450000D01*
X118571429Y-118497619D01*
X119523810Y-119402381D02*
X118952381Y-119402381D01*
X119238095Y-119402381D02*
X119238095Y-118402381D01*
X119142857Y-118545238D01*
X119047619Y-118640476D01*
X118952381Y-118688095D01*
X70516905Y-102642381D02*
X70516905Y-101642381D01*
X71088334Y-102642381D02*
X70659762Y-102070952D01*
X71088334Y-101642381D02*
X70516905Y-102213810D01*
X72040715Y-102642381D02*
X71469286Y-102642381D01*
X71755000Y-102642381D02*
X71755000Y-101642381D01*
X71659762Y-101785238D01*
X71564524Y-101880476D01*
X71469286Y-101928095D01*
X112333334Y-140452381D02*
X111857143Y-140452381D01*
X111857143Y-139452381D01*
X113190477Y-140452381D02*
X112619048Y-140452381D01*
X112904762Y-140452381D02*
X112904762Y-139452381D01*
X112809524Y-139595238D01*
X112714286Y-139690476D01*
X112619048Y-139738095D01*
X166568381Y-78462095D02*
X165568381Y-78462095D01*
X165568381Y-78081142D01*
X165616000Y-77985904D01*
X165663619Y-77938285D01*
X165758857Y-77890666D01*
X165901714Y-77890666D01*
X165996952Y-77938285D01*
X166044571Y-77985904D01*
X166092190Y-78081142D01*
X166092190Y-78462095D01*
X166568381Y-76938285D02*
X166568381Y-77509714D01*
X166568381Y-77224000D02*
X165568381Y-77224000D01*
X165711238Y-77319238D01*
X165806476Y-77414476D01*
X165854095Y-77509714D01*
X90261905Y-124452381D02*
X90261905Y-123452381D01*
X90642858Y-123452381D01*
X90738096Y-123500000D01*
X90785715Y-123547619D01*
X90833334Y-123642857D01*
X90833334Y-123785714D01*
X90785715Y-123880952D01*
X90738096Y-123928571D01*
X90642858Y-123976190D01*
X90261905Y-123976190D01*
X91214286Y-123547619D02*
X91261905Y-123500000D01*
X91357143Y-123452381D01*
X91595239Y-123452381D01*
X91690477Y-123500000D01*
X91738096Y-123547619D01*
X91785715Y-123642857D01*
X91785715Y-123738095D01*
X91738096Y-123880952D01*
X91166667Y-124452381D01*
X91785715Y-124452381D01*
X99504762Y-83747619D02*
X99409524Y-83700000D01*
X99314286Y-83604762D01*
X99171429Y-83461905D01*
X99076190Y-83414286D01*
X98980952Y-83414286D01*
X99028571Y-83652381D02*
X98933333Y-83604762D01*
X98838095Y-83509524D01*
X98790476Y-83319048D01*
X98790476Y-82985714D01*
X98838095Y-82795238D01*
X98933333Y-82700000D01*
X99028571Y-82652381D01*
X99219048Y-82652381D01*
X99314286Y-82700000D01*
X99409524Y-82795238D01*
X99457143Y-82985714D01*
X99457143Y-83319048D01*
X99409524Y-83509524D01*
X99314286Y-83604762D01*
X99219048Y-83652381D01*
X99028571Y-83652381D01*
X100409524Y-83652381D02*
X99838095Y-83652381D01*
X100123809Y-83652381D02*
X100123809Y-82652381D01*
X100028571Y-82795238D01*
X99933333Y-82890476D01*
X99838095Y-82938095D01*
X30201619Y-70881238D02*
X30154000Y-70976476D01*
X30058762Y-71071714D01*
X29915905Y-71214571D01*
X29868286Y-71309810D01*
X29868286Y-71405048D01*
X30106381Y-71357429D02*
X30058762Y-71452667D01*
X29963524Y-71547905D01*
X29773048Y-71595524D01*
X29439714Y-71595524D01*
X29249238Y-71547905D01*
X29154000Y-71452667D01*
X29106381Y-71357429D01*
X29106381Y-71166952D01*
X29154000Y-71071714D01*
X29249238Y-70976476D01*
X29439714Y-70928857D01*
X29773048Y-70928857D01*
X29963524Y-70976476D01*
X30058762Y-71071714D01*
X30106381Y-71166952D01*
X30106381Y-71357429D01*
X29201619Y-70547905D02*
X29154000Y-70500286D01*
X29106381Y-70405048D01*
X29106381Y-70166952D01*
X29154000Y-70071714D01*
X29201619Y-70024095D01*
X29296857Y-69976476D01*
X29392095Y-69976476D01*
X29534952Y-70024095D01*
X30106381Y-70595524D01*
X30106381Y-69976476D01*
X39528762Y-118149619D02*
X39433524Y-118102000D01*
X39338286Y-118006762D01*
X39195429Y-117863905D01*
X39100190Y-117816286D01*
X39004952Y-117816286D01*
X39052571Y-118054381D02*
X38957333Y-118006762D01*
X38862095Y-117911524D01*
X38814476Y-117721048D01*
X38814476Y-117387714D01*
X38862095Y-117197238D01*
X38957333Y-117102000D01*
X39052571Y-117054381D01*
X39243048Y-117054381D01*
X39338286Y-117102000D01*
X39433524Y-117197238D01*
X39481143Y-117387714D01*
X39481143Y-117721048D01*
X39433524Y-117911524D01*
X39338286Y-118006762D01*
X39243048Y-118054381D01*
X39052571Y-118054381D01*
X39814476Y-117054381D02*
X40433524Y-117054381D01*
X40100190Y-117435333D01*
X40243048Y-117435333D01*
X40338286Y-117482952D01*
X40385905Y-117530571D01*
X40433524Y-117625810D01*
X40433524Y-117863905D01*
X40385905Y-117959143D01*
X40338286Y-118006762D01*
X40243048Y-118054381D01*
X39957333Y-118054381D01*
X39862095Y-118006762D01*
X39814476Y-117959143D01*
X106404762Y-127237619D02*
X106309524Y-127190000D01*
X106214286Y-127094762D01*
X106071429Y-126951905D01*
X105976190Y-126904286D01*
X105880952Y-126904286D01*
X105928571Y-127142381D02*
X105833333Y-127094762D01*
X105738095Y-126999524D01*
X105690476Y-126809048D01*
X105690476Y-126475714D01*
X105738095Y-126285238D01*
X105833333Y-126190000D01*
X105928571Y-126142381D01*
X106119048Y-126142381D01*
X106214286Y-126190000D01*
X106309524Y-126285238D01*
X106357143Y-126475714D01*
X106357143Y-126809048D01*
X106309524Y-126999524D01*
X106214286Y-127094762D01*
X106119048Y-127142381D01*
X105928571Y-127142381D01*
X107214286Y-126475714D02*
X107214286Y-127142381D01*
X106976190Y-126094762D02*
X106738095Y-126809048D01*
X107357143Y-126809048D01*
X29455619Y-85105238D02*
X29408000Y-85200476D01*
X29312762Y-85295714D01*
X29169905Y-85438571D01*
X29122286Y-85533810D01*
X29122286Y-85629048D01*
X29360381Y-85581429D02*
X29312762Y-85676667D01*
X29217524Y-85771905D01*
X29027048Y-85819524D01*
X28693714Y-85819524D01*
X28503238Y-85771905D01*
X28408000Y-85676667D01*
X28360381Y-85581429D01*
X28360381Y-85390952D01*
X28408000Y-85295714D01*
X28503238Y-85200476D01*
X28693714Y-85152857D01*
X29027048Y-85152857D01*
X29217524Y-85200476D01*
X29312762Y-85295714D01*
X29360381Y-85390952D01*
X29360381Y-85581429D01*
X28360381Y-84248095D02*
X28360381Y-84724286D01*
X28836571Y-84771905D01*
X28788952Y-84724286D01*
X28741333Y-84629048D01*
X28741333Y-84390952D01*
X28788952Y-84295714D01*
X28836571Y-84248095D01*
X28931810Y-84200476D01*
X29169905Y-84200476D01*
X29265143Y-84248095D01*
X29312762Y-84295714D01*
X29360381Y-84390952D01*
X29360381Y-84629048D01*
X29312762Y-84724286D01*
X29265143Y-84771905D01*
X29455619Y-96281238D02*
X29408000Y-96376476D01*
X29312762Y-96471714D01*
X29169905Y-96614571D01*
X29122286Y-96709810D01*
X29122286Y-96805048D01*
X29360381Y-96757429D02*
X29312762Y-96852667D01*
X29217524Y-96947905D01*
X29027048Y-96995524D01*
X28693714Y-96995524D01*
X28503238Y-96947905D01*
X28408000Y-96852667D01*
X28360381Y-96757429D01*
X28360381Y-96566952D01*
X28408000Y-96471714D01*
X28503238Y-96376476D01*
X28693714Y-96328857D01*
X29027048Y-96328857D01*
X29217524Y-96376476D01*
X29312762Y-96471714D01*
X29360381Y-96566952D01*
X29360381Y-96757429D01*
X28360381Y-95471714D02*
X28360381Y-95662191D01*
X28408000Y-95757429D01*
X28455619Y-95805048D01*
X28598476Y-95900286D01*
X28788952Y-95947905D01*
X29169905Y-95947905D01*
X29265143Y-95900286D01*
X29312762Y-95852667D01*
X29360381Y-95757429D01*
X29360381Y-95566952D01*
X29312762Y-95471714D01*
X29265143Y-95424095D01*
X29169905Y-95376476D01*
X28931810Y-95376476D01*
X28836571Y-95424095D01*
X28788952Y-95471714D01*
X28741333Y-95566952D01*
X28741333Y-95757429D01*
X28788952Y-95852667D01*
X28836571Y-95900286D01*
X28931810Y-95947905D01*
X48204762Y-90147619D02*
X48109524Y-90100000D01*
X48014286Y-90004762D01*
X47871429Y-89861905D01*
X47776190Y-89814286D01*
X47680952Y-89814286D01*
X47728571Y-90052381D02*
X47633333Y-90004762D01*
X47538095Y-89909524D01*
X47490476Y-89719048D01*
X47490476Y-89385714D01*
X47538095Y-89195238D01*
X47633333Y-89100000D01*
X47728571Y-89052381D01*
X47919048Y-89052381D01*
X48014286Y-89100000D01*
X48109524Y-89195238D01*
X48157143Y-89385714D01*
X48157143Y-89719048D01*
X48109524Y-89909524D01*
X48014286Y-90004762D01*
X47919048Y-90052381D01*
X47728571Y-90052381D01*
X48490476Y-89052381D02*
X49157143Y-89052381D01*
X48728571Y-90052381D01*
X137333334Y-80952381D02*
X137000000Y-80476190D01*
X136761905Y-80952381D02*
X136761905Y-79952381D01*
X137142858Y-79952381D01*
X137238096Y-80000000D01*
X137285715Y-80047619D01*
X137333334Y-80142857D01*
X137333334Y-80285714D01*
X137285715Y-80380952D01*
X137238096Y-80428571D01*
X137142858Y-80476190D01*
X136761905Y-80476190D01*
X138285715Y-80952381D02*
X137714286Y-80952381D01*
X138000000Y-80952381D02*
X138000000Y-79952381D01*
X137904762Y-80095238D01*
X137809524Y-80190476D01*
X137714286Y-80238095D01*
X124733334Y-106302381D02*
X124400000Y-105826190D01*
X124161905Y-106302381D02*
X124161905Y-105302381D01*
X124542858Y-105302381D01*
X124638096Y-105350000D01*
X124685715Y-105397619D01*
X124733334Y-105492857D01*
X124733334Y-105635714D01*
X124685715Y-105730952D01*
X124638096Y-105778571D01*
X124542858Y-105826190D01*
X124161905Y-105826190D01*
X125114286Y-105397619D02*
X125161905Y-105350000D01*
X125257143Y-105302381D01*
X125495239Y-105302381D01*
X125590477Y-105350000D01*
X125638096Y-105397619D01*
X125685715Y-105492857D01*
X125685715Y-105588095D01*
X125638096Y-105730952D01*
X125066667Y-106302381D01*
X125685715Y-106302381D01*
X137333334Y-83452381D02*
X137000000Y-82976190D01*
X136761905Y-83452381D02*
X136761905Y-82452381D01*
X137142858Y-82452381D01*
X137238096Y-82500000D01*
X137285715Y-82547619D01*
X137333334Y-82642857D01*
X137333334Y-82785714D01*
X137285715Y-82880952D01*
X137238096Y-82928571D01*
X137142858Y-82976190D01*
X136761905Y-82976190D01*
X137666667Y-82452381D02*
X138285715Y-82452381D01*
X137952381Y-82833333D01*
X138095239Y-82833333D01*
X138190477Y-82880952D01*
X138238096Y-82928571D01*
X138285715Y-83023810D01*
X138285715Y-83261905D01*
X138238096Y-83357143D01*
X138190477Y-83404762D01*
X138095239Y-83452381D01*
X137809524Y-83452381D01*
X137714286Y-83404762D01*
X137666667Y-83357143D01*
X137333334Y-85952381D02*
X137000000Y-85476190D01*
X136761905Y-85952381D02*
X136761905Y-84952381D01*
X137142858Y-84952381D01*
X137238096Y-85000000D01*
X137285715Y-85047619D01*
X137333334Y-85142857D01*
X137333334Y-85285714D01*
X137285715Y-85380952D01*
X137238096Y-85428571D01*
X137142858Y-85476190D01*
X136761905Y-85476190D01*
X138190477Y-85285714D02*
X138190477Y-85952381D01*
X137952381Y-84904762D02*
X137714286Y-85619048D01*
X138333334Y-85619048D01*
X126552381Y-135666666D02*
X126076190Y-136000000D01*
X126552381Y-136238095D02*
X125552381Y-136238095D01*
X125552381Y-135857142D01*
X125600000Y-135761904D01*
X125647619Y-135714285D01*
X125742857Y-135666666D01*
X125885714Y-135666666D01*
X125980952Y-135714285D01*
X126028571Y-135761904D01*
X126076190Y-135857142D01*
X126076190Y-136238095D01*
X125552381Y-134761904D02*
X125552381Y-135238095D01*
X126028571Y-135285714D01*
X125980952Y-135238095D01*
X125933333Y-135142857D01*
X125933333Y-134904761D01*
X125980952Y-134809523D01*
X126028571Y-134761904D01*
X126123810Y-134714285D01*
X126361905Y-134714285D01*
X126457143Y-134761904D01*
X126504762Y-134809523D01*
X126552381Y-134904761D01*
X126552381Y-135142857D01*
X126504762Y-135238095D01*
X126457143Y-135285714D01*
X129833334Y-98952381D02*
X129500000Y-98476190D01*
X129261905Y-98952381D02*
X129261905Y-97952381D01*
X129642858Y-97952381D01*
X129738096Y-98000000D01*
X129785715Y-98047619D01*
X129833334Y-98142857D01*
X129833334Y-98285714D01*
X129785715Y-98380952D01*
X129738096Y-98428571D01*
X129642858Y-98476190D01*
X129261905Y-98476190D01*
X130690477Y-97952381D02*
X130500000Y-97952381D01*
X130404762Y-98000000D01*
X130357143Y-98047619D01*
X130261905Y-98190476D01*
X130214286Y-98380952D01*
X130214286Y-98761905D01*
X130261905Y-98857143D01*
X130309524Y-98904762D01*
X130404762Y-98952381D01*
X130595239Y-98952381D01*
X130690477Y-98904762D01*
X130738096Y-98857143D01*
X130785715Y-98761905D01*
X130785715Y-98523810D01*
X130738096Y-98428571D01*
X130690477Y-98380952D01*
X130595239Y-98333333D01*
X130404762Y-98333333D01*
X130309524Y-98380952D01*
X130261905Y-98428571D01*
X130214286Y-98523810D01*
X127833334Y-93952381D02*
X127500000Y-93476190D01*
X127261905Y-93952381D02*
X127261905Y-92952381D01*
X127642858Y-92952381D01*
X127738096Y-93000000D01*
X127785715Y-93047619D01*
X127833334Y-93142857D01*
X127833334Y-93285714D01*
X127785715Y-93380952D01*
X127738096Y-93428571D01*
X127642858Y-93476190D01*
X127261905Y-93476190D01*
X128166667Y-92952381D02*
X128833334Y-92952381D01*
X128404762Y-93952381D01*
X148902381Y-129916666D02*
X148426190Y-130250000D01*
X148902381Y-130488095D02*
X147902381Y-130488095D01*
X147902381Y-130107142D01*
X147950000Y-130011904D01*
X147997619Y-129964285D01*
X148092857Y-129916666D01*
X148235714Y-129916666D01*
X148330952Y-129964285D01*
X148378571Y-130011904D01*
X148426190Y-130107142D01*
X148426190Y-130488095D01*
X148330952Y-129345238D02*
X148283333Y-129440476D01*
X148235714Y-129488095D01*
X148140476Y-129535714D01*
X148092857Y-129535714D01*
X147997619Y-129488095D01*
X147950000Y-129440476D01*
X147902381Y-129345238D01*
X147902381Y-129154761D01*
X147950000Y-129059523D01*
X147997619Y-129011904D01*
X148092857Y-128964285D01*
X148140476Y-128964285D01*
X148235714Y-129011904D01*
X148283333Y-129059523D01*
X148330952Y-129154761D01*
X148330952Y-129345238D01*
X148378571Y-129440476D01*
X148426190Y-129488095D01*
X148521429Y-129535714D01*
X148711905Y-129535714D01*
X148807143Y-129488095D01*
X148854762Y-129440476D01*
X148902381Y-129345238D01*
X148902381Y-129154761D01*
X148854762Y-129059523D01*
X148807143Y-129011904D01*
X148711905Y-128964285D01*
X148521429Y-128964285D01*
X148426190Y-129011904D01*
X148378571Y-129059523D01*
X148330952Y-129154761D01*
X127693334Y-82136381D02*
X127360000Y-81660190D01*
X127121905Y-82136381D02*
X127121905Y-81136381D01*
X127502858Y-81136381D01*
X127598096Y-81184000D01*
X127645715Y-81231619D01*
X127693334Y-81326857D01*
X127693334Y-81469714D01*
X127645715Y-81564952D01*
X127598096Y-81612571D01*
X127502858Y-81660190D01*
X127121905Y-81660190D01*
X128169524Y-82136381D02*
X128360000Y-82136381D01*
X128455239Y-82088762D01*
X128502858Y-82041143D01*
X128598096Y-81898286D01*
X128645715Y-81707810D01*
X128645715Y-81326857D01*
X128598096Y-81231619D01*
X128550477Y-81184000D01*
X128455239Y-81136381D01*
X128264762Y-81136381D01*
X128169524Y-81184000D01*
X128121905Y-81231619D01*
X128074286Y-81326857D01*
X128074286Y-81564952D01*
X128121905Y-81660190D01*
X128169524Y-81707810D01*
X128264762Y-81755429D01*
X128455239Y-81755429D01*
X128550477Y-81707810D01*
X128598096Y-81660190D01*
X128645715Y-81564952D01*
X103357143Y-67652381D02*
X103023809Y-67176190D01*
X102785714Y-67652381D02*
X102785714Y-66652381D01*
X103166667Y-66652381D01*
X103261905Y-66700000D01*
X103309524Y-66747619D01*
X103357143Y-66842857D01*
X103357143Y-66985714D01*
X103309524Y-67080952D01*
X103261905Y-67128571D01*
X103166667Y-67176190D01*
X102785714Y-67176190D01*
X104309524Y-67652381D02*
X103738095Y-67652381D01*
X104023809Y-67652381D02*
X104023809Y-66652381D01*
X103928571Y-66795238D01*
X103833333Y-66890476D01*
X103738095Y-66938095D01*
X104928571Y-66652381D02*
X105023810Y-66652381D01*
X105119048Y-66700000D01*
X105166667Y-66747619D01*
X105214286Y-66842857D01*
X105261905Y-67033333D01*
X105261905Y-67271429D01*
X105214286Y-67461905D01*
X105166667Y-67557143D01*
X105119048Y-67604762D01*
X105023810Y-67652381D01*
X104928571Y-67652381D01*
X104833333Y-67604762D01*
X104785714Y-67557143D01*
X104738095Y-67461905D01*
X104690476Y-67271429D01*
X104690476Y-67033333D01*
X104738095Y-66842857D01*
X104785714Y-66747619D01*
X104833333Y-66700000D01*
X104928571Y-66652381D01*
X103757143Y-84852381D02*
X103423809Y-84376190D01*
X103185714Y-84852381D02*
X103185714Y-83852381D01*
X103566667Y-83852381D01*
X103661905Y-83900000D01*
X103709524Y-83947619D01*
X103757143Y-84042857D01*
X103757143Y-84185714D01*
X103709524Y-84280952D01*
X103661905Y-84328571D01*
X103566667Y-84376190D01*
X103185714Y-84376190D01*
X104709524Y-84852381D02*
X104138095Y-84852381D01*
X104423809Y-84852381D02*
X104423809Y-83852381D01*
X104328571Y-83995238D01*
X104233333Y-84090476D01*
X104138095Y-84138095D01*
X105661905Y-84852381D02*
X105090476Y-84852381D01*
X105376190Y-84852381D02*
X105376190Y-83852381D01*
X105280952Y-83995238D01*
X105185714Y-84090476D01*
X105090476Y-84138095D01*
X127817143Y-79292381D02*
X127483809Y-78816190D01*
X127245714Y-79292381D02*
X127245714Y-78292381D01*
X127626667Y-78292381D01*
X127721905Y-78340000D01*
X127769524Y-78387619D01*
X127817143Y-78482857D01*
X127817143Y-78625714D01*
X127769524Y-78720952D01*
X127721905Y-78768571D01*
X127626667Y-78816190D01*
X127245714Y-78816190D01*
X128769524Y-79292381D02*
X128198095Y-79292381D01*
X128483809Y-79292381D02*
X128483809Y-78292381D01*
X128388571Y-78435238D01*
X128293333Y-78530476D01*
X128198095Y-78578095D01*
X129150476Y-78387619D02*
X129198095Y-78340000D01*
X129293333Y-78292381D01*
X129531429Y-78292381D01*
X129626667Y-78340000D01*
X129674286Y-78387619D01*
X129721905Y-78482857D01*
X129721905Y-78578095D01*
X129674286Y-78720952D01*
X129102857Y-79292381D01*
X129721905Y-79292381D01*
X127757143Y-67252381D02*
X127423809Y-66776190D01*
X127185714Y-67252381D02*
X127185714Y-66252381D01*
X127566667Y-66252381D01*
X127661905Y-66300000D01*
X127709524Y-66347619D01*
X127757143Y-66442857D01*
X127757143Y-66585714D01*
X127709524Y-66680952D01*
X127661905Y-66728571D01*
X127566667Y-66776190D01*
X127185714Y-66776190D01*
X128709524Y-67252381D02*
X128138095Y-67252381D01*
X128423809Y-67252381D02*
X128423809Y-66252381D01*
X128328571Y-66395238D01*
X128233333Y-66490476D01*
X128138095Y-66538095D01*
X129042857Y-66252381D02*
X129661905Y-66252381D01*
X129328571Y-66633333D01*
X129471429Y-66633333D01*
X129566667Y-66680952D01*
X129614286Y-66728571D01*
X129661905Y-66823810D01*
X129661905Y-67061905D01*
X129614286Y-67157143D01*
X129566667Y-67204762D01*
X129471429Y-67252381D01*
X129185714Y-67252381D01*
X129090476Y-67204762D01*
X129042857Y-67157143D01*
X127557143Y-74352381D02*
X127223809Y-73876190D01*
X126985714Y-74352381D02*
X126985714Y-73352381D01*
X127366667Y-73352381D01*
X127461905Y-73400000D01*
X127509524Y-73447619D01*
X127557143Y-73542857D01*
X127557143Y-73685714D01*
X127509524Y-73780952D01*
X127461905Y-73828571D01*
X127366667Y-73876190D01*
X126985714Y-73876190D01*
X128509524Y-74352381D02*
X127938095Y-74352381D01*
X128223809Y-74352381D02*
X128223809Y-73352381D01*
X128128571Y-73495238D01*
X128033333Y-73590476D01*
X127938095Y-73638095D01*
X129366667Y-73685714D02*
X129366667Y-74352381D01*
X129128571Y-73304762D02*
X128890476Y-74019048D01*
X129509524Y-74019048D01*
X103757143Y-88052381D02*
X103423809Y-87576190D01*
X103185714Y-88052381D02*
X103185714Y-87052381D01*
X103566667Y-87052381D01*
X103661905Y-87100000D01*
X103709524Y-87147619D01*
X103757143Y-87242857D01*
X103757143Y-87385714D01*
X103709524Y-87480952D01*
X103661905Y-87528571D01*
X103566667Y-87576190D01*
X103185714Y-87576190D01*
X104709524Y-88052381D02*
X104138095Y-88052381D01*
X104423809Y-88052381D02*
X104423809Y-87052381D01*
X104328571Y-87195238D01*
X104233333Y-87290476D01*
X104138095Y-87338095D01*
X105614286Y-87052381D02*
X105138095Y-87052381D01*
X105090476Y-87528571D01*
X105138095Y-87480952D01*
X105233333Y-87433333D01*
X105471429Y-87433333D01*
X105566667Y-87480952D01*
X105614286Y-87528571D01*
X105661905Y-87623810D01*
X105661905Y-87861905D01*
X105614286Y-87957143D01*
X105566667Y-88004762D01*
X105471429Y-88052381D01*
X105233333Y-88052381D01*
X105138095Y-88004762D01*
X105090476Y-87957143D01*
X160452381Y-78642857D02*
X159976190Y-78976191D01*
X160452381Y-79214286D02*
X159452381Y-79214286D01*
X159452381Y-78833333D01*
X159500000Y-78738095D01*
X159547619Y-78690476D01*
X159642857Y-78642857D01*
X159785714Y-78642857D01*
X159880952Y-78690476D01*
X159928571Y-78738095D01*
X159976190Y-78833333D01*
X159976190Y-79214286D01*
X160452381Y-77690476D02*
X160452381Y-78261905D01*
X160452381Y-77976191D02*
X159452381Y-77976191D01*
X159595238Y-78071429D01*
X159690476Y-78166667D01*
X159738095Y-78261905D01*
X159452381Y-76833333D02*
X159452381Y-77023810D01*
X159500000Y-77119048D01*
X159547619Y-77166667D01*
X159690476Y-77261905D01*
X159880952Y-77309524D01*
X160261905Y-77309524D01*
X160357143Y-77261905D01*
X160404762Y-77214286D01*
X160452381Y-77119048D01*
X160452381Y-76928571D01*
X160404762Y-76833333D01*
X160357143Y-76785714D01*
X160261905Y-76738095D01*
X160023810Y-76738095D01*
X159928571Y-76785714D01*
X159880952Y-76833333D01*
X159833333Y-76928571D01*
X159833333Y-77119048D01*
X159880952Y-77214286D01*
X159928571Y-77261905D01*
X160023810Y-77309524D01*
X127657143Y-69952381D02*
X127323809Y-69476190D01*
X127085714Y-69952381D02*
X127085714Y-68952381D01*
X127466667Y-68952381D01*
X127561905Y-69000000D01*
X127609524Y-69047619D01*
X127657143Y-69142857D01*
X127657143Y-69285714D01*
X127609524Y-69380952D01*
X127561905Y-69428571D01*
X127466667Y-69476190D01*
X127085714Y-69476190D01*
X128609524Y-69952381D02*
X128038095Y-69952381D01*
X128323809Y-69952381D02*
X128323809Y-68952381D01*
X128228571Y-69095238D01*
X128133333Y-69190476D01*
X128038095Y-69238095D01*
X128942857Y-68952381D02*
X129609524Y-68952381D01*
X129180952Y-69952381D01*
X103457143Y-75752381D02*
X103123809Y-75276190D01*
X102885714Y-75752381D02*
X102885714Y-74752381D01*
X103266667Y-74752381D01*
X103361905Y-74800000D01*
X103409524Y-74847619D01*
X103457143Y-74942857D01*
X103457143Y-75085714D01*
X103409524Y-75180952D01*
X103361905Y-75228571D01*
X103266667Y-75276190D01*
X102885714Y-75276190D01*
X104409524Y-75752381D02*
X103838095Y-75752381D01*
X104123809Y-75752381D02*
X104123809Y-74752381D01*
X104028571Y-74895238D01*
X103933333Y-74990476D01*
X103838095Y-75038095D01*
X104980952Y-75180952D02*
X104885714Y-75133333D01*
X104838095Y-75085714D01*
X104790476Y-74990476D01*
X104790476Y-74942857D01*
X104838095Y-74847619D01*
X104885714Y-74800000D01*
X104980952Y-74752381D01*
X105171429Y-74752381D01*
X105266667Y-74800000D01*
X105314286Y-74847619D01*
X105361905Y-74942857D01*
X105361905Y-74990476D01*
X105314286Y-75085714D01*
X105266667Y-75133333D01*
X105171429Y-75180952D01*
X104980952Y-75180952D01*
X104885714Y-75228571D01*
X104838095Y-75276190D01*
X104790476Y-75371429D01*
X104790476Y-75561905D01*
X104838095Y-75657143D01*
X104885714Y-75704762D01*
X104980952Y-75752381D01*
X105171429Y-75752381D01*
X105266667Y-75704762D01*
X105314286Y-75657143D01*
X105361905Y-75561905D01*
X105361905Y-75371429D01*
X105314286Y-75276190D01*
X105266667Y-75228571D01*
X105171429Y-75180952D01*
X127627143Y-76652381D02*
X127293809Y-76176190D01*
X127055714Y-76652381D02*
X127055714Y-75652381D01*
X127436667Y-75652381D01*
X127531905Y-75700000D01*
X127579524Y-75747619D01*
X127627143Y-75842857D01*
X127627143Y-75985714D01*
X127579524Y-76080952D01*
X127531905Y-76128571D01*
X127436667Y-76176190D01*
X127055714Y-76176190D01*
X128579524Y-76652381D02*
X128008095Y-76652381D01*
X128293809Y-76652381D02*
X128293809Y-75652381D01*
X128198571Y-75795238D01*
X128103333Y-75890476D01*
X128008095Y-75938095D01*
X129055714Y-76652381D02*
X129246190Y-76652381D01*
X129341429Y-76604762D01*
X129389048Y-76557143D01*
X129484286Y-76414286D01*
X129531905Y-76223810D01*
X129531905Y-75842857D01*
X129484286Y-75747619D01*
X129436667Y-75700000D01*
X129341429Y-75652381D01*
X129150952Y-75652381D01*
X129055714Y-75700000D01*
X129008095Y-75747619D01*
X128960476Y-75842857D01*
X128960476Y-76080952D01*
X129008095Y-76176190D01*
X129055714Y-76223810D01*
X129150952Y-76271429D01*
X129341429Y-76271429D01*
X129436667Y-76223810D01*
X129484286Y-76176190D01*
X129531905Y-76080952D01*
X160452381Y-61642857D02*
X159976190Y-61976191D01*
X160452381Y-62214286D02*
X159452381Y-62214286D01*
X159452381Y-61833333D01*
X159500000Y-61738095D01*
X159547619Y-61690476D01*
X159642857Y-61642857D01*
X159785714Y-61642857D01*
X159880952Y-61690476D01*
X159928571Y-61738095D01*
X159976190Y-61833333D01*
X159976190Y-62214286D01*
X159547619Y-61261905D02*
X159500000Y-61214286D01*
X159452381Y-61119048D01*
X159452381Y-60880952D01*
X159500000Y-60785714D01*
X159547619Y-60738095D01*
X159642857Y-60690476D01*
X159738095Y-60690476D01*
X159880952Y-60738095D01*
X160452381Y-61309524D01*
X160452381Y-60690476D01*
X159452381Y-60071429D02*
X159452381Y-59976190D01*
X159500000Y-59880952D01*
X159547619Y-59833333D01*
X159642857Y-59785714D01*
X159833333Y-59738095D01*
X160071429Y-59738095D01*
X160261905Y-59785714D01*
X160357143Y-59833333D01*
X160404762Y-59880952D01*
X160452381Y-59976190D01*
X160452381Y-60071429D01*
X160404762Y-60166667D01*
X160357143Y-60214286D01*
X160261905Y-60261905D01*
X160071429Y-60309524D01*
X159833333Y-60309524D01*
X159642857Y-60261905D01*
X159547619Y-60214286D01*
X159500000Y-60166667D01*
X159452381Y-60071429D01*
X127717143Y-85034381D02*
X127383809Y-84558190D01*
X127145714Y-85034381D02*
X127145714Y-84034381D01*
X127526667Y-84034381D01*
X127621905Y-84082000D01*
X127669524Y-84129619D01*
X127717143Y-84224857D01*
X127717143Y-84367714D01*
X127669524Y-84462952D01*
X127621905Y-84510571D01*
X127526667Y-84558190D01*
X127145714Y-84558190D01*
X128098095Y-84129619D02*
X128145714Y-84082000D01*
X128240952Y-84034381D01*
X128479048Y-84034381D01*
X128574286Y-84082000D01*
X128621905Y-84129619D01*
X128669524Y-84224857D01*
X128669524Y-84320095D01*
X128621905Y-84462952D01*
X128050476Y-85034381D01*
X128669524Y-85034381D01*
X129621905Y-85034381D02*
X129050476Y-85034381D01*
X129336190Y-85034381D02*
X129336190Y-84034381D01*
X129240952Y-84177238D01*
X129145714Y-84272476D01*
X129050476Y-84320095D01*
X118157143Y-81452381D02*
X117823809Y-80976190D01*
X117585714Y-81452381D02*
X117585714Y-80452381D01*
X117966667Y-80452381D01*
X118061905Y-80500000D01*
X118109524Y-80547619D01*
X118157143Y-80642857D01*
X118157143Y-80785714D01*
X118109524Y-80880952D01*
X118061905Y-80928571D01*
X117966667Y-80976190D01*
X117585714Y-80976190D01*
X118538095Y-80547619D02*
X118585714Y-80500000D01*
X118680952Y-80452381D01*
X118919048Y-80452381D01*
X119014286Y-80500000D01*
X119061905Y-80547619D01*
X119109524Y-80642857D01*
X119109524Y-80738095D01*
X119061905Y-80880952D01*
X118490476Y-81452381D01*
X119109524Y-81452381D01*
X119490476Y-80547619D02*
X119538095Y-80500000D01*
X119633333Y-80452381D01*
X119871429Y-80452381D01*
X119966667Y-80500000D01*
X120014286Y-80547619D01*
X120061905Y-80642857D01*
X120061905Y-80738095D01*
X120014286Y-80880952D01*
X119442857Y-81452381D01*
X120061905Y-81452381D01*
X136009143Y-62614381D02*
X135675809Y-62138190D01*
X135437714Y-62614381D02*
X135437714Y-61614381D01*
X135818667Y-61614381D01*
X135913905Y-61662000D01*
X135961524Y-61709619D01*
X136009143Y-61804857D01*
X136009143Y-61947714D01*
X135961524Y-62042952D01*
X135913905Y-62090571D01*
X135818667Y-62138190D01*
X135437714Y-62138190D01*
X136390095Y-61709619D02*
X136437714Y-61662000D01*
X136532952Y-61614381D01*
X136771048Y-61614381D01*
X136866286Y-61662000D01*
X136913905Y-61709619D01*
X136961524Y-61804857D01*
X136961524Y-61900095D01*
X136913905Y-62042952D01*
X136342476Y-62614381D01*
X136961524Y-62614381D01*
X137818667Y-61947714D02*
X137818667Y-62614381D01*
X137580571Y-61566762D02*
X137342476Y-62281048D01*
X137961524Y-62281048D01*
X140835143Y-76652381D02*
X140501809Y-76176190D01*
X140263714Y-76652381D02*
X140263714Y-75652381D01*
X140644667Y-75652381D01*
X140739905Y-75700000D01*
X140787524Y-75747619D01*
X140835143Y-75842857D01*
X140835143Y-75985714D01*
X140787524Y-76080952D01*
X140739905Y-76128571D01*
X140644667Y-76176190D01*
X140263714Y-76176190D01*
X141216095Y-75747619D02*
X141263714Y-75700000D01*
X141358952Y-75652381D01*
X141597048Y-75652381D01*
X141692286Y-75700000D01*
X141739905Y-75747619D01*
X141787524Y-75842857D01*
X141787524Y-75938095D01*
X141739905Y-76080952D01*
X141168476Y-76652381D01*
X141787524Y-76652381D01*
X142692286Y-75652381D02*
X142216095Y-75652381D01*
X142168476Y-76128571D01*
X142216095Y-76080952D01*
X142311333Y-76033333D01*
X142549429Y-76033333D01*
X142644667Y-76080952D01*
X142692286Y-76128571D01*
X142739905Y-76223810D01*
X142739905Y-76461905D01*
X142692286Y-76557143D01*
X142644667Y-76604762D01*
X142549429Y-76652381D01*
X142311333Y-76652381D01*
X142216095Y-76604762D01*
X142168476Y-76557143D01*
X147185143Y-66238381D02*
X146851809Y-65762190D01*
X146613714Y-66238381D02*
X146613714Y-65238381D01*
X146994667Y-65238381D01*
X147089905Y-65286000D01*
X147137524Y-65333619D01*
X147185143Y-65428857D01*
X147185143Y-65571714D01*
X147137524Y-65666952D01*
X147089905Y-65714571D01*
X146994667Y-65762190D01*
X146613714Y-65762190D01*
X147566095Y-65333619D02*
X147613714Y-65286000D01*
X147708952Y-65238381D01*
X147947048Y-65238381D01*
X148042286Y-65286000D01*
X148089905Y-65333619D01*
X148137524Y-65428857D01*
X148137524Y-65524095D01*
X148089905Y-65666952D01*
X147518476Y-66238381D01*
X148137524Y-66238381D01*
X148994667Y-65238381D02*
X148804190Y-65238381D01*
X148708952Y-65286000D01*
X148661333Y-65333619D01*
X148566095Y-65476476D01*
X148518476Y-65666952D01*
X148518476Y-66047905D01*
X148566095Y-66143143D01*
X148613714Y-66190762D01*
X148708952Y-66238381D01*
X148899429Y-66238381D01*
X148994667Y-66190762D01*
X149042286Y-66143143D01*
X149089905Y-66047905D01*
X149089905Y-65809810D01*
X149042286Y-65714571D01*
X148994667Y-65666952D01*
X148899429Y-65619333D01*
X148708952Y-65619333D01*
X148613714Y-65666952D01*
X148566095Y-65714571D01*
X148518476Y-65809810D01*
X34409143Y-127452381D02*
X34075809Y-126976190D01*
X33837714Y-127452381D02*
X33837714Y-126452381D01*
X34218667Y-126452381D01*
X34313905Y-126500000D01*
X34361524Y-126547619D01*
X34409143Y-126642857D01*
X34409143Y-126785714D01*
X34361524Y-126880952D01*
X34313905Y-126928571D01*
X34218667Y-126976190D01*
X33837714Y-126976190D01*
X34790095Y-126547619D02*
X34837714Y-126500000D01*
X34932952Y-126452381D01*
X35171048Y-126452381D01*
X35266286Y-126500000D01*
X35313905Y-126547619D01*
X35361524Y-126642857D01*
X35361524Y-126738095D01*
X35313905Y-126880952D01*
X34742476Y-127452381D01*
X35361524Y-127452381D01*
X35694857Y-126452381D02*
X36361524Y-126452381D01*
X35932952Y-127452381D01*
X34357143Y-130952381D02*
X34023809Y-130476190D01*
X33785714Y-130952381D02*
X33785714Y-129952381D01*
X34166667Y-129952381D01*
X34261905Y-130000000D01*
X34309524Y-130047619D01*
X34357143Y-130142857D01*
X34357143Y-130285714D01*
X34309524Y-130380952D01*
X34261905Y-130428571D01*
X34166667Y-130476190D01*
X33785714Y-130476190D01*
X34738095Y-130047619D02*
X34785714Y-130000000D01*
X34880952Y-129952381D01*
X35119048Y-129952381D01*
X35214286Y-130000000D01*
X35261905Y-130047619D01*
X35309524Y-130142857D01*
X35309524Y-130238095D01*
X35261905Y-130380952D01*
X34690476Y-130952381D01*
X35309524Y-130952381D01*
X35880952Y-130380952D02*
X35785714Y-130333333D01*
X35738095Y-130285714D01*
X35690476Y-130190476D01*
X35690476Y-130142857D01*
X35738095Y-130047619D01*
X35785714Y-130000000D01*
X35880952Y-129952381D01*
X36071429Y-129952381D01*
X36166667Y-130000000D01*
X36214286Y-130047619D01*
X36261905Y-130142857D01*
X36261905Y-130190476D01*
X36214286Y-130285714D01*
X36166667Y-130333333D01*
X36071429Y-130380952D01*
X35880952Y-130380952D01*
X35785714Y-130428571D01*
X35738095Y-130476190D01*
X35690476Y-130571429D01*
X35690476Y-130761905D01*
X35738095Y-130857143D01*
X35785714Y-130904762D01*
X35880952Y-130952381D01*
X36071429Y-130952381D01*
X36166667Y-130904762D01*
X36214286Y-130857143D01*
X36261905Y-130761905D01*
X36261905Y-130571429D01*
X36214286Y-130476190D01*
X36166667Y-130428571D01*
X36071429Y-130380952D01*
X34663143Y-121610381D02*
X34329809Y-121134190D01*
X34091714Y-121610381D02*
X34091714Y-120610381D01*
X34472667Y-120610381D01*
X34567905Y-120658000D01*
X34615524Y-120705619D01*
X34663143Y-120800857D01*
X34663143Y-120943714D01*
X34615524Y-121038952D01*
X34567905Y-121086571D01*
X34472667Y-121134190D01*
X34091714Y-121134190D01*
X35044095Y-120705619D02*
X35091714Y-120658000D01*
X35186952Y-120610381D01*
X35425048Y-120610381D01*
X35520286Y-120658000D01*
X35567905Y-120705619D01*
X35615524Y-120800857D01*
X35615524Y-120896095D01*
X35567905Y-121038952D01*
X34996476Y-121610381D01*
X35615524Y-121610381D01*
X36091714Y-121610381D02*
X36282190Y-121610381D01*
X36377429Y-121562762D01*
X36425048Y-121515143D01*
X36520286Y-121372286D01*
X36567905Y-121181810D01*
X36567905Y-120800857D01*
X36520286Y-120705619D01*
X36472667Y-120658000D01*
X36377429Y-120610381D01*
X36186952Y-120610381D01*
X36091714Y-120658000D01*
X36044095Y-120705619D01*
X35996476Y-120800857D01*
X35996476Y-121038952D01*
X36044095Y-121134190D01*
X36091714Y-121181810D01*
X36186952Y-121229429D01*
X36377429Y-121229429D01*
X36472667Y-121181810D01*
X36520286Y-121134190D01*
X36567905Y-121038952D01*
X34357143Y-132952381D02*
X34023809Y-132476190D01*
X33785714Y-132952381D02*
X33785714Y-131952381D01*
X34166667Y-131952381D01*
X34261905Y-132000000D01*
X34309524Y-132047619D01*
X34357143Y-132142857D01*
X34357143Y-132285714D01*
X34309524Y-132380952D01*
X34261905Y-132428571D01*
X34166667Y-132476190D01*
X33785714Y-132476190D01*
X34690476Y-131952381D02*
X35309524Y-131952381D01*
X34976190Y-132333333D01*
X35119048Y-132333333D01*
X35214286Y-132380952D01*
X35261905Y-132428571D01*
X35309524Y-132523810D01*
X35309524Y-132761905D01*
X35261905Y-132857143D01*
X35214286Y-132904762D01*
X35119048Y-132952381D01*
X34833333Y-132952381D01*
X34738095Y-132904762D01*
X34690476Y-132857143D01*
X35928571Y-131952381D02*
X36023810Y-131952381D01*
X36119048Y-132000000D01*
X36166667Y-132047619D01*
X36214286Y-132142857D01*
X36261905Y-132333333D01*
X36261905Y-132571429D01*
X36214286Y-132761905D01*
X36166667Y-132857143D01*
X36119048Y-132904762D01*
X36023810Y-132952381D01*
X35928571Y-132952381D01*
X35833333Y-132904762D01*
X35785714Y-132857143D01*
X35738095Y-132761905D01*
X35690476Y-132571429D01*
X35690476Y-132333333D01*
X35738095Y-132142857D01*
X35785714Y-132047619D01*
X35833333Y-132000000D01*
X35928571Y-131952381D01*
X46093143Y-114498381D02*
X45759809Y-114022190D01*
X45521714Y-114498381D02*
X45521714Y-113498381D01*
X45902667Y-113498381D01*
X45997905Y-113546000D01*
X46045524Y-113593619D01*
X46093143Y-113688857D01*
X46093143Y-113831714D01*
X46045524Y-113926952D01*
X45997905Y-113974571D01*
X45902667Y-114022190D01*
X45521714Y-114022190D01*
X46426476Y-113498381D02*
X47045524Y-113498381D01*
X46712190Y-113879333D01*
X46855048Y-113879333D01*
X46950286Y-113926952D01*
X46997905Y-113974571D01*
X47045524Y-114069810D01*
X47045524Y-114307905D01*
X46997905Y-114403143D01*
X46950286Y-114450762D01*
X46855048Y-114498381D01*
X46569333Y-114498381D01*
X46474095Y-114450762D01*
X46426476Y-114403143D01*
X47997905Y-114498381D02*
X47426476Y-114498381D01*
X47712190Y-114498381D02*
X47712190Y-113498381D01*
X47616952Y-113641238D01*
X47521714Y-113736476D01*
X47426476Y-113784095D01*
X49952381Y-118142857D02*
X49476190Y-118476191D01*
X49952381Y-118714286D02*
X48952381Y-118714286D01*
X48952381Y-118333333D01*
X49000000Y-118238095D01*
X49047619Y-118190476D01*
X49142857Y-118142857D01*
X49285714Y-118142857D01*
X49380952Y-118190476D01*
X49428571Y-118238095D01*
X49476190Y-118333333D01*
X49476190Y-118714286D01*
X48952381Y-117809524D02*
X48952381Y-117190476D01*
X49333333Y-117523810D01*
X49333333Y-117380952D01*
X49380952Y-117285714D01*
X49428571Y-117238095D01*
X49523810Y-117190476D01*
X49761905Y-117190476D01*
X49857143Y-117238095D01*
X49904762Y-117285714D01*
X49952381Y-117380952D01*
X49952381Y-117666667D01*
X49904762Y-117761905D01*
X49857143Y-117809524D01*
X49047619Y-116809524D02*
X49000000Y-116761905D01*
X48952381Y-116666667D01*
X48952381Y-116428571D01*
X49000000Y-116333333D01*
X49047619Y-116285714D01*
X49142857Y-116238095D01*
X49238095Y-116238095D01*
X49380952Y-116285714D01*
X49952381Y-116857143D01*
X49952381Y-116238095D01*
X55357143Y-110452381D02*
X55023809Y-109976190D01*
X54785714Y-110452381D02*
X54785714Y-109452381D01*
X55166667Y-109452381D01*
X55261905Y-109500000D01*
X55309524Y-109547619D01*
X55357143Y-109642857D01*
X55357143Y-109785714D01*
X55309524Y-109880952D01*
X55261905Y-109928571D01*
X55166667Y-109976190D01*
X54785714Y-109976190D01*
X55690476Y-109452381D02*
X56309524Y-109452381D01*
X55976190Y-109833333D01*
X56119048Y-109833333D01*
X56214286Y-109880952D01*
X56261905Y-109928571D01*
X56309524Y-110023810D01*
X56309524Y-110261905D01*
X56261905Y-110357143D01*
X56214286Y-110404762D01*
X56119048Y-110452381D01*
X55833333Y-110452381D01*
X55738095Y-110404762D01*
X55690476Y-110357143D01*
X56642857Y-109452381D02*
X57261905Y-109452381D01*
X56928571Y-109833333D01*
X57071429Y-109833333D01*
X57166667Y-109880952D01*
X57214286Y-109928571D01*
X57261905Y-110023810D01*
X57261905Y-110261905D01*
X57214286Y-110357143D01*
X57166667Y-110404762D01*
X57071429Y-110452381D01*
X56785714Y-110452381D01*
X56690476Y-110404762D01*
X56642857Y-110357143D01*
X40257143Y-112952381D02*
X39923809Y-112476190D01*
X39685714Y-112952381D02*
X39685714Y-111952381D01*
X40066667Y-111952381D01*
X40161905Y-112000000D01*
X40209524Y-112047619D01*
X40257143Y-112142857D01*
X40257143Y-112285714D01*
X40209524Y-112380952D01*
X40161905Y-112428571D01*
X40066667Y-112476190D01*
X39685714Y-112476190D01*
X40590476Y-111952381D02*
X41209524Y-111952381D01*
X40876190Y-112333333D01*
X41019048Y-112333333D01*
X41114286Y-112380952D01*
X41161905Y-112428571D01*
X41209524Y-112523810D01*
X41209524Y-112761905D01*
X41161905Y-112857143D01*
X41114286Y-112904762D01*
X41019048Y-112952381D01*
X40733333Y-112952381D01*
X40638095Y-112904762D01*
X40590476Y-112857143D01*
X42066667Y-112285714D02*
X42066667Y-112952381D01*
X41828571Y-111904762D02*
X41590476Y-112619048D01*
X42209524Y-112619048D01*
X40257143Y-110102381D02*
X39923809Y-109626190D01*
X39685714Y-110102381D02*
X39685714Y-109102381D01*
X40066667Y-109102381D01*
X40161905Y-109150000D01*
X40209524Y-109197619D01*
X40257143Y-109292857D01*
X40257143Y-109435714D01*
X40209524Y-109530952D01*
X40161905Y-109578571D01*
X40066667Y-109626190D01*
X39685714Y-109626190D01*
X40590476Y-109102381D02*
X41209524Y-109102381D01*
X40876190Y-109483333D01*
X41019048Y-109483333D01*
X41114286Y-109530952D01*
X41161905Y-109578571D01*
X41209524Y-109673810D01*
X41209524Y-109911905D01*
X41161905Y-110007143D01*
X41114286Y-110054762D01*
X41019048Y-110102381D01*
X40733333Y-110102381D01*
X40638095Y-110054762D01*
X40590476Y-110007143D01*
X42114286Y-109102381D02*
X41638095Y-109102381D01*
X41590476Y-109578571D01*
X41638095Y-109530952D01*
X41733333Y-109483333D01*
X41971429Y-109483333D01*
X42066667Y-109530952D01*
X42114286Y-109578571D01*
X42161905Y-109673810D01*
X42161905Y-109911905D01*
X42114286Y-110007143D01*
X42066667Y-110054762D01*
X41971429Y-110102381D01*
X41733333Y-110102381D01*
X41638095Y-110054762D01*
X41590476Y-110007143D01*
X40251143Y-107132381D02*
X39917809Y-106656190D01*
X39679714Y-107132381D02*
X39679714Y-106132381D01*
X40060667Y-106132381D01*
X40155905Y-106180000D01*
X40203524Y-106227619D01*
X40251143Y-106322857D01*
X40251143Y-106465714D01*
X40203524Y-106560952D01*
X40155905Y-106608571D01*
X40060667Y-106656190D01*
X39679714Y-106656190D01*
X40584476Y-106132381D02*
X41203524Y-106132381D01*
X40870190Y-106513333D01*
X41013048Y-106513333D01*
X41108286Y-106560952D01*
X41155905Y-106608571D01*
X41203524Y-106703810D01*
X41203524Y-106941905D01*
X41155905Y-107037143D01*
X41108286Y-107084762D01*
X41013048Y-107132381D01*
X40727333Y-107132381D01*
X40632095Y-107084762D01*
X40584476Y-107037143D01*
X42060667Y-106132381D02*
X41870190Y-106132381D01*
X41774952Y-106180000D01*
X41727333Y-106227619D01*
X41632095Y-106370476D01*
X41584476Y-106560952D01*
X41584476Y-106941905D01*
X41632095Y-107037143D01*
X41679714Y-107084762D01*
X41774952Y-107132381D01*
X41965429Y-107132381D01*
X42060667Y-107084762D01*
X42108286Y-107037143D01*
X42155905Y-106941905D01*
X42155905Y-106703810D01*
X42108286Y-106608571D01*
X42060667Y-106560952D01*
X41965429Y-106513333D01*
X41774952Y-106513333D01*
X41679714Y-106560952D01*
X41632095Y-106608571D01*
X41584476Y-106703810D01*
X106357143Y-137552381D02*
X106023809Y-137076190D01*
X105785714Y-137552381D02*
X105785714Y-136552381D01*
X106166667Y-136552381D01*
X106261905Y-136600000D01*
X106309524Y-136647619D01*
X106357143Y-136742857D01*
X106357143Y-136885714D01*
X106309524Y-136980952D01*
X106261905Y-137028571D01*
X106166667Y-137076190D01*
X105785714Y-137076190D01*
X106690476Y-136552381D02*
X107309524Y-136552381D01*
X106976190Y-136933333D01*
X107119048Y-136933333D01*
X107214286Y-136980952D01*
X107261905Y-137028571D01*
X107309524Y-137123810D01*
X107309524Y-137361905D01*
X107261905Y-137457143D01*
X107214286Y-137504762D01*
X107119048Y-137552381D01*
X106833333Y-137552381D01*
X106738095Y-137504762D01*
X106690476Y-137457143D01*
X107642857Y-136552381D02*
X108309524Y-136552381D01*
X107880952Y-137552381D01*
X40157143Y-87052381D02*
X39823809Y-86576190D01*
X39585714Y-87052381D02*
X39585714Y-86052381D01*
X39966667Y-86052381D01*
X40061905Y-86100000D01*
X40109524Y-86147619D01*
X40157143Y-86242857D01*
X40157143Y-86385714D01*
X40109524Y-86480952D01*
X40061905Y-86528571D01*
X39966667Y-86576190D01*
X39585714Y-86576190D01*
X40490476Y-86052381D02*
X41109524Y-86052381D01*
X40776190Y-86433333D01*
X40919048Y-86433333D01*
X41014286Y-86480952D01*
X41061905Y-86528571D01*
X41109524Y-86623810D01*
X41109524Y-86861905D01*
X41061905Y-86957143D01*
X41014286Y-87004762D01*
X40919048Y-87052381D01*
X40633333Y-87052381D01*
X40538095Y-87004762D01*
X40490476Y-86957143D01*
X41680952Y-86480952D02*
X41585714Y-86433333D01*
X41538095Y-86385714D01*
X41490476Y-86290476D01*
X41490476Y-86242857D01*
X41538095Y-86147619D01*
X41585714Y-86100000D01*
X41680952Y-86052381D01*
X41871429Y-86052381D01*
X41966667Y-86100000D01*
X42014286Y-86147619D01*
X42061905Y-86242857D01*
X42061905Y-86290476D01*
X42014286Y-86385714D01*
X41966667Y-86433333D01*
X41871429Y-86480952D01*
X41680952Y-86480952D01*
X41585714Y-86528571D01*
X41538095Y-86576190D01*
X41490476Y-86671429D01*
X41490476Y-86861905D01*
X41538095Y-86957143D01*
X41585714Y-87004762D01*
X41680952Y-87052381D01*
X41871429Y-87052381D01*
X41966667Y-87004762D01*
X42014286Y-86957143D01*
X42061905Y-86861905D01*
X42061905Y-86671429D01*
X42014286Y-86576190D01*
X41966667Y-86528571D01*
X41871429Y-86480952D01*
X40157143Y-90052381D02*
X39823809Y-89576190D01*
X39585714Y-90052381D02*
X39585714Y-89052381D01*
X39966667Y-89052381D01*
X40061905Y-89100000D01*
X40109524Y-89147619D01*
X40157143Y-89242857D01*
X40157143Y-89385714D01*
X40109524Y-89480952D01*
X40061905Y-89528571D01*
X39966667Y-89576190D01*
X39585714Y-89576190D01*
X40490476Y-89052381D02*
X41109524Y-89052381D01*
X40776190Y-89433333D01*
X40919048Y-89433333D01*
X41014286Y-89480952D01*
X41061905Y-89528571D01*
X41109524Y-89623810D01*
X41109524Y-89861905D01*
X41061905Y-89957143D01*
X41014286Y-90004762D01*
X40919048Y-90052381D01*
X40633333Y-90052381D01*
X40538095Y-90004762D01*
X40490476Y-89957143D01*
X41585714Y-90052381D02*
X41776190Y-90052381D01*
X41871429Y-90004762D01*
X41919048Y-89957143D01*
X42014286Y-89814286D01*
X42061905Y-89623810D01*
X42061905Y-89242857D01*
X42014286Y-89147619D01*
X41966667Y-89100000D01*
X41871429Y-89052381D01*
X41680952Y-89052381D01*
X41585714Y-89100000D01*
X41538095Y-89147619D01*
X41490476Y-89242857D01*
X41490476Y-89480952D01*
X41538095Y-89576190D01*
X41585714Y-89623810D01*
X41680952Y-89671429D01*
X41871429Y-89671429D01*
X41966667Y-89623810D01*
X42014286Y-89576190D01*
X42061905Y-89480952D01*
X40157143Y-84552381D02*
X39823809Y-84076190D01*
X39585714Y-84552381D02*
X39585714Y-83552381D01*
X39966667Y-83552381D01*
X40061905Y-83600000D01*
X40109524Y-83647619D01*
X40157143Y-83742857D01*
X40157143Y-83885714D01*
X40109524Y-83980952D01*
X40061905Y-84028571D01*
X39966667Y-84076190D01*
X39585714Y-84076190D01*
X41014286Y-83885714D02*
X41014286Y-84552381D01*
X40776190Y-83504762D02*
X40538095Y-84219048D01*
X41157143Y-84219048D01*
X41728571Y-83552381D02*
X41823810Y-83552381D01*
X41919048Y-83600000D01*
X41966667Y-83647619D01*
X42014286Y-83742857D01*
X42061905Y-83933333D01*
X42061905Y-84171429D01*
X42014286Y-84361905D01*
X41966667Y-84457143D01*
X41919048Y-84504762D01*
X41823810Y-84552381D01*
X41728571Y-84552381D01*
X41633333Y-84504762D01*
X41585714Y-84457143D01*
X41538095Y-84361905D01*
X41490476Y-84171429D01*
X41490476Y-83933333D01*
X41538095Y-83742857D01*
X41585714Y-83647619D01*
X41633333Y-83600000D01*
X41728571Y-83552381D01*
X40187143Y-101036381D02*
X39853809Y-100560190D01*
X39615714Y-101036381D02*
X39615714Y-100036381D01*
X39996667Y-100036381D01*
X40091905Y-100084000D01*
X40139524Y-100131619D01*
X40187143Y-100226857D01*
X40187143Y-100369714D01*
X40139524Y-100464952D01*
X40091905Y-100512571D01*
X39996667Y-100560190D01*
X39615714Y-100560190D01*
X41044286Y-100369714D02*
X41044286Y-101036381D01*
X40806190Y-99988762D02*
X40568095Y-100703048D01*
X41187143Y-100703048D01*
X42091905Y-101036381D02*
X41520476Y-101036381D01*
X41806190Y-101036381D02*
X41806190Y-100036381D01*
X41710952Y-100179238D01*
X41615714Y-100274476D01*
X41520476Y-100322095D01*
X83357143Y-84452381D02*
X83023809Y-83976190D01*
X82785714Y-84452381D02*
X82785714Y-83452381D01*
X83166667Y-83452381D01*
X83261905Y-83500000D01*
X83309524Y-83547619D01*
X83357143Y-83642857D01*
X83357143Y-83785714D01*
X83309524Y-83880952D01*
X83261905Y-83928571D01*
X83166667Y-83976190D01*
X82785714Y-83976190D01*
X84214286Y-83785714D02*
X84214286Y-84452381D01*
X83976190Y-83404762D02*
X83738095Y-84119048D01*
X84357143Y-84119048D01*
X84690476Y-83547619D02*
X84738095Y-83500000D01*
X84833333Y-83452381D01*
X85071429Y-83452381D01*
X85166667Y-83500000D01*
X85214286Y-83547619D01*
X85261905Y-83642857D01*
X85261905Y-83738095D01*
X85214286Y-83880952D01*
X84642857Y-84452381D01*
X85261905Y-84452381D01*
X60357143Y-84552381D02*
X60023809Y-84076190D01*
X59785714Y-84552381D02*
X59785714Y-83552381D01*
X60166667Y-83552381D01*
X60261905Y-83600000D01*
X60309524Y-83647619D01*
X60357143Y-83742857D01*
X60357143Y-83885714D01*
X60309524Y-83980952D01*
X60261905Y-84028571D01*
X60166667Y-84076190D01*
X59785714Y-84076190D01*
X61214286Y-83885714D02*
X61214286Y-84552381D01*
X60976190Y-83504762D02*
X60738095Y-84219048D01*
X61357143Y-84219048D01*
X61642857Y-83552381D02*
X62261905Y-83552381D01*
X61928571Y-83933333D01*
X62071429Y-83933333D01*
X62166667Y-83980952D01*
X62214286Y-84028571D01*
X62261905Y-84123810D01*
X62261905Y-84361905D01*
X62214286Y-84457143D01*
X62166667Y-84504762D01*
X62071429Y-84552381D01*
X61785714Y-84552381D01*
X61690476Y-84504762D01*
X61642857Y-84457143D01*
X127627143Y-88336381D02*
X127293809Y-87860190D01*
X127055714Y-88336381D02*
X127055714Y-87336381D01*
X127436667Y-87336381D01*
X127531905Y-87384000D01*
X127579524Y-87431619D01*
X127627143Y-87526857D01*
X127627143Y-87669714D01*
X127579524Y-87764952D01*
X127531905Y-87812571D01*
X127436667Y-87860190D01*
X127055714Y-87860190D01*
X128484286Y-87669714D02*
X128484286Y-88336381D01*
X128246190Y-87288762D02*
X128008095Y-88003048D01*
X128627143Y-88003048D01*
X129436667Y-87669714D02*
X129436667Y-88336381D01*
X129198571Y-87288762D02*
X128960476Y-88003048D01*
X129579524Y-88003048D01*
X40157143Y-98052381D02*
X39823809Y-97576190D01*
X39585714Y-98052381D02*
X39585714Y-97052381D01*
X39966667Y-97052381D01*
X40061905Y-97100000D01*
X40109524Y-97147619D01*
X40157143Y-97242857D01*
X40157143Y-97385714D01*
X40109524Y-97480952D01*
X40061905Y-97528571D01*
X39966667Y-97576190D01*
X39585714Y-97576190D01*
X41014286Y-97385714D02*
X41014286Y-98052381D01*
X40776190Y-97004762D02*
X40538095Y-97719048D01*
X41157143Y-97719048D01*
X42014286Y-97052381D02*
X41538095Y-97052381D01*
X41490476Y-97528571D01*
X41538095Y-97480952D01*
X41633333Y-97433333D01*
X41871429Y-97433333D01*
X41966667Y-97480952D01*
X42014286Y-97528571D01*
X42061905Y-97623810D01*
X42061905Y-97861905D01*
X42014286Y-97957143D01*
X41966667Y-98004762D01*
X41871429Y-98052381D01*
X41633333Y-98052381D01*
X41538095Y-98004762D01*
X41490476Y-97957143D01*
X129857143Y-91452381D02*
X129523809Y-90976190D01*
X129285714Y-91452381D02*
X129285714Y-90452381D01*
X129666667Y-90452381D01*
X129761905Y-90500000D01*
X129809524Y-90547619D01*
X129857143Y-90642857D01*
X129857143Y-90785714D01*
X129809524Y-90880952D01*
X129761905Y-90928571D01*
X129666667Y-90976190D01*
X129285714Y-90976190D01*
X130714286Y-90785714D02*
X130714286Y-91452381D01*
X130476190Y-90404762D02*
X130238095Y-91119048D01*
X130857143Y-91119048D01*
X131666667Y-90452381D02*
X131476190Y-90452381D01*
X131380952Y-90500000D01*
X131333333Y-90547619D01*
X131238095Y-90690476D01*
X131190476Y-90880952D01*
X131190476Y-91261905D01*
X131238095Y-91357143D01*
X131285714Y-91404762D01*
X131380952Y-91452381D01*
X131571429Y-91452381D01*
X131666667Y-91404762D01*
X131714286Y-91357143D01*
X131761905Y-91261905D01*
X131761905Y-91023810D01*
X131714286Y-90928571D01*
X131666667Y-90880952D01*
X131571429Y-90833333D01*
X131380952Y-90833333D01*
X131285714Y-90880952D01*
X131238095Y-90928571D01*
X131190476Y-91023810D01*
X40157143Y-104052381D02*
X39823809Y-103576190D01*
X39585714Y-104052381D02*
X39585714Y-103052381D01*
X39966667Y-103052381D01*
X40061905Y-103100000D01*
X40109524Y-103147619D01*
X40157143Y-103242857D01*
X40157143Y-103385714D01*
X40109524Y-103480952D01*
X40061905Y-103528571D01*
X39966667Y-103576190D01*
X39585714Y-103576190D01*
X41014286Y-103385714D02*
X41014286Y-104052381D01*
X40776190Y-103004762D02*
X40538095Y-103719048D01*
X41157143Y-103719048D01*
X41442857Y-103052381D02*
X42109524Y-103052381D01*
X41680952Y-104052381D01*
X40157143Y-95052381D02*
X39823809Y-94576190D01*
X39585714Y-95052381D02*
X39585714Y-94052381D01*
X39966667Y-94052381D01*
X40061905Y-94100000D01*
X40109524Y-94147619D01*
X40157143Y-94242857D01*
X40157143Y-94385714D01*
X40109524Y-94480952D01*
X40061905Y-94528571D01*
X39966667Y-94576190D01*
X39585714Y-94576190D01*
X41014286Y-94385714D02*
X41014286Y-95052381D01*
X40776190Y-94004762D02*
X40538095Y-94719048D01*
X41157143Y-94719048D01*
X41680952Y-94480952D02*
X41585714Y-94433333D01*
X41538095Y-94385714D01*
X41490476Y-94290476D01*
X41490476Y-94242857D01*
X41538095Y-94147619D01*
X41585714Y-94100000D01*
X41680952Y-94052381D01*
X41871429Y-94052381D01*
X41966667Y-94100000D01*
X42014286Y-94147619D01*
X42061905Y-94242857D01*
X42061905Y-94290476D01*
X42014286Y-94385714D01*
X41966667Y-94433333D01*
X41871429Y-94480952D01*
X41680952Y-94480952D01*
X41585714Y-94528571D01*
X41538095Y-94576190D01*
X41490476Y-94671429D01*
X41490476Y-94861905D01*
X41538095Y-94957143D01*
X41585714Y-95004762D01*
X41680952Y-95052381D01*
X41871429Y-95052381D01*
X41966667Y-95004762D01*
X42014286Y-94957143D01*
X42061905Y-94861905D01*
X42061905Y-94671429D01*
X42014286Y-94576190D01*
X41966667Y-94528571D01*
X41871429Y-94480952D01*
X48157143Y-86802381D02*
X47823809Y-86326190D01*
X47585714Y-86802381D02*
X47585714Y-85802381D01*
X47966667Y-85802381D01*
X48061905Y-85850000D01*
X48109524Y-85897619D01*
X48157143Y-85992857D01*
X48157143Y-86135714D01*
X48109524Y-86230952D01*
X48061905Y-86278571D01*
X47966667Y-86326190D01*
X47585714Y-86326190D01*
X49014286Y-86135714D02*
X49014286Y-86802381D01*
X48776190Y-85754762D02*
X48538095Y-86469048D01*
X49157143Y-86469048D01*
X49585714Y-86802381D02*
X49776190Y-86802381D01*
X49871429Y-86754762D01*
X49919048Y-86707143D01*
X50014286Y-86564286D01*
X50061905Y-86373810D01*
X50061905Y-85992857D01*
X50014286Y-85897619D01*
X49966667Y-85850000D01*
X49871429Y-85802381D01*
X49680952Y-85802381D01*
X49585714Y-85850000D01*
X49538095Y-85897619D01*
X49490476Y-85992857D01*
X49490476Y-86230952D01*
X49538095Y-86326190D01*
X49585714Y-86373810D01*
X49680952Y-86421429D01*
X49871429Y-86421429D01*
X49966667Y-86373810D01*
X50014286Y-86326190D01*
X50061905Y-86230952D01*
X141852381Y-96642857D02*
X141376190Y-96976191D01*
X141852381Y-97214286D02*
X140852381Y-97214286D01*
X140852381Y-96833333D01*
X140900000Y-96738095D01*
X140947619Y-96690476D01*
X141042857Y-96642857D01*
X141185714Y-96642857D01*
X141280952Y-96690476D01*
X141328571Y-96738095D01*
X141376190Y-96833333D01*
X141376190Y-97214286D01*
X140852381Y-95738095D02*
X140852381Y-96214286D01*
X141328571Y-96261905D01*
X141280952Y-96214286D01*
X141233333Y-96119048D01*
X141233333Y-95880952D01*
X141280952Y-95785714D01*
X141328571Y-95738095D01*
X141423810Y-95690476D01*
X141661905Y-95690476D01*
X141757143Y-95738095D01*
X141804762Y-95785714D01*
X141852381Y-95880952D01*
X141852381Y-96119048D01*
X141804762Y-96214286D01*
X141757143Y-96261905D01*
X140852381Y-95071429D02*
X140852381Y-94976190D01*
X140900000Y-94880952D01*
X140947619Y-94833333D01*
X141042857Y-94785714D01*
X141233333Y-94738095D01*
X141471429Y-94738095D01*
X141661905Y-94785714D01*
X141757143Y-94833333D01*
X141804762Y-94880952D01*
X141852381Y-94976190D01*
X141852381Y-95071429D01*
X141804762Y-95166667D01*
X141757143Y-95214286D01*
X141661905Y-95261905D01*
X141471429Y-95309524D01*
X141233333Y-95309524D01*
X141042857Y-95261905D01*
X140947619Y-95214286D01*
X140900000Y-95166667D01*
X140852381Y-95071429D01*
X127957143Y-96452381D02*
X127623809Y-95976190D01*
X127385714Y-96452381D02*
X127385714Y-95452381D01*
X127766667Y-95452381D01*
X127861905Y-95500000D01*
X127909524Y-95547619D01*
X127957143Y-95642857D01*
X127957143Y-95785714D01*
X127909524Y-95880952D01*
X127861905Y-95928571D01*
X127766667Y-95976190D01*
X127385714Y-95976190D01*
X128861905Y-95452381D02*
X128385714Y-95452381D01*
X128338095Y-95928571D01*
X128385714Y-95880952D01*
X128480952Y-95833333D01*
X128719048Y-95833333D01*
X128814286Y-95880952D01*
X128861905Y-95928571D01*
X128909524Y-96023810D01*
X128909524Y-96261905D01*
X128861905Y-96357143D01*
X128814286Y-96404762D01*
X128719048Y-96452381D01*
X128480952Y-96452381D01*
X128385714Y-96404762D01*
X128338095Y-96357143D01*
X129861905Y-96452381D02*
X129290476Y-96452381D01*
X129576190Y-96452381D02*
X129576190Y-95452381D01*
X129480952Y-95595238D01*
X129385714Y-95690476D01*
X129290476Y-95738095D01*
X60457143Y-89552381D02*
X60123809Y-89076190D01*
X59885714Y-89552381D02*
X59885714Y-88552381D01*
X60266667Y-88552381D01*
X60361905Y-88600000D01*
X60409524Y-88647619D01*
X60457143Y-88742857D01*
X60457143Y-88885714D01*
X60409524Y-88980952D01*
X60361905Y-89028571D01*
X60266667Y-89076190D01*
X59885714Y-89076190D01*
X61361905Y-88552381D02*
X60885714Y-88552381D01*
X60838095Y-89028571D01*
X60885714Y-88980952D01*
X60980952Y-88933333D01*
X61219048Y-88933333D01*
X61314286Y-88980952D01*
X61361905Y-89028571D01*
X61409524Y-89123810D01*
X61409524Y-89361905D01*
X61361905Y-89457143D01*
X61314286Y-89504762D01*
X61219048Y-89552381D01*
X60980952Y-89552381D01*
X60885714Y-89504762D01*
X60838095Y-89457143D01*
X61790476Y-88647619D02*
X61838095Y-88600000D01*
X61933333Y-88552381D01*
X62171429Y-88552381D01*
X62266667Y-88600000D01*
X62314286Y-88647619D01*
X62361905Y-88742857D01*
X62361905Y-88838095D01*
X62314286Y-88980952D01*
X61742857Y-89552381D01*
X62361905Y-89552381D01*
X115570095Y-78954381D02*
X115570095Y-79763905D01*
X115617714Y-79859143D01*
X115665333Y-79906762D01*
X115760571Y-79954381D01*
X115951048Y-79954381D01*
X116046286Y-79906762D01*
X116093905Y-79859143D01*
X116141524Y-79763905D01*
X116141524Y-78954381D01*
X117141524Y-79954381D02*
X116570095Y-79954381D01*
X116855809Y-79954381D02*
X116855809Y-78954381D01*
X116760571Y-79097238D01*
X116665333Y-79192476D01*
X116570095Y-79240095D01*
X131738095Y-105402381D02*
X131738095Y-106211905D01*
X131785714Y-106307143D01*
X131833333Y-106354762D01*
X131928571Y-106402381D01*
X132119048Y-106402381D01*
X132214286Y-106354762D01*
X132261905Y-106307143D01*
X132309524Y-106211905D01*
X132309524Y-105402381D01*
X132738095Y-105497619D02*
X132785714Y-105450000D01*
X132880952Y-105402381D01*
X133119048Y-105402381D01*
X133214286Y-105450000D01*
X133261905Y-105497619D01*
X133309524Y-105592857D01*
X133309524Y-105688095D01*
X133261905Y-105830952D01*
X132690476Y-106402381D01*
X133309524Y-106402381D01*
X113022095Y-104584381D02*
X113022095Y-105393905D01*
X113069714Y-105489143D01*
X113117333Y-105536762D01*
X113212571Y-105584381D01*
X113403048Y-105584381D01*
X113498286Y-105536762D01*
X113545905Y-105489143D01*
X113593524Y-105393905D01*
X113593524Y-104584381D01*
X113974476Y-104584381D02*
X114593524Y-104584381D01*
X114260190Y-104965333D01*
X114403048Y-104965333D01*
X114498286Y-105012952D01*
X114545905Y-105060571D01*
X114593524Y-105155810D01*
X114593524Y-105393905D01*
X114545905Y-105489143D01*
X114498286Y-105536762D01*
X114403048Y-105584381D01*
X114117333Y-105584381D01*
X114022095Y-105536762D01*
X113974476Y-105489143D01*
X149238095Y-104402381D02*
X149238095Y-105211905D01*
X149285714Y-105307143D01*
X149333333Y-105354762D01*
X149428571Y-105402381D01*
X149619048Y-105402381D01*
X149714286Y-105354762D01*
X149761905Y-105307143D01*
X149809524Y-105211905D01*
X149809524Y-104402381D01*
X150714286Y-104735714D02*
X150714286Y-105402381D01*
X150476190Y-104354762D02*
X150238095Y-105069048D01*
X150857143Y-105069048D01*
X154309215Y-133163081D02*
X154309215Y-133972605D01*
X154356834Y-134067843D01*
X154404453Y-134115462D01*
X154499691Y-134163081D01*
X154690168Y-134163081D01*
X154785406Y-134115462D01*
X154833025Y-134067843D01*
X154880644Y-133972605D01*
X154880644Y-133163081D01*
X155833025Y-133163081D02*
X155356834Y-133163081D01*
X155309215Y-133639271D01*
X155356834Y-133591652D01*
X155452072Y-133544033D01*
X155690168Y-133544033D01*
X155785406Y-133591652D01*
X155833025Y-133639271D01*
X155880644Y-133734510D01*
X155880644Y-133972605D01*
X155833025Y-134067843D01*
X155785406Y-134115462D01*
X155690168Y-134163081D01*
X155452072Y-134163081D01*
X155356834Y-134115462D01*
X155309215Y-134067843D01*
X157788095Y-122652381D02*
X157788095Y-123461905D01*
X157835714Y-123557143D01*
X157883333Y-123604762D01*
X157978571Y-123652381D01*
X158169048Y-123652381D01*
X158264286Y-123604762D01*
X158311905Y-123557143D01*
X158359524Y-123461905D01*
X158359524Y-122652381D01*
X159264286Y-122652381D02*
X159073809Y-122652381D01*
X158978571Y-122700000D01*
X158930952Y-122747619D01*
X158835714Y-122890476D01*
X158788095Y-123080952D01*
X158788095Y-123461905D01*
X158835714Y-123557143D01*
X158883333Y-123604762D01*
X158978571Y-123652381D01*
X159169048Y-123652381D01*
X159264286Y-123604762D01*
X159311905Y-123557143D01*
X159359524Y-123461905D01*
X159359524Y-123223810D01*
X159311905Y-123128571D01*
X159264286Y-123080952D01*
X159169048Y-123033333D01*
X158978571Y-123033333D01*
X158883333Y-123080952D01*
X158835714Y-123128571D01*
X158788095Y-123223810D01*
X136722381Y-93261905D02*
X137531905Y-93261905D01*
X137627143Y-93214286D01*
X137674762Y-93166667D01*
X137722381Y-93071429D01*
X137722381Y-92880952D01*
X137674762Y-92785714D01*
X137627143Y-92738095D01*
X137531905Y-92690476D01*
X136722381Y-92690476D01*
X136722381Y-92309524D02*
X136722381Y-91642857D01*
X137722381Y-92071429D01*
X136652095Y-66564381D02*
X136652095Y-67373905D01*
X136699714Y-67469143D01*
X136747333Y-67516762D01*
X136842571Y-67564381D01*
X137033048Y-67564381D01*
X137128286Y-67516762D01*
X137175905Y-67469143D01*
X137223524Y-67373905D01*
X137223524Y-66564381D01*
X137842571Y-66992952D02*
X137747333Y-66945333D01*
X137699714Y-66897714D01*
X137652095Y-66802476D01*
X137652095Y-66754857D01*
X137699714Y-66659619D01*
X137747333Y-66612000D01*
X137842571Y-66564381D01*
X138033048Y-66564381D01*
X138128286Y-66612000D01*
X138175905Y-66659619D01*
X138223524Y-66754857D01*
X138223524Y-66802476D01*
X138175905Y-66897714D01*
X138128286Y-66945333D01*
X138033048Y-66992952D01*
X137842571Y-66992952D01*
X137747333Y-67040571D01*
X137699714Y-67088190D01*
X137652095Y-67183429D01*
X137652095Y-67373905D01*
X137699714Y-67469143D01*
X137747333Y-67516762D01*
X137842571Y-67564381D01*
X138033048Y-67564381D01*
X138128286Y-67516762D01*
X138175905Y-67469143D01*
X138223524Y-67373905D01*
X138223524Y-67183429D01*
X138175905Y-67088190D01*
X138128286Y-67040571D01*
X138033048Y-66992952D01*
X25238095Y-132702381D02*
X25238095Y-133511905D01*
X25285714Y-133607143D01*
X25333333Y-133654762D01*
X25428571Y-133702381D01*
X25619048Y-133702381D01*
X25714286Y-133654762D01*
X25761905Y-133607143D01*
X25809524Y-133511905D01*
X25809524Y-132702381D01*
X26333333Y-133702381D02*
X26523809Y-133702381D01*
X26619048Y-133654762D01*
X26666667Y-133607143D01*
X26761905Y-133464286D01*
X26809524Y-133273810D01*
X26809524Y-132892857D01*
X26761905Y-132797619D01*
X26714286Y-132750000D01*
X26619048Y-132702381D01*
X26428571Y-132702381D01*
X26333333Y-132750000D01*
X26285714Y-132797619D01*
X26238095Y-132892857D01*
X26238095Y-133130952D01*
X26285714Y-133226190D01*
X26333333Y-133273810D01*
X26428571Y-133321429D01*
X26619048Y-133321429D01*
X26714286Y-133273810D01*
X26761905Y-133226190D01*
X26809524Y-133130952D01*
D14*
X57413677Y-117156895D02*
X57413677Y-117814876D01*
X57452382Y-117892286D01*
X57491086Y-117930990D01*
X57568496Y-117969695D01*
X57723315Y-117969695D01*
X57800724Y-117930990D01*
X57839429Y-117892286D01*
X57878134Y-117814876D01*
X57878134Y-117156895D01*
X58690934Y-117969695D02*
X58226477Y-117969695D01*
X58458706Y-117969695D02*
X58458706Y-117156895D01*
X58381296Y-117273010D01*
X58303887Y-117350419D01*
X58226477Y-117389124D01*
X59194096Y-117156895D02*
X59271505Y-117156895D01*
X59348915Y-117195600D01*
X59387620Y-117234305D01*
X59426324Y-117311714D01*
X59465029Y-117466533D01*
X59465029Y-117660057D01*
X59426324Y-117814876D01*
X59387620Y-117892286D01*
X59348915Y-117930990D01*
X59271505Y-117969695D01*
X59194096Y-117969695D01*
X59116686Y-117930990D01*
X59077982Y-117892286D01*
X59039277Y-117814876D01*
X59000572Y-117660057D01*
X59000572Y-117466533D01*
X59039277Y-117311714D01*
X59077982Y-117234305D01*
X59116686Y-117195600D01*
X59194096Y-117156895D01*
D12*
X69252381Y-87038095D02*
X70061905Y-87038095D01*
X70157143Y-86990476D01*
X70204762Y-86942857D01*
X70252381Y-86847619D01*
X70252381Y-86657142D01*
X70204762Y-86561904D01*
X70157143Y-86514285D01*
X70061905Y-86466666D01*
X69252381Y-86466666D01*
X70252381Y-85466666D02*
X70252381Y-86038095D01*
X70252381Y-85752381D02*
X69252381Y-85752381D01*
X69395238Y-85847619D01*
X69490476Y-85942857D01*
X69538095Y-86038095D01*
X69347619Y-85085714D02*
X69300000Y-85038095D01*
X69252381Y-84942857D01*
X69252381Y-84704761D01*
X69300000Y-84609523D01*
X69347619Y-84561904D01*
X69442857Y-84514285D01*
X69538095Y-84514285D01*
X69680952Y-84561904D01*
X70252381Y-85133333D01*
X70252381Y-84514285D01*
X43923905Y-95200381D02*
X43923905Y-96009905D01*
X43971524Y-96105143D01*
X44019143Y-96152762D01*
X44114381Y-96200381D01*
X44304858Y-96200381D01*
X44400096Y-96152762D01*
X44447715Y-96105143D01*
X44495334Y-96009905D01*
X44495334Y-95200381D01*
X45495334Y-96200381D02*
X44923905Y-96200381D01*
X45209619Y-96200381D02*
X45209619Y-95200381D01*
X45114381Y-95343238D01*
X45019143Y-95438476D01*
X44923905Y-95486095D01*
X45828667Y-95200381D02*
X46447715Y-95200381D01*
X46114381Y-95581333D01*
X46257239Y-95581333D01*
X46352477Y-95628952D01*
X46400096Y-95676571D01*
X46447715Y-95771810D01*
X46447715Y-96009905D01*
X46400096Y-96105143D01*
X46352477Y-96152762D01*
X46257239Y-96200381D01*
X45971524Y-96200381D01*
X45876286Y-96152762D01*
X45828667Y-96105143D01*
X165702381Y-88559524D02*
X166702381Y-88226191D01*
X165702381Y-87892857D01*
X166702381Y-86988095D02*
X166226190Y-87321429D01*
X166702381Y-87559524D02*
X165702381Y-87559524D01*
X165702381Y-87178571D01*
X165750000Y-87083333D01*
X165797619Y-87035714D01*
X165892857Y-86988095D01*
X166035714Y-86988095D01*
X166130952Y-87035714D01*
X166178571Y-87083333D01*
X166226190Y-87178571D01*
X166226190Y-87559524D01*
X166702381Y-86035714D02*
X166702381Y-86607143D01*
X166702381Y-86321429D02*
X165702381Y-86321429D01*
X165845238Y-86416667D01*
X165940476Y-86511905D01*
X165988095Y-86607143D01*
X158702381Y-88559524D02*
X159702381Y-88226191D01*
X158702381Y-87892857D01*
X159702381Y-86988095D02*
X159226190Y-87321429D01*
X159702381Y-87559524D02*
X158702381Y-87559524D01*
X158702381Y-87178571D01*
X158750000Y-87083333D01*
X158797619Y-87035714D01*
X158892857Y-86988095D01*
X159035714Y-86988095D01*
X159130952Y-87035714D01*
X159178571Y-87083333D01*
X159226190Y-87178571D01*
X159226190Y-87559524D01*
X158797619Y-86607143D02*
X158750000Y-86559524D01*
X158702381Y-86464286D01*
X158702381Y-86226190D01*
X158750000Y-86130952D01*
X158797619Y-86083333D01*
X158892857Y-86035714D01*
X158988095Y-86035714D01*
X159130952Y-86083333D01*
X159702381Y-86654762D01*
X159702381Y-86035714D01*
X151952381Y-88559524D02*
X152952381Y-88226191D01*
X151952381Y-87892857D01*
X152952381Y-86988095D02*
X152476190Y-87321429D01*
X152952381Y-87559524D02*
X151952381Y-87559524D01*
X151952381Y-87178571D01*
X152000000Y-87083333D01*
X152047619Y-87035714D01*
X152142857Y-86988095D01*
X152285714Y-86988095D01*
X152380952Y-87035714D01*
X152428571Y-87083333D01*
X152476190Y-87178571D01*
X152476190Y-87559524D01*
X151952381Y-86654762D02*
X151952381Y-86035714D01*
X152333333Y-86369048D01*
X152333333Y-86226190D01*
X152380952Y-86130952D01*
X152428571Y-86083333D01*
X152523810Y-86035714D01*
X152761905Y-86035714D01*
X152857143Y-86083333D01*
X152904762Y-86130952D01*
X152952381Y-86226190D01*
X152952381Y-86511905D01*
X152904762Y-86607143D01*
X152857143Y-86654762D01*
X144452381Y-88559524D02*
X145452381Y-88226191D01*
X144452381Y-87892857D01*
X145452381Y-86988095D02*
X144976190Y-87321429D01*
X145452381Y-87559524D02*
X144452381Y-87559524D01*
X144452381Y-87178571D01*
X144500000Y-87083333D01*
X144547619Y-87035714D01*
X144642857Y-86988095D01*
X144785714Y-86988095D01*
X144880952Y-87035714D01*
X144928571Y-87083333D01*
X144976190Y-87178571D01*
X144976190Y-87559524D01*
X144785714Y-86130952D02*
X145452381Y-86130952D01*
X144404762Y-86369048D02*
X145119048Y-86607143D01*
X145119048Y-85988095D01*
X163152381Y-105109524D02*
X164152381Y-104776191D01*
X163152381Y-104442857D01*
X164152381Y-103538095D02*
X163676190Y-103871429D01*
X164152381Y-104109524D02*
X163152381Y-104109524D01*
X163152381Y-103728571D01*
X163200000Y-103633333D01*
X163247619Y-103585714D01*
X163342857Y-103538095D01*
X163485714Y-103538095D01*
X163580952Y-103585714D01*
X163628571Y-103633333D01*
X163676190Y-103728571D01*
X163676190Y-104109524D01*
X163152381Y-102633333D02*
X163152381Y-103109524D01*
X163628571Y-103157143D01*
X163580952Y-103109524D01*
X163533333Y-103014286D01*
X163533333Y-102776190D01*
X163580952Y-102680952D01*
X163628571Y-102633333D01*
X163723810Y-102585714D01*
X163961905Y-102585714D01*
X164057143Y-102633333D01*
X164104762Y-102680952D01*
X164152381Y-102776190D01*
X164152381Y-103014286D01*
X164104762Y-103109524D01*
X164057143Y-103157143D01*
X170152381Y-105109524D02*
X171152381Y-104776191D01*
X170152381Y-104442857D01*
X171152381Y-103538095D02*
X170676190Y-103871429D01*
X171152381Y-104109524D02*
X170152381Y-104109524D01*
X170152381Y-103728571D01*
X170200000Y-103633333D01*
X170247619Y-103585714D01*
X170342857Y-103538095D01*
X170485714Y-103538095D01*
X170580952Y-103585714D01*
X170628571Y-103633333D01*
X170676190Y-103728571D01*
X170676190Y-104109524D01*
X170152381Y-102680952D02*
X170152381Y-102871429D01*
X170200000Y-102966667D01*
X170247619Y-103014286D01*
X170390476Y-103109524D01*
X170580952Y-103157143D01*
X170961905Y-103157143D01*
X171057143Y-103109524D01*
X171104762Y-103061905D01*
X171152381Y-102966667D01*
X171152381Y-102776190D01*
X171104762Y-102680952D01*
X171057143Y-102633333D01*
X170961905Y-102585714D01*
X170723810Y-102585714D01*
X170628571Y-102633333D01*
X170580952Y-102680952D01*
X170533333Y-102776190D01*
X170533333Y-102966667D01*
X170580952Y-103061905D01*
X170628571Y-103109524D01*
X170723810Y-103157143D01*
X112302381Y-129409524D02*
X113302381Y-128742857D01*
X112302381Y-128742857D02*
X113302381Y-129409524D01*
X113302381Y-127838095D02*
X113302381Y-128409524D01*
X113302381Y-128123810D02*
X112302381Y-128123810D01*
X112445238Y-128219048D01*
X112540476Y-128314286D01*
X112588095Y-128409524D01*
X149452381Y-127859524D02*
X150452381Y-127192857D01*
X149452381Y-127192857D02*
X150452381Y-127859524D01*
X149547619Y-126859524D02*
X149500000Y-126811905D01*
X149452381Y-126716667D01*
X149452381Y-126478571D01*
X149500000Y-126383333D01*
X149547619Y-126335714D01*
X149642857Y-126288095D01*
X149738095Y-126288095D01*
X149880952Y-126335714D01*
X150452381Y-126907143D01*
X150452381Y-126288095D01*
X124745809Y-116816190D02*
X124745809Y-117292381D01*
X124412476Y-116292381D02*
X124745809Y-116816190D01*
X125079143Y-116292381D01*
X125936286Y-117292381D02*
X125364857Y-117292381D01*
X125650571Y-117292381D02*
X125650571Y-116292381D01*
X125555333Y-116435238D01*
X125460095Y-116530476D01*
X125364857Y-116578095D01*
X167261905Y-112372381D02*
X167261905Y-111372381D01*
X167642858Y-111372381D01*
X167738096Y-111420000D01*
X167785715Y-111467619D01*
X167833334Y-111562857D01*
X167833334Y-111705714D01*
X167785715Y-111800952D01*
X167738096Y-111848571D01*
X167642858Y-111896190D01*
X167261905Y-111896190D01*
X168166667Y-111372381D02*
X168785715Y-111372381D01*
X168452381Y-111753333D01*
X168595239Y-111753333D01*
X168690477Y-111800952D01*
X168738096Y-111848571D01*
X168785715Y-111943810D01*
X168785715Y-112181905D01*
X168738096Y-112277143D01*
X168690477Y-112324762D01*
X168595239Y-112372381D01*
X168309524Y-112372381D01*
X168214286Y-112324762D01*
X168166667Y-112277143D01*
X101893619Y-92043238D02*
X101846000Y-92138476D01*
X101750762Y-92233714D01*
X101607905Y-92376571D01*
X101560286Y-92471810D01*
X101560286Y-92567048D01*
X101798381Y-92519429D02*
X101750762Y-92614667D01*
X101655524Y-92709905D01*
X101465048Y-92757524D01*
X101131714Y-92757524D01*
X100941238Y-92709905D01*
X100846000Y-92614667D01*
X100798381Y-92519429D01*
X100798381Y-92328952D01*
X100846000Y-92233714D01*
X100941238Y-92138476D01*
X101131714Y-92090857D01*
X101465048Y-92090857D01*
X101655524Y-92138476D01*
X101750762Y-92233714D01*
X101798381Y-92328952D01*
X101798381Y-92519429D01*
X101226952Y-91519429D02*
X101179333Y-91614667D01*
X101131714Y-91662286D01*
X101036476Y-91709905D01*
X100988857Y-91709905D01*
X100893619Y-91662286D01*
X100846000Y-91614667D01*
X100798381Y-91519429D01*
X100798381Y-91328952D01*
X100846000Y-91233714D01*
X100893619Y-91186095D01*
X100988857Y-91138476D01*
X101036476Y-91138476D01*
X101131714Y-91186095D01*
X101179333Y-91233714D01*
X101226952Y-91328952D01*
X101226952Y-91519429D01*
X101274571Y-91614667D01*
X101322190Y-91662286D01*
X101417429Y-91709905D01*
X101607905Y-91709905D01*
X101703143Y-91662286D01*
X101750762Y-91614667D01*
X101798381Y-91519429D01*
X101798381Y-91328952D01*
X101750762Y-91233714D01*
X101703143Y-91186095D01*
X101607905Y-91138476D01*
X101417429Y-91138476D01*
X101322190Y-91186095D01*
X101274571Y-91233714D01*
X101226952Y-91328952D01*
X101893619Y-96361238D02*
X101846000Y-96456476D01*
X101750762Y-96551714D01*
X101607905Y-96694571D01*
X101560286Y-96789810D01*
X101560286Y-96885048D01*
X101798381Y-96837429D02*
X101750762Y-96932667D01*
X101655524Y-97027905D01*
X101465048Y-97075524D01*
X101131714Y-97075524D01*
X100941238Y-97027905D01*
X100846000Y-96932667D01*
X100798381Y-96837429D01*
X100798381Y-96646952D01*
X100846000Y-96551714D01*
X100941238Y-96456476D01*
X101131714Y-96408857D01*
X101465048Y-96408857D01*
X101655524Y-96456476D01*
X101750762Y-96551714D01*
X101798381Y-96646952D01*
X101798381Y-96837429D01*
X101798381Y-95932667D02*
X101798381Y-95742191D01*
X101750762Y-95646952D01*
X101703143Y-95599333D01*
X101560286Y-95504095D01*
X101369810Y-95456476D01*
X100988857Y-95456476D01*
X100893619Y-95504095D01*
X100846000Y-95551714D01*
X100798381Y-95646952D01*
X100798381Y-95837429D01*
X100846000Y-95932667D01*
X100893619Y-95980286D01*
X100988857Y-96027905D01*
X101226952Y-96027905D01*
X101322190Y-95980286D01*
X101369810Y-95932667D01*
X101417429Y-95837429D01*
X101417429Y-95646952D01*
X101369810Y-95551714D01*
X101322190Y-95504095D01*
X101226952Y-95456476D01*
X103497143Y-81224381D02*
X103163809Y-80748190D01*
X102925714Y-81224381D02*
X102925714Y-80224381D01*
X103306667Y-80224381D01*
X103401905Y-80272000D01*
X103449524Y-80319619D01*
X103497143Y-80414857D01*
X103497143Y-80557714D01*
X103449524Y-80652952D01*
X103401905Y-80700571D01*
X103306667Y-80748190D01*
X102925714Y-80748190D01*
X104401905Y-80224381D02*
X103925714Y-80224381D01*
X103878095Y-80700571D01*
X103925714Y-80652952D01*
X104020952Y-80605333D01*
X104259048Y-80605333D01*
X104354286Y-80652952D01*
X104401905Y-80700571D01*
X104449524Y-80795810D01*
X104449524Y-81033905D01*
X104401905Y-81129143D01*
X104354286Y-81176762D01*
X104259048Y-81224381D01*
X104020952Y-81224381D01*
X103925714Y-81176762D01*
X103878095Y-81129143D01*
X104782857Y-80224381D02*
X105401905Y-80224381D01*
X105068571Y-80605333D01*
X105211429Y-80605333D01*
X105306667Y-80652952D01*
X105354286Y-80700571D01*
X105401905Y-80795810D01*
X105401905Y-81033905D01*
X105354286Y-81129143D01*
X105306667Y-81176762D01*
X105211429Y-81224381D01*
X104925714Y-81224381D01*
X104830476Y-81176762D01*
X104782857Y-81129143D01*
X118557143Y-96452381D02*
X118223809Y-95976190D01*
X117985714Y-96452381D02*
X117985714Y-95452381D01*
X118366667Y-95452381D01*
X118461905Y-95500000D01*
X118509524Y-95547619D01*
X118557143Y-95642857D01*
X118557143Y-95785714D01*
X118509524Y-95880952D01*
X118461905Y-95928571D01*
X118366667Y-95976190D01*
X117985714Y-95976190D01*
X119461905Y-95452381D02*
X118985714Y-95452381D01*
X118938095Y-95928571D01*
X118985714Y-95880952D01*
X119080952Y-95833333D01*
X119319048Y-95833333D01*
X119414286Y-95880952D01*
X119461905Y-95928571D01*
X119509524Y-96023810D01*
X119509524Y-96261905D01*
X119461905Y-96357143D01*
X119414286Y-96404762D01*
X119319048Y-96452381D01*
X119080952Y-96452381D01*
X118985714Y-96404762D01*
X118938095Y-96357143D01*
X120366667Y-95785714D02*
X120366667Y-96452381D01*
X120128571Y-95404762D02*
X119890476Y-96119048D01*
X120509524Y-96119048D01*
X118483143Y-93416381D02*
X118149809Y-92940190D01*
X117911714Y-93416381D02*
X117911714Y-92416381D01*
X118292667Y-92416381D01*
X118387905Y-92464000D01*
X118435524Y-92511619D01*
X118483143Y-92606857D01*
X118483143Y-92749714D01*
X118435524Y-92844952D01*
X118387905Y-92892571D01*
X118292667Y-92940190D01*
X117911714Y-92940190D01*
X119387905Y-92416381D02*
X118911714Y-92416381D01*
X118864095Y-92892571D01*
X118911714Y-92844952D01*
X119006952Y-92797333D01*
X119245048Y-92797333D01*
X119340286Y-92844952D01*
X119387905Y-92892571D01*
X119435524Y-92987810D01*
X119435524Y-93225905D01*
X119387905Y-93321143D01*
X119340286Y-93368762D01*
X119245048Y-93416381D01*
X119006952Y-93416381D01*
X118911714Y-93368762D01*
X118864095Y-93321143D01*
X120340286Y-92416381D02*
X119864095Y-92416381D01*
X119816476Y-92892571D01*
X119864095Y-92844952D01*
X119959333Y-92797333D01*
X120197429Y-92797333D01*
X120292667Y-92844952D01*
X120340286Y-92892571D01*
X120387905Y-92987810D01*
X120387905Y-93225905D01*
X120340286Y-93321143D01*
X120292667Y-93368762D01*
X120197429Y-93416381D01*
X119959333Y-93416381D01*
X119864095Y-93368762D01*
X119816476Y-93321143D01*
X118483143Y-90368381D02*
X118149809Y-89892190D01*
X117911714Y-90368381D02*
X117911714Y-89368381D01*
X118292667Y-89368381D01*
X118387905Y-89416000D01*
X118435524Y-89463619D01*
X118483143Y-89558857D01*
X118483143Y-89701714D01*
X118435524Y-89796952D01*
X118387905Y-89844571D01*
X118292667Y-89892190D01*
X117911714Y-89892190D01*
X119387905Y-89368381D02*
X118911714Y-89368381D01*
X118864095Y-89844571D01*
X118911714Y-89796952D01*
X119006952Y-89749333D01*
X119245048Y-89749333D01*
X119340286Y-89796952D01*
X119387905Y-89844571D01*
X119435524Y-89939810D01*
X119435524Y-90177905D01*
X119387905Y-90273143D01*
X119340286Y-90320762D01*
X119245048Y-90368381D01*
X119006952Y-90368381D01*
X118911714Y-90320762D01*
X118864095Y-90273143D01*
X120292667Y-89368381D02*
X120102190Y-89368381D01*
X120006952Y-89416000D01*
X119959333Y-89463619D01*
X119864095Y-89606476D01*
X119816476Y-89796952D01*
X119816476Y-90177905D01*
X119864095Y-90273143D01*
X119911714Y-90320762D01*
X120006952Y-90368381D01*
X120197429Y-90368381D01*
X120292667Y-90320762D01*
X120340286Y-90273143D01*
X120387905Y-90177905D01*
X120387905Y-89939810D01*
X120340286Y-89844571D01*
X120292667Y-89796952D01*
X120197429Y-89749333D01*
X120006952Y-89749333D01*
X119911714Y-89796952D01*
X119864095Y-89844571D01*
X119816476Y-89939810D01*
X47397143Y-69872857D02*
X47444762Y-69920476D01*
X47492381Y-70063333D01*
X47492381Y-70158571D01*
X47444762Y-70301429D01*
X47349524Y-70396667D01*
X47254286Y-70444286D01*
X47063810Y-70491905D01*
X46920952Y-70491905D01*
X46730476Y-70444286D01*
X46635238Y-70396667D01*
X46540000Y-70301429D01*
X46492381Y-70158571D01*
X46492381Y-70063333D01*
X46540000Y-69920476D01*
X46587619Y-69872857D01*
X46587619Y-69491905D02*
X46540000Y-69444286D01*
X46492381Y-69349048D01*
X46492381Y-69110952D01*
X46540000Y-69015714D01*
X46587619Y-68968095D01*
X46682857Y-68920476D01*
X46778095Y-68920476D01*
X46920952Y-68968095D01*
X47492381Y-69539524D01*
X47492381Y-68920476D01*
X46825714Y-68063333D02*
X47492381Y-68063333D01*
X46444762Y-68301429D02*
X47159048Y-68539524D01*
X47159048Y-67920476D01*
X76607143Y-69872857D02*
X76654762Y-69920476D01*
X76702381Y-70063333D01*
X76702381Y-70158571D01*
X76654762Y-70301429D01*
X76559524Y-70396667D01*
X76464286Y-70444286D01*
X76273810Y-70491905D01*
X76130952Y-70491905D01*
X75940476Y-70444286D01*
X75845238Y-70396667D01*
X75750000Y-70301429D01*
X75702381Y-70158571D01*
X75702381Y-70063333D01*
X75750000Y-69920476D01*
X75797619Y-69872857D01*
X75797619Y-69491905D02*
X75750000Y-69444286D01*
X75702381Y-69349048D01*
X75702381Y-69110952D01*
X75750000Y-69015714D01*
X75797619Y-68968095D01*
X75892857Y-68920476D01*
X75988095Y-68920476D01*
X76130952Y-68968095D01*
X76702381Y-69539524D01*
X76702381Y-68920476D01*
X75702381Y-68015714D02*
X75702381Y-68491905D01*
X76178571Y-68539524D01*
X76130952Y-68491905D01*
X76083333Y-68396667D01*
X76083333Y-68158571D01*
X76130952Y-68063333D01*
X76178571Y-68015714D01*
X76273810Y-67968095D01*
X76511905Y-67968095D01*
X76607143Y-68015714D01*
X76654762Y-68063333D01*
X76702381Y-68158571D01*
X76702381Y-68396667D01*
X76654762Y-68491905D01*
X76607143Y-68539524D01*
X28452381Y-112238095D02*
X29261905Y-112238095D01*
X29357143Y-112190476D01*
X29404762Y-112142857D01*
X29452381Y-112047619D01*
X29452381Y-111857142D01*
X29404762Y-111761904D01*
X29357143Y-111714285D01*
X29261905Y-111666666D01*
X28452381Y-111666666D01*
X29452381Y-110666666D02*
X29452381Y-111238095D01*
X29452381Y-110952381D02*
X28452381Y-110952381D01*
X28595238Y-111047619D01*
X28690476Y-111142857D01*
X28738095Y-111238095D01*
X29452381Y-109714285D02*
X29452381Y-110285714D01*
X29452381Y-110000000D02*
X28452381Y-110000000D01*
X28595238Y-110095238D01*
X28690476Y-110190476D01*
X28738095Y-110285714D01*
X103052381Y-64242857D02*
X102576190Y-64576191D01*
X103052381Y-64814286D02*
X102052381Y-64814286D01*
X102052381Y-64433333D01*
X102100000Y-64338095D01*
X102147619Y-64290476D01*
X102242857Y-64242857D01*
X102385714Y-64242857D01*
X102480952Y-64290476D01*
X102528571Y-64338095D01*
X102576190Y-64433333D01*
X102576190Y-64814286D01*
X102147619Y-63861905D02*
X102100000Y-63814286D01*
X102052381Y-63719048D01*
X102052381Y-63480952D01*
X102100000Y-63385714D01*
X102147619Y-63338095D01*
X102242857Y-63290476D01*
X102338095Y-63290476D01*
X102480952Y-63338095D01*
X103052381Y-63909524D01*
X103052381Y-63290476D01*
X102052381Y-62957143D02*
X102052381Y-62338095D01*
X102433333Y-62671429D01*
X102433333Y-62528571D01*
X102480952Y-62433333D01*
X102528571Y-62385714D01*
X102623810Y-62338095D01*
X102861905Y-62338095D01*
X102957143Y-62385714D01*
X103004762Y-62433333D01*
X103052381Y-62528571D01*
X103052381Y-62814286D01*
X103004762Y-62909524D01*
X102957143Y-62957143D01*
X171814381Y-127373333D02*
X172528667Y-127373333D01*
X172671524Y-127420953D01*
X172766762Y-127516191D01*
X172814381Y-127659048D01*
X172814381Y-127754286D01*
X172814381Y-126373333D02*
X172814381Y-126944762D01*
X172814381Y-126659048D02*
X171814381Y-126659048D01*
X171957238Y-126754286D01*
X172052476Y-126849524D01*
X172100095Y-126944762D01*
X45553334Y-104819143D02*
X45505715Y-104866762D01*
X45362858Y-104914381D01*
X45267620Y-104914381D01*
X45124762Y-104866762D01*
X45029524Y-104771524D01*
X44981905Y-104676286D01*
X44934286Y-104485810D01*
X44934286Y-104342952D01*
X44981905Y-104152476D01*
X45029524Y-104057238D01*
X45124762Y-103962000D01*
X45267620Y-103914381D01*
X45362858Y-103914381D01*
X45505715Y-103962000D01*
X45553334Y-104009619D01*
X46458096Y-103914381D02*
X45981905Y-103914381D01*
X45934286Y-104390571D01*
X45981905Y-104342952D01*
X46077143Y-104295333D01*
X46315239Y-104295333D01*
X46410477Y-104342952D01*
X46458096Y-104390571D01*
X46505715Y-104485810D01*
X46505715Y-104723905D01*
X46458096Y-104819143D01*
X46410477Y-104866762D01*
X46315239Y-104914381D01*
X46077143Y-104914381D01*
X45981905Y-104866762D01*
X45934286Y-104819143D01*
X74753905Y-100464381D02*
X74753905Y-99464381D01*
X74992000Y-99464381D01*
X75134858Y-99512000D01*
X75230096Y-99607238D01*
X75277715Y-99702476D01*
X75325334Y-99892952D01*
X75325334Y-100035810D01*
X75277715Y-100226286D01*
X75230096Y-100321524D01*
X75134858Y-100416762D01*
X74992000Y-100464381D01*
X74753905Y-100464381D01*
X75658667Y-99464381D02*
X76325334Y-99464381D01*
X75896762Y-100464381D01*
M02*
